JetBrainsMoro-Regular.ufo
<glyph name="dollar" format="2">
  <advance width="600"/>
  <unicode hex="0024"/>
  <outline>
    <contour>
      <point x="275" y="-140" type="line"/>
      <point x="335" y="-140" type="line"/>
      <point x="335" y="-9" type="line"/>
      <point x="452" y="3"/>
      <point x="528" y="80"/>
      <point x="528" y="190" type="curve" smooth="yes"/>
      <point x="528" y="289"/>
      <point x="472" y="366"/>
      <point x="375" y="397" type="curve" smooth="yes"/>
      <point x="335" y="410" type="line"/>
      <point x="335" y="658" type="line"/>
      <point x="395" y="648"/>
      <point x="429" y="607"/>
      <point x="429" y="545" type="curve"/>
      <point x="519" y="545" type="line"/>
      <point x="517" y="654"/>
      <point x="446" y="728"/>
      <point x="335" y="739" type="curve"/>
      <point x="335" y="870" type="line"/>
      <point x="275" y="870" type="line"/>
      <point x="275" y="738" type="line"/>
      <point x="163" y="727"/>
      <point x="92" y="653"/>
      <point x="92" y="546" type="curve" smooth="yes"/>
      <point x="92" y="448"/>
      <point x="148" y="373"/>
      <point x="248" y="342" type="curve" smooth="yes"/>
      <point x="275" y="334" type="line"/>
      <point x="275" y="72" type="line"/>
      <point x="203" y="81"/>
      <point x="162" y="124"/>
      <point x="162" y="190" type="curve"/>
      <point x="72" y="190" type="line"/>
      <point x="74" y="75"/>
      <point x="149" y="1"/>
      <point x="275" y="-9" type="curve"/>
    </contour>
    <contour>
      <point x="335" y="72" type="curve"/>
      <point x="335" y="315" type="line"/>
      <point x="347" y="311" type="line" smooth="yes"/>
      <point x="405" y="293"/>
      <point x="438" y="246"/>
      <point x="438" y="188" type="curve" smooth="yes"/>
      <point x="438" y="124"/>
      <point x="400" y="82"/>
    </contour>
    <contour>
      <point x="275" y="389" type="line"/>
      <point x="306" y="422" type="line"/>
      <point x="226" y="434"/>
      <point x="182" y="484"/>
      <point x="182" y="554" type="curve" smooth="yes"/>
      <point x="182" y="611"/>
      <point x="216" y="649"/>
      <point x="275" y="658" type="curve"/>
    </contour>
  </outline>
</glyph>
<glyph name="ampersand" format="2">
  <advance width="600"/>
  <unicode hex="0026"/>
  <outline>
    <contour>
      <point x="230" y="-10" type="curve" smooth="yes"/>
      <point x="295" y="-10"/>
      <point x="356" y="24"/>
      <point x="404" y="87" type="curve"/>
      <point x="467" y="0" type="line"/>
      <point x="566" y="0" type="line"/>
      <point x="449" y="161" type="line"/>
      <point x="562" y="360" type="line"/>
      <point x="468" y="360" type="line"/>
      <point x="397" y="233" type="line"/>
      <point x="225" y="470" type="line" smooth="yes"/>
      <point x="200" y="504"/>
      <point x="185" y="546"/>
      <point x="185" y="579" type="curve" smooth="yes"/>
      <point x="185" y="630"/>
      <point x="220" y="662"/>
      <point x="275" y="662" type="curve" smooth="yes"/>
      <point x="336" y="662"/>
      <point x="374" y="627"/>
      <point x="374" y="569" type="curve"/>
      <point x="464" y="569" type="line"/>
      <point x="464" y="674"/>
      <point x="391" y="740"/>
      <point x="275" y="740" type="curve" smooth="yes"/>
      <point x="167" y="740"/>
      <point x="95" y="677"/>
      <point x="95" y="581" type="curve" smooth="yes"/>
      <point x="95" y="533"/>
      <point x="113" y="487"/>
      <point x="154" y="431" type="curve" smooth="yes"/>
      <point x="161" y="421" type="line"/>
      <point x="93" y="401"/>
      <point x="55" y="350"/>
      <point x="55" y="280" type="curve" smooth="yes"/>
      <point x="55" y="155" type="line" smooth="yes"/>
      <point x="55" y="52"/>
      <point x="121" y="-10"/>
    </contour>
    <contour>
      <point x="235" y="70" type="curve" smooth="yes"/>
      <point x="178" y="70"/>
      <point x="145" y="101"/>
      <point x="145" y="155" type="curve" smooth="yes"/>
      <point x="145" y="280" type="line" smooth="yes"/>
      <point x="145" y="324"/>
      <point x="166" y="351"/>
      <point x="207" y="358" type="curve"/>
      <point x="354" y="155" type="line"/>
      <point x="325" y="102"/>
      <point x="280" y="70"/>
    </contour>
  </outline>
</glyph>
<glyph name="parenright" format="2">
  <advance width="600"/>
  <unicode hex="0029"/>
  <outline>
    <contour>
      <point x="115" y="-120" type="line"/>
      <point x="304" y="-73"/>
      <point x="415" y="71"/>
      <point x="415" y="270" type="curve" smooth="yes"/>
      <point x="415" y="450" type="line" smooth="yes"/>
      <point x="415" y="645"/>
      <point x="300" y="794"/>
      <point x="115" y="840" type="curve"/>
      <point x="115" y="755" type="line"/>
      <point x="243" y="725"/>
      <point x="325" y="607"/>
      <point x="325" y="450" type="curve" smooth="yes"/>
      <point x="325" y="270" type="line" smooth="yes"/>
      <point x="325" y="115"/>
      <point x="244" y="-1"/>
      <point x="115" y="-31" type="curve"/>
    </contour>
  </outline>
</glyph>
<glyph name="period" format="2">
  <advance width="600"/>
  <unicode hex="002E"/>
  <outline>
    <contour>
      <point x="300" y="-10" type="curve" smooth="yes"/>
      <point x="351" y="-10"/>
      <point x="383" y="21"/>
      <point x="383" y="71" type="curve" smooth="yes"/>
      <point x="383" y="123"/>
      <point x="351" y="156"/>
      <point x="300" y="156" type="curve" smooth="yes"/>
      <point x="249" y="156"/>
      <point x="217" y="123"/>
      <point x="217" y="71" type="curve" smooth="yes"/>
      <point x="217" y="21"/>
      <point x="249" y="-10"/>
    </contour>
  </outline>
</glyph>
<glyph name="zero" format="2">
  <advance width="600"/>
  <unicode hex="0030"/>
  <outline>
    <contour>
      <point x="300" y="-10" type="curve" smooth="yes"/>
      <point x="434" y="-10"/>
      <point x="520" y="75"/>
      <point x="520" y="205" type="curve" smooth="yes"/>
      <point x="520" y="525" type="line" smooth="yes"/>
      <point x="520" y="656"/>
      <point x="435" y="740"/>
      <point x="300" y="740" type="curve" smooth="yes"/>
      <point x="165" y="740"/>
      <point x="80" y="656"/>
      <point x="80" y="525" type="curve" smooth="yes"/>
      <point x="80" y="205" type="line" smooth="yes"/>
      <point x="80" y="74"/>
      <point x="165" y="-10"/>
    </contour>
    <contour>
      <point x="300" y="67" type="curve" smooth="yes"/>
      <point x="220" y="67"/>
      <point x="167" y="124"/>
      <point x="167" y="205" type="curve" smooth="yes"/>
      <point x="167" y="525" type="line" smooth="yes"/>
      <point x="167" y="606"/>
      <point x="220" y="663"/>
      <point x="300" y="663" type="curve" smooth="yes"/>
      <point x="380" y="663"/>
      <point x="433" y="606"/>
      <point x="433" y="525" type="curve" smooth="yes"/>
      <point x="433" y="205" type="line" smooth="yes"/>
      <point x="433" y="124"/>
      <point x="380" y="67"/>
    </contour>
    <contour>
      <point x="300" y="306" type="curve" smooth="yes"/>
      <point x="336" y="306"/>
      <point x="360" y="331"/>
      <point x="360" y="368" type="curve" smooth="yes"/>
      <point x="360" y="404"/>
      <point x="336" y="428"/>
      <point x="300" y="428" type="curve" smooth="yes"/>
      <point x="264" y="428"/>
      <point x="240" y="404"/>
      <point x="240" y="368" type="curve" smooth="yes"/>
      <point x="240" y="331"/>
      <point x="264" y="306"/>
    </contour>
  </outline>
</glyph>
<glyph name="six" format="2">
  <advance width="600"/>
  <unicode hex="0036"/>
  <outline>
    <contour>
      <point x="301" y="-10" type="curve" smooth="yes"/>
      <point x="442" y="-10"/>
      <point x="536" y="85"/>
      <point x="536" y="227" type="curve" smooth="yes"/>
      <point x="536" y="360"/>
      <point x="455" y="449"/>
      <point x="335" y="449" type="curve" smooth="yes"/>
      <point x="278" y="449"/>
      <point x="230" y="426"/>
      <point x="206" y="390" type="curve"/>
      <point x="202" y="393" type="line"/>
      <point x="400" y="730" type="line"/>
      <point x="302" y="730" type="line"/>
      <point x="130" y="427" type="line" smooth="yes"/>
      <point x="88" y="354"/>
      <point x="64" y="287"/>
      <point x="64" y="223" type="curve" smooth="yes"/>
      <point x="64" y="84"/>
      <point x="159" y="-10"/>
    </contour>
    <contour>
      <point x="300" y="70" type="curve" smooth="yes"/>
      <point x="213" y="70"/>
      <point x="154" y="132"/>
      <point x="154" y="225" type="curve" smooth="yes"/>
      <point x="154" y="318"/>
      <point x="213" y="380"/>
      <point x="300" y="380" type="curve" smooth="yes"/>
      <point x="387" y="380"/>
      <point x="446" y="318"/>
      <point x="446" y="225" type="curve" smooth="yes"/>
      <point x="446" y="132"/>
      <point x="387" y="70"/>
    </contour>
  </outline>
</glyph>
<glyph name="seven" format="2">
  <advance width="600"/>
  <unicode hex="0037"/>
  <outline>
    <contour>
      <point x="191" y="0" type="line"/>
      <point x="290" y="0" type="line"/>
      <point x="545" y="646" type="line"/>
      <point x="545" y="730" type="line"/>
      <point x="80" y="730" type="line"/>
      <point x="80" y="530" type="line"/>
      <point x="170" y="530" type="line"/>
      <point x="170" y="648" type="line"/>
      <point x="452" y="648" type="line"/>
    </contour>
  </outline>
</glyph>
<glyph name="eight" format="2">
  <advance width="600"/>
  <unicode hex="0038"/>
  <outline>
    <contour>
      <point x="300" y="-10" type="curve" smooth="yes"/>
      <point x="441" y="-10"/>
      <point x="534" y="69"/>
      <point x="534" y="183" type="curve" smooth="yes"/>
      <point x="534" y="272"/>
      <point x="468" y="354"/>
      <point x="368" y="391" type="curve" smooth="yes"/>
      <point x="271" y="427" type="line" smooth="yes"/>
      <point x="211" y="449"/>
      <point x="170" y="496"/>
      <point x="170" y="551" type="curve" smooth="yes"/>
      <point x="170" y="615"/>
      <point x="223" y="661"/>
      <point x="300" y="661" type="curve" smooth="yes"/>
      <point x="377" y="661"/>
      <point x="430" y="616"/>
      <point x="430" y="551" type="curve" smooth="yes"/>
      <point x="430" y="498"/>
      <point x="387" y="450"/>
      <point x="325" y="426" type="curve" smooth="yes"/>
      <point x="228" y="389" type="line" smooth="yes"/>
      <point x="130" y="352"/>
      <point x="66" y="271"/>
      <point x="66" y="183" type="curve" smooth="yes"/>
      <point x="66" y="69"/>
      <point x="159" y="-10"/>
    </contour>
    <contour>
      <point x="300" y="70" type="curve" smooth="yes"/>
      <point x="212" y="70"/>
      <point x="154" y="120"/>
      <point x="154" y="195" type="curve" smooth="yes"/>
      <point x="154" y="252"/>
      <point x="190" y="303"/>
      <point x="254" y="328" type="curve" smooth="yes"/>
      <point x="350" y="365" type="line" smooth="yes"/>
      <point x="462" y="408"/>
      <point x="518" y="478"/>
      <point x="518" y="554" type="curve" smooth="yes"/>
      <point x="518" y="663"/>
      <point x="426" y="741"/>
      <point x="300" y="741" type="curve" smooth="yes"/>
      <point x="174" y="741"/>
      <point x="82" y="663"/>
      <point x="82" y="554" type="curve" smooth="yes"/>
      <point x="82" y="477"/>
      <point x="137" y="408"/>
      <point x="247" y="366" type="curve" smooth="yes"/>
      <point x="343" y="329" type="line" smooth="yes"/>
      <point x="408" y="304"/>
      <point x="446" y="254"/>
      <point x="446" y="195" type="curve" smooth="yes"/>
      <point x="446" y="120"/>
      <point x="388" y="70"/>
    </contour>
  </outline>
</glyph>
<glyph name="nine" format="2">
  <advance width="600"/>
  <unicode hex="0039"/>
  <outline>
    <contour>
      <point x="200" y="0" type="line"/>
      <point x="300" y="0" type="line"/>
      <point x="469" y="303" type="line" smooth="yes"/>
      <point x="510" y="376"/>
      <point x="536" y="443"/>
      <point x="536" y="507" type="curve" smooth="yes"/>
      <point x="536" y="646"/>
      <point x="441" y="740"/>
      <point x="299" y="740" type="curve" smooth="yes"/>
      <point x="158" y="740"/>
      <point x="64" y="645"/>
      <point x="64" y="503" type="curve" smooth="yes"/>
      <point x="64" y="370"/>
      <point x="145" y="281"/>
      <point x="265" y="281" type="curve" smooth="yes"/>
      <point x="322" y="281"/>
      <point x="368" y="304"/>
      <point x="392" y="340" type="curve"/>
      <point x="396" y="337" type="line"/>
    </contour>
    <contour>
      <point x="300" y="350" type="curve" smooth="yes"/>
      <point x="213" y="350"/>
      <point x="154" y="412"/>
      <point x="154" y="505" type="curve" smooth="yes"/>
      <point x="154" y="598"/>
      <point x="213" y="660"/>
      <point x="300" y="660" type="curve" smooth="yes"/>
      <point x="387" y="660"/>
      <point x="446" y="598"/>
      <point x="446" y="505" type="curve" smooth="yes"/>
      <point x="446" y="412"/>
      <point x="387" y="350"/>
    </contour>
  </outline>
</glyph>
<glyph name="less" format="2">
  <advance width="600"/>
  <unicode hex="003C"/>
  <outline>
    <contour>
      <point x="515" y="65" type="line"/>
      <point x="515" y="155" type="line"/>
      <point x="205" y="308" type="line" smooth="yes"/>
      <point x="182" y="320"/>
      <point x="157" y="329"/>
      <point x="145" y="332" type="curve"/>
      <point x="156" y="335"/>
      <point x="180" y="344"/>
      <point x="205" y="356" type="curve" smooth="yes"/>
      <point x="515" y="508" type="line"/>
      <point x="515" y="595" type="line"/>
      <point x="85" y="380" type="line"/>
      <point x="85" y="280" type="line"/>
    </contour>
  </outline>
</glyph>
<glyph name="question" format="2">
  <advance width="600"/>
  <unicode hex="003F"/>
  <outline>
    <contour>
      <point x="206" y="205" type="line"/>
      <point x="296" y="205" type="line"/>
      <point x="296" y="310" type="line"/>
      <point x="408" y="316"/>
      <point x="485" y="400"/>
      <point x="485" y="515" type="curve" smooth="yes"/>
      <point x="485" y="646"/>
      <point x="395" y="730"/>
      <point x="255" y="730" type="curve" smooth="yes"/>
      <point x="130" y="730" type="line"/>
      <point x="130" y="645" type="line"/>
      <point x="255" y="645" type="line" smooth="yes"/>
      <point x="341" y="645"/>
      <point x="395" y="594"/>
      <point x="395" y="515" type="curve" smooth="yes"/>
      <point x="395" y="436"/>
      <point x="341" y="385"/>
      <point x="256" y="385" type="curve" smooth="yes"/>
      <point x="206" y="385" type="line"/>
    </contour>
    <contour>
      <point x="235" y="-5" type="curve" smooth="yes"/>
      <point x="265" y="-5" type="line" smooth="yes"/>
      <point x="300" y="-5"/>
      <point x="325" y="21"/>
      <point x="325" y="56" type="curve" smooth="yes"/>
      <point x="325" y="90"/>
      <point x="303" y="115"/>
      <point x="265" y="115" type="curve" smooth="yes"/>
      <point x="235" y="115" type="line" smooth="yes"/>
      <point x="200" y="115"/>
      <point x="175" y="90"/>
      <point x="175" y="55" type="curve" smooth="yes"/>
      <point x="175" y="20"/>
      <point x="200" y="-5"/>
    </contour>
  </outline>
</glyph>
<glyph name="F" format="2">
  <advance width="600"/>
  <unicode hex="0046"/>
  <anchor x="300" y="0" name="bottom"/>
  <anchor x="300" y="730" name="top"/>
  <outline>
    <contour>
      <point x="95" y="0" type="line"/>
      <point x="185" y="0" type="line"/>
      <point x="185" y="324" type="line"/>
      <point x="499" y="324" type="line"/>
      <point x="499" y="406" type="line"/>
      <point x="183" y="406" type="line"/>
      <point x="183" y="648" type="line"/>
      <point x="525" y="648" type="line"/>
      <point x="525" y="730" type="line"/>
      <point x="95" y="730" type="line"/>
    </contour>
  </outline>
</glyph>
<glyph name="I" format="2">
  <advance width="600"/>
  <unicode hex="0049"/>
  <anchor x="300" y="0" name="bottom"/>
  <anchor x="320" y="0" name="ogonek"/>
  <anchor x="300" y="730" name="top"/>
  <anchor x="20" y="730" name="topleft"/>
  <outline>
    <contour>
      <point x="105" y="0" type="line"/>
      <point x="495" y="0" type="line"/>
      <point x="495" y="82" type="line"/>
      <point x="346" y="82" type="line"/>
      <point x="346" y="648" type="line"/>
      <point x="495" y="648" type="line"/>
      <point x="495" y="730" type="line"/>
      <point x="105" y="730" type="line"/>
      <point x="105" y="648" type="line"/>
      <point x="254" y="648" type="line"/>
      <point x="254" y="82" type="line"/>
      <point x="105" y="82" type="line"/>
    </contour>
  </outline>
</glyph>
<glyph name="N" format="2">
  <advance width="600"/>
  <unicode hex="004E"/>
  <anchor x="300" y="0" name="bottom"/>
  <anchor x="300" y="730" name="top"/>
  <outline>
    <contour>
      <point x="90" y="0" type="line"/>
      <point x="177" y="0" type="line"/>
      <point x="177" y="410" type="line" smooth="yes"/>
      <point x="177" y="483"/>
      <point x="172" y="576"/>
      <point x="168" y="625" type="curve"/>
      <point x="390" y="0" type="line"/>
      <point x="510" y="0" type="line"/>
      <point x="510" y="730" type="line"/>
      <point x="423" y="730" type="line"/>
      <point x="423" y="320" type="line" smooth="yes"/>
      <point x="423" y="247"/>
      <point x="429" y="154"/>
      <point x="433" y="105" type="curve"/>
      <point x="210" y="730" type="line"/>
      <point x="90" y="730" type="line"/>
    </contour>
  </outline>
</glyph>
<glyph name="P" format="2">
  <advance width="600"/>
  <unicode hex="0050"/>
  <anchor x="300" y="0" name="bottom"/>
  <anchor x="300" y="730" name="top"/>
  <outline>
    <contour>
      <point x="92" y="0" type="line"/>
      <point x="182" y="0" type="line"/>
      <point x="182" y="300" type="line"/>
      <point x="327" y="300" type="line" smooth="yes"/>
      <point x="463" y="300"/>
      <point x="550" y="384"/>
      <point x="550" y="515" type="curve" smooth="yes"/>
      <point x="550" y="646"/>
      <point x="463" y="730"/>
      <point x="327" y="730" type="curve" smooth="yes"/>
      <point x="92" y="730" type="line"/>
    </contour>
    <contour>
      <point x="182" y="381" type="line"/>
      <point x="182" y="649" type="line"/>
      <point x="327" y="649" type="line" smooth="yes"/>
      <point x="406" y="649"/>
      <point x="457" y="597"/>
      <point x="457" y="515" type="curve" smooth="yes"/>
      <point x="457" y="433"/>
      <point x="406" y="381"/>
      <point x="327" y="381" type="curve" smooth="yes"/>
    </contour>
  </outline>
</glyph>
<glyph name="S" format="2">
  <advance width="600"/>
  <unicode hex="0053"/>
  <anchor x="300" y="0" name="bottom"/>
  <anchor x="300" y="730" name="top"/>
  <outline>
    <contour>
      <point x="304" y="-10" type="curve" smooth="yes"/>
      <point x="440" y="-10"/>
      <point x="528" y="69"/>
      <point x="528" y="192" type="curve" smooth="yes"/>
      <point x="528" y="291"/>
      <point x="470" y="370"/>
      <point x="378" y="400" type="curve" smooth="yes"/>
      <point x="266" y="436" type="line" smooth="yes"/>
      <point x="212" y="453"/>
      <point x="180" y="493"/>
      <point x="180" y="547" type="curve" smooth="yes"/>
      <point x="180" y="615"/>
      <point x="230" y="660"/>
      <point x="306" y="660" type="curve" smooth="yes"/>
      <point x="381" y="660"/>
      <point x="429" y="615"/>
      <point x="429" y="545" type="curve"/>
      <point x="519" y="545" type="line"/>
      <point x="519" y="664"/>
      <point x="435" y="740"/>
      <point x="306" y="740" type="curve" smooth="yes"/>
      <point x="176" y="740"/>
      <point x="92" y="664"/>
      <point x="92" y="545" type="curve" smooth="yes"/>
      <point x="92" y="451"/>
      <point x="150" y="377"/>
      <point x="248" y="346" type="curve" smooth="yes"/>
      <point x="356" y="312" type="line" smooth="yes"/>
      <point x="408" y="296"/>
      <point x="440" y="249"/>
      <point x="440" y="192" type="curve" smooth="yes"/>
      <point x="440" y="119"/>
      <point x="387" y="70"/>
      <point x="304" y="70" type="curve" smooth="yes"/>
      <point x="218" y="70"/>
      <point x="162" y="119"/>
      <point x="162" y="192" type="curve"/>
      <point x="72" y="192" type="line"/>
      <point x="72" y="69"/>
      <point x="163" y="-10"/>
    </contour>
  </outline>
</glyph>
<glyph name="T" format="2">
  <advance width="600"/>
  <unicode hex="0054"/>
  <anchor x="300" y="0" name="bottom"/>
  <anchor x="300" y="365" name="center"/>
  <anchor x="300" y="730" name="top"/>
  <outline>
    <contour>
      <point x="255" y="0" type="line"/>
      <point x="345" y="0" type="line"/>
      <point x="345" y="648" type="line"/>
      <point x="545" y="648" type="line"/>
      <point x="545" y="730" type="line"/>
      <point x="55" y="730" type="line"/>
      <point x="55" y="648" type="line"/>
      <point x="255" y="648" type="line"/>
    </contour>
  </outline>
</glyph>
<glyph name="V" format="2">
  <advance width="600"/>
  <unicode hex="0056"/>
  <anchor x="300" y="0" name="bottom"/>
  <anchor x="300" y="730" name="top"/>
  <outline>
    <contour>
      <point x="238" y="0" type="line"/>
      <point x="361" y="0" type="line"/>
      <point x="550" y="730" type="line"/>
      <point x="457" y="730" type="line"/>
      <point x="337" y="234" type="line" smooth="yes"/>
      <point x="320" y="165"/>
      <point x="306" y="100"/>
      <point x="301" y="70" type="curve"/>
      <point x="296" y="100"/>
      <point x="284" y="164"/>
      <point x="267" y="233" type="curve" smooth="yes"/>
      <point x="142" y="730" type="line"/>
      <point x="50" y="730" type="line"/>
    </contour>
  </outline>
</glyph>
<glyph name="W" format="2">
  <advance width="600"/>
  <unicode hex="0057"/>
  <anchor x="300" y="0" name="bottom"/>
  <anchor x="300" y="730" name="top"/>
  <outline>
    <contour>
      <point x="109" y="0" type="line"/>
      <point x="222" y="0" type="line"/>
      <point x="289" y="550" type="line" smooth="yes"/>
      <point x="294" y="595"/>
      <point x="299" y="643"/>
      <point x="302" y="667" type="curve"/>
      <point x="304" y="643"/>
      <point x="309" y="595"/>
      <point x="314" y="550" type="curve" smooth="yes"/>
      <point x="376" y="0" type="line"/>
      <point x="489" y="0" type="line"/>
      <point x="575" y="730" type="line"/>
      <point x="493" y="730" type="line"/>
      <point x="436" y="190" type="line" smooth="yes"/>
      <point x="431" y="146"/>
      <point x="427" y="93"/>
      <point x="425" y="65" type="curve"/>
      <point x="422" y="93"/>
      <point x="416" y="146"/>
      <point x="411" y="190" type="curve" smooth="yes"/>
      <point x="349" y="730" type="line"/>
      <point x="256" y="730" type="line"/>
      <point x="188" y="190" type="line" smooth="yes"/>
      <point x="182" y="146"/>
      <point x="178" y="93"/>
      <point x="175" y="65" type="curve"/>
      <point x="174" y="93"/>
      <point x="170" y="146"/>
      <point x="166" y="190" type="curve" smooth="yes"/>
      <point x="111" y="730" type="line"/>
      <point x="25" y="730" type="line"/>
    </contour>
  </outline>
</glyph>
<glyph name="Y" format="2">
  <advance width="600"/>
  <unicode hex="0059"/>
  <anchor x="300" y="0" name="bottom"/>
  <anchor x="300" y="730" name="top"/>
  <anchor x="20" y="730" name="topleft"/>
  <outline>
    <contour>
      <point x="255" y="0" type="line"/>
      <point x="345" y="0" type="line"/>
      <point x="345" y="273" type="line"/>
      <point x="565" y="730" type="line"/>
      <point x="472" y="730" type="line"/>
      <point x="330" y="430" type="line" smooth="yes"/>
      <point x="314" y="397"/>
      <point x="304" y="372"/>
      <point x="301" y="362" type="curve"/>
      <point x="298" y="372"/>
      <point x="289" y="397"/>
      <point x="273" y="430" type="curve" smooth="yes"/>
      <point x="128" y="730" type="line"/>
      <point x="35" y="730" type="line"/>
      <point x="255" y="273" type="line"/>
    </contour>
  </outline>
</glyph>
<glyph name="a" format="2">
  <advance width="600"/>
  <unicode hex="0061"/>
  <anchor x="305" y="0" name="bottom"/>
  <anchor x="465" y="0" name="ogonek"/>
  <anchor x="305" y="550" name="top"/>
  <outline>
    <contour>
      <point x="252" y="-10" type="curve" smooth="yes"/>
      <point x="355" y="-10"/>
      <point x="422" y="40"/>
      <point x="422" y="120" type="curve"/>
      <point x="407" y="105" type="line"/>
      <point x="422" y="105" type="line"/>
      <point x="422" y="0" type="line"/>
      <point x="510" y="0" type="line"/>
      <point x="510" y="378" type="line" smooth="yes"/>
      <point x="510" y="490"/>
      <point x="431" y="560"/>
      <point x="305" y="560" type="curve" smooth="yes"/>
      <point x="190" y="560"/>
      <point x="104" y="496"/>
      <point x="93" y="405" type="curve"/>
      <point x="183" y="405" type="line"/>
      <point x="190" y="444"/>
      <point x="233" y="481"/>
      <point x="302" y="481" type="curve" smooth="yes"/>
      <point x="374" y="481"/>
      <point x="420" y="442"/>
      <point x="420" y="375" type="curve" smooth="yes"/>
      <point x="420" y="320" type="line"/>
      <point x="250" y="320" type="line" smooth="yes"/>
      <point x="137" y="320"/>
      <point x="65" y="257"/>
      <point x="65" y="155" type="curve" smooth="yes"/>
      <point x="65" y="53"/>
      <point x="136" y="-10"/>
    </contour>
    <contour>
      <point x="274" y="61" type="curve" smooth="yes"/>
      <point x="199" y="61"/>
      <point x="155" y="98"/>
      <point x="155" y="160" type="curve" smooth="yes"/>
      <point x="155" y="217"/>
      <point x="192" y="253"/>
      <point x="252" y="253" type="curve" smooth="yes"/>
      <point x="420" y="253" type="line"/>
      <point x="420" y="175" type="line" smooth="yes"/>
      <point x="420" y="108"/>
      <point x="359" y="61"/>
    </contour>
  </outline>
</glyph>
<glyph name="f" format="2">
  <advance width="600"/>
  <unicode hex="0066"/>
  <anchor x="300" y="0" name="bottom"/>
  <anchor x="300" y="730" name="top"/>
  <outline>
    <contour>
      <point x="220" y="0" type="line"/>
      <point x="310" y="0" type="line"/>
      <point x="310" y="413" type="line"/>
      <point x="535" y="413" type="line"/>
      <point x="535" y="495" type="line"/>
      <point x="310" y="495" type="line"/>
      <point x="310" y="590" type="line" smooth="yes"/>
      <point x="310" y="628"/>
      <point x="333" y="648"/>
      <point x="374" y="648" type="curve" smooth="yes"/>
      <point x="535" y="648" type="line"/>
      <point x="535" y="730" type="line"/>
      <point x="374" y="730" type="line" smooth="yes"/>
      <point x="278" y="730"/>
      <point x="220" y="677"/>
      <point x="220" y="590" type="curve" smooth="yes"/>
      <point x="220" y="495" type="line"/>
      <point x="60" y="495" type="line"/>
      <point x="60" y="413" type="line"/>
      <point x="220" y="413" type="line"/>
    </contour>
  </outline>
</glyph>
<glyph name="l" format="2">
  <advance width="600"/>
  <unicode hex="006C"/>
  <anchor x="320" y="0" name="bottom"/>
  <anchor x="300" y="365" name="center"/>
  <anchor x="250" y="730" name="top"/>
  <anchor x="580" y="730" name="topright"/>
  <outline>
    <contour>
      <point x="380" y="0" type="curve" smooth="yes"/>
      <point x="550" y="0" type="line"/>
      <point x="550" y="82" type="line"/>
      <point x="380" y="82" type="line" smooth="yes"/>
      <point x="337" y="82"/>
      <point x="310" y="110"/>
      <point x="310" y="155" type="curve" smooth="yes"/>
      <point x="310" y="730" type="line"/>
      <point x="30" y="730" type="line"/>
      <point x="30" y="648" type="line"/>
      <point x="220" y="648" type="line"/>
      <point x="220" y="155" type="line" smooth="yes"/>
      <point x="220" y="61"/>
      <point x="283" y="0"/>
    </contour>
  </outline>
</glyph>
<glyph name="m" format="2">
  <advance width="600"/>
  <unicode hex="006D"/>
  <anchor x="300" y="0" name="bottom"/>
  <anchor x="300" y="550" name="top"/>
  <outline>
    <contour>
      <point x="60" y="0" type="line"/>
      <point x="143" y="0" type="line"/>
      <point x="143" y="420" type="line" smooth="yes"/>
      <point x="143" y="465"/>
      <point x="164" y="491"/>
      <point x="202" y="491" type="curve" smooth="yes"/>
      <point x="241" y="491"/>
      <point x="264" y="465"/>
      <point x="264" y="419" type="curve" smooth="yes"/>
      <point x="264" y="0" type="line"/>
      <point x="336" y="0" type="line"/>
      <point x="336" y="420" type="line" smooth="yes"/>
      <point x="336" y="465"/>
      <point x="358" y="491"/>
      <point x="397" y="491" type="curve" smooth="yes"/>
      <point x="435" y="491"/>
      <point x="457" y="465"/>
      <point x="457" y="419" type="curve" smooth="yes"/>
      <point x="457" y="0" type="line"/>
      <point x="540" y="0" type="line"/>
      <point x="540" y="418" type="line" smooth="yes"/>
      <point x="540" y="502"/>
      <point x="494" y="560"/>
      <point x="428" y="560" type="curve" smooth="yes"/>
      <point x="371" y="560"/>
      <point x="332" y="519"/>
      <point x="332" y="460" type="curve"/>
      <point x="351" y="484" type="line"/>
      <point x="309" y="484" type="line"/>
      <point x="336" y="430" type="line"/>
      <point x="336" y="507"/>
      <point x="296" y="560"/>
      <point x="237" y="560" type="curve" smooth="yes"/>
      <point x="181" y="560"/>
      <point x="143" y="519"/>
      <point x="143" y="460" type="curve"/>
      <point x="157" y="484" type="line"/>
      <point x="139" y="484" type="line"/>
      <point x="139" y="550" type="line"/>
      <point x="60" y="550" type="line"/>
    </contour>
  </outline>
</glyph>
<glyph name="o" format="2">
  <advance width="600"/>
  <unicode hex="006F"/>
  <anchor x="300" y="0" name="bottom"/>
  <anchor x="300" y="275" name="center"/>
  <anchor x="332" y="550" name="horn"/>
  <anchor x="350" y="0" name="ogonek"/>
  <anchor x="300" y="550" name="top"/>
  <anchor x="580" y="550" name="topright"/>
  <outline>
    <contour>
      <point x="300" y="-8" type="curve" smooth="yes"/>
      <point x="433" y="-8"/>
      <point x="515" y="72"/>
      <point x="515" y="202" type="curve" smooth="yes"/>
      <point x="515" y="349" type="line" smooth="yes"/>
      <point x="515" y="478"/>
      <point x="433" y="558"/>
      <point x="300" y="558" type="curve" smooth="yes"/>
      <point x="167" y="558"/>
      <point x="85" y="478"/>
      <point x="85" y="348" type="curve" smooth="yes"/>
      <point x="85" y="202" type="line" smooth="yes"/>
      <point x="85" y="72"/>
      <point x="167" y="-8"/>
    </contour>
    <contour>
      <point x="300" y="72" type="curve" smooth="yes"/>
      <point x="222" y="72"/>
      <point x="175" y="117"/>
      <point x="175" y="202" type="curve" smooth="yes"/>
      <point x="175" y="348" type="line" smooth="yes"/>
      <point x="175" y="433"/>
      <point x="222" y="478"/>
      <point x="300" y="478" type="curve" smooth="yes"/>
      <point x="378" y="478"/>
      <point x="425" y="433"/>
      <point x="425" y="348" type="curve" smooth="yes"/>
      <point x="425" y="202" type="line" smooth="yes"/>
      <point x="425" y="117"/>
      <point x="378" y="72"/>
    </contour>
  </outline>
</glyph>
<glyph name="p" format="2">
  <advance width="600"/>
  <unicode hex="0070"/>
  <anchor x="300" y="0" name="bottom"/>
  <anchor x="300" y="550" name="top"/>
  <outline>
    <contour>
      <point x="93" y="-180" type="line"/>
      <point x="183" y="-180" type="line"/>
      <point x="183" y="-20" type="line"/>
      <point x="181" y="105" type="line"/>
      <point x="201" y="105" type="line"/>
      <point x="183" y="126" type="line"/>
      <point x="183" y="43"/>
      <point x="244" y="-10"/>
      <point x="334" y="-10" type="curve" smooth="yes"/>
      <point x="445" y="-10"/>
      <point x="516" y="68"/>
      <point x="516" y="195" type="curve" smooth="yes"/>
      <point x="516" y="356" type="line" smooth="yes"/>
      <point x="516" y="482"/>
      <point x="444" y="560"/>
      <point x="334" y="560" type="curve" smooth="yes"/>
      <point x="243" y="560"/>
      <point x="183" y="508"/>
      <point x="183" y="424" type="curve"/>
      <point x="201" y="445" type="line"/>
      <point x="183" y="445" type="line"/>
      <point x="183" y="550" type="line"/>
      <point x="93" y="550" type="line"/>
    </contour>
    <contour>
      <point x="304" y="68" type="curve" smooth="yes"/>
      <point x="230" y="68"/>
      <point x="183" y="117"/>
      <point x="183" y="200" type="curve" smooth="yes"/>
      <point x="183" y="350" type="line" smooth="yes"/>
      <point x="183" y="433"/>
      <point x="230" y="482"/>
      <point x="304" y="482" type="curve" smooth="yes"/>
      <point x="380" y="482"/>
      <point x="426" y="435"/>
      <point x="426" y="350" type="curve" smooth="yes"/>
      <point x="426" y="200" type="line" smooth="yes"/>
      <point x="426" y="115"/>
      <point x="380" y="68"/>
    </contour>
  </outline>
</glyph>
<glyph name="s" format="2">
  <advance width="600"/>
  <unicode hex="0073"/>
  <anchor x="300" y="0" name="bottom"/>
  <anchor x="300" y="550" name="top"/>
  <outline>
    <contour>
      <point x="283" y="-8" type="curve" smooth="yes"/>
      <point x="325" y="-8" type="line" smooth="yes"/>
      <point x="455" y="-8"/>
      <point x="520" y="53"/>
      <point x="520" y="155" type="curve" smooth="yes"/>
      <point x="520" y="251"/>
      <point x="468" y="298"/>
      <point x="350" y="317" type="curve" smooth="yes"/>
      <point x="276" y="329" type="line" smooth="yes"/>
      <point x="220" y="338"/>
      <point x="191" y="361"/>
      <point x="191" y="403" type="curve" smooth="yes"/>
      <point x="191" y="451"/>
      <point x="226" y="478"/>
      <point x="289" y="478" type="curve" smooth="yes"/>
      <point x="327" y="478" type="line" smooth="yes"/>
      <point x="385" y="478"/>
      <point x="422" y="456"/>
      <point x="422" y="421" type="curve"/>
      <point x="514" y="421" type="line"/>
      <point x="514" y="504"/>
      <point x="441" y="558"/>
      <point x="329" y="558" type="curve" smooth="yes"/>
      <point x="291" y="558" type="line" smooth="yes"/>
      <point x="170" y="558"/>
      <point x="103" y="503"/>
      <point x="103" y="403" type="curve" smooth="yes"/>
      <point x="103" y="314"/>
      <point x="154" y="264"/>
      <point x="263" y="246" type="curve" smooth="yes"/>
      <point x="337" y="234" type="line" smooth="yes"/>
      <point x="398" y="224"/>
      <point x="432" y="198"/>
      <point x="432" y="151" type="curve" smooth="yes"/>
      <point x="432" y="103"/>
      <point x="398" y="72"/>
      <point x="327" y="72" type="curve" smooth="yes"/>
      <point x="285" y="72" type="line" smooth="yes"/>
      <point x="226" y="72"/>
      <point x="182" y="96"/>
      <point x="182" y="138" type="curve"/>
      <point x="90" y="138" type="line"/>
      <point x="90" y="47"/>
      <point x="170" y="-8"/>
    </contour>
  </outline>
</glyph>
<glyph name="u" format="2">
  <advance width="600"/>
  <unicode hex="0075"/>
  <anchor x="300" y="0" name="bottom"/>
  <anchor x="420" y="550" name="horn"/>
  <anchor x="350" y="0" name="ogonek"/>
  <anchor x="300" y="550" name="top"/>
  <anchor x="580" y="550" name="topright"/>
  <outline>
    <contour>
      <point x="299" y="-10" type="curve" smooth="yes"/>
      <point x="426" y="-10"/>
      <point x="510" y="71"/>
      <point x="510" y="200" type="curve" smooth="yes"/>
      <point x="510" y="550" type="line"/>
      <point x="420" y="550" type="line"/>
      <point x="420" y="200" type="line" smooth="yes"/>
      <point x="420" y="117"/>
      <point x="374" y="69"/>
      <point x="299" y="69" type="curve" smooth="yes"/>
      <point x="225" y="69"/>
      <point x="180" y="117"/>
      <point x="180" y="200" type="curve" smooth="yes"/>
      <point x="180" y="550" type="line"/>
      <point x="90" y="550" type="line"/>
      <point x="90" y="200" type="line" smooth="yes"/>
      <point x="90" y="71"/>
      <point x="172" y="-10"/>
    </contour>
  </outline>
</glyph>
<glyph name="v" format="2">
  <advance width="600"/>
  <unicode hex="0076"/>
  <anchor x="300" y="0" name="bottom"/>
  <anchor x="300" y="550" name="top"/>
  <outline>
    <contour>
      <point x="241" y="0" type="line"/>
      <point x="359" y="0" type="line"/>
      <point x="550" y="550" type="line"/>
      <point x="456" y="550" type="line"/>
      <point x="332" y="180" type="line" smooth="yes"/>
      <point x="317" y="136"/>
      <point x="308" y="91"/>
      <point x="302" y="69" type="curve"/>
      <point x="296" y="91"/>
      <point x="286" y="136"/>
      <point x="271" y="180" type="curve" smooth="yes"/>
      <point x="143" y="550" type="line"/>
      <point x="50" y="550" type="line"/>
    </contour>
  </outline>
</glyph>
<glyph name="w" format="2">
  <advance width="600"/>
  <unicode hex="0077"/>
  <anchor x="300" y="0" name="bottom"/>
  <anchor x="300" y="550" name="top"/>
  <outline>
    <contour>
      <point x="123" y="0" type="line"/>
      <point x="222" y="0" type="line"/>
      <point x="284" y="380" type="line" smooth="yes"/>
      <point x="290" y="417"/>
      <point x="295" y="458"/>
      <point x="297" y="480" type="curve"/>
      <point x="301" y="480" type="line"/>
      <point x="303" y="458"/>
      <point x="309" y="417"/>
      <point x="315" y="380" type="curve" smooth="yes"/>
      <point x="374" y="0" type="line"/>
      <point x="473" y="0" type="line"/>
      <point x="565" y="550" type="line"/>
      <point x="491" y="550" type="line"/>
      <point x="434" y="160" type="line" smooth="yes"/>
      <point x="430" y="131"/>
      <point x="425" y="92"/>
      <point x="422" y="70" type="curve"/>
      <point x="418" y="70" type="line"/>
      <point x="416" y="93"/>
      <point x="411" y="130"/>
      <point x="406" y="160" type="curve" smooth="yes"/>
      <point x="345" y="550" type="line"/>
      <point x="255" y="550" type="line"/>
      <point x="194" y="160" type="line" smooth="yes"/>
      <point x="189" y="131"/>
      <point x="184" y="92"/>
      <point x="182" y="70" type="curve"/>
      <point x="178" y="70" type="line"/>
      <point x="176" y="92"/>
      <point x="172" y="131"/>
      <point x="168" y="160" type="curve" smooth="yes"/>
      <point x="113" y="550" type="line"/>
      <point x="35" y="550" type="line"/>
    </contour>
  </outline>
</glyph>
<glyph name="braceright" format="2">
  <advance width="600"/>
  <unicode hex="007D"/>
  <outline>
    <contour>
      <point x="95" y="-110" type="line"/>
      <point x="140" y="-110" type="line" smooth="yes"/>
      <point x="258" y="-110"/>
      <point x="335" y="-49"/>
      <point x="325" y="56" type="curve" smooth="yes"/>
      <point x="310" y="220" type="line" smooth="yes"/>
      <point x="304" y="291"/>
      <point x="324" y="320"/>
      <point x="410" y="320" type="curve" smooth="yes"/>
      <point x="525" y="320" type="line"/>
      <point x="525" y="400" type="line"/>
      <point x="410" y="400" type="line" smooth="yes"/>
      <point x="323" y="400"/>
      <point x="304" y="429"/>
      <point x="310" y="500" type="curve" smooth="yes"/>
      <point x="325" y="664" type="line" smooth="yes"/>
      <point x="335" y="769"/>
      <point x="258" y="830"/>
      <point x="140" y="830" type="curve" smooth="yes"/>
      <point x="95" y="830" type="line"/>
      <point x="95" y="750" type="line"/>
      <point x="140" y="750" type="line" smooth="yes"/>
      <point x="203" y="750"/>
      <point x="240" y="721"/>
      <point x="235" y="664" type="curve" smooth="yes"/>
      <point x="220" y="500" type="line" smooth="yes"/>
      <point x="212" y="413"/>
      <point x="265" y="363"/>
      <point x="350" y="363" type="curve"/>
      <point x="350" y="368" type="line"/>
      <point x="266" y="368"/>
      <point x="212" y="306"/>
      <point x="220" y="220" type="curve" smooth="yes"/>
      <point x="235" y="56" type="line" smooth="yes"/>
      <point x="240" y="-1"/>
      <point x="203" y="-30"/>
      <point x="140" y="-30" type="curve" smooth="yes"/>
      <point x="95" y="-30" type="line"/>
    </contour>
  </outline>
</glyph>
<glyph name="asciitilde" format="2">
  <advance width="600"/>
  <unicode hex="007E"/>
  <outline>
    <contour>
      <point x="70" y="255" type="line"/>
      <point x="155" y="255" type="line"/>
      <point x="155" y="325" type="line" smooth="yes"/>
      <point x="155" y="361"/>
      <point x="172" y="380"/>
      <point x="202" y="380" type="curve" smooth="yes"/>
      <point x="270" y="380"/>
      <point x="275" y="250"/>
      <point x="400" y="250" type="curve" smooth="yes"/>
      <point x="478" y="250"/>
      <point x="530" y="303"/>
      <point x="530" y="380" type="curve" smooth="yes"/>
      <point x="530" y="450" type="line"/>
      <point x="445" y="450" type="line"/>
      <point x="445" y="380" type="line" smooth="yes"/>
      <point x="445" y="344"/>
      <point x="428" y="325"/>
      <point x="398" y="325" type="curve" smooth="yes"/>
      <point x="330" y="325"/>
      <point x="325" y="455"/>
      <point x="200" y="455" type="curve" smooth="yes"/>
      <point x="122" y="455"/>
      <point x="70" y="403"/>
      <point x="70" y="325" type="curve" smooth="yes"/>
    </contour>
  </outline>
</glyph>
<glyph name="cent" format="2">
  <advance width="600"/>
  <unicode hex="00A2"/>
  <anchor x="304" y="0" name="bottom"/>
  <anchor x="304" y="550" name="top"/>
  <outline>
    <contour>
      <point x="273" y="-140" type="line"/>
      <point x="333" y="-140" type="line"/>
      <point x="333" y="690" type="line"/>
      <point x="273" y="690" type="line"/>
    </contour>
    <component base="c"/>
  </outline>
</glyph>
<glyph name="onehalf" format="2">
  <advance width="600"/>
  <unicode hex="00BD"/>
  <outline>
    <contour>
      <point x="315" y="0" type="line"/>
      <point x="570" y="0" type="line"/>
      <point x="570" y="50" type="line"/>
      <point x="461" y="50" type="line" smooth="yes"/>
      <point x="432" y="50"/>
      <point x="401" y="45"/>
      <point x="386" y="42" type="curve"/>
      <point x="386" y="52" type="line"/>
      <point x="479" y="104" type="line" smooth="yes"/>
      <point x="534" y="135"/>
      <point x="565" y="177"/>
      <point x="565" y="218" type="curve" smooth="yes"/>
      <point x="565" y="285"/>
      <point x="515" y="330"/>
      <point x="440" y="330" type="curve" smooth="yes"/>
      <point x="368" y="330"/>
      <point x="318" y="285"/>
      <point x="315" y="216" type="curve"/>
      <point x="375" y="216" type="line"/>
      <point x="375" y="255"/>
      <point x="401" y="280"/>
      <point x="440" y="280" type="curve" smooth="yes"/>
      <point x="479" y="280"/>
      <point x="505" y="255"/>
      <point x="505" y="216" type="curve" smooth="yes"/>
      <point x="505" y="187"/>
      <point x="482" y="160"/>
      <point x="435" y="133" type="curve" smooth="yes"/>
      <point x="315" y="64" type="line"/>
    </contour>
    <contour>
      <point x="30" y="405" type="line"/>
      <point x="315" y="405" type="line"/>
      <point x="315" y="455" type="line"/>
      <point x="208" y="455" type="line"/>
      <point x="208" y="730" type="line"/>
      <point x="123" y="730" type="line"/>
      <point x="53" y="669" type="line"/>
      <point x="53" y="599" type="line"/>
      <point x="115" y="653" type="line" smooth="yes"/>
      <point x="130" y="666"/>
      <point x="142" y="682"/>
      <point x="148" y="691" type="curve"/>
      <point x="148" y="455" type="line"/>
      <point x="30" y="455" type="line"/>
    </contour>
    <component base="fraction"/>
  </outline>
</glyph>
<glyph name="eth" format="2">
  <advance width="600"/>
  <unicode hex="00F0"/>
  <outline>
    <contour>
      <point x="299" y="-10" type="curve" smooth="yes"/>
      <point x="438" y="-10"/>
      <point x="530" y="83"/>
      <point x="530" y="223" type="curve" smooth="yes"/>
      <point x="530" y="308"/>
      <point x="492" y="408"/>
      <point x="433" y="493" type="curve" smooth="yes"/>
      <point x="355" y="606" type="line"/>
      <point x="461" y="655" type="line"/>
      <point x="461" y="735" type="line"/>
      <point x="313" y="666" type="line"/>
      <point x="269" y="730" type="line"/>
      <point x="165" y="730" type="line"/>
      <point x="237" y="631" type="line"/>
      <point x="117" y="575" type="line"/>
      <point x="117" y="495" type="line"/>
      <point x="280" y="571" type="line"/>
      <point x="345" y="480" type="line" smooth="yes"/>
      <point x="382" y="430"/>
      <point x="403" y="393"/>
      <point x="409" y="380" type="curve"/>
      <point x="395" y="380" type="line"/>
      <point x="380" y="404"/>
      <point x="339" y="436"/>
      <point x="281" y="436" type="curve" smooth="yes"/>
      <point x="154" y="436"/>
      <point x="70" y="348"/>
      <point x="70" y="215" type="curve" smooth="yes"/>
      <point x="70" y="80"/>
      <point x="162" y="-10"/>
    </contour>
    <contour>
      <point x="299" y="70" type="curve" smooth="yes"/>
      <point x="216" y="70"/>
      <point x="160" y="128"/>
      <point x="160" y="215" type="curve" smooth="yes"/>
      <point x="160" y="302"/>
      <point x="216" y="360"/>
      <point x="299" y="360" type="curve" smooth="yes"/>
      <point x="384" y="360"/>
      <point x="440" y="302"/>
      <point x="440" y="215" type="curve" smooth="yes"/>
      <point x="440" y="128"/>
      <point x="384" y="70"/>
    </contour>
  </outline>
</glyph>
<glyph name="Aogonek" format="2">
  <advance width="600"/>
  <unicode hex="0104"/>
  <anchor x="300" y="0" name="bottom"/>
  <anchor x="500" y="0" name="ogonek"/>
  <anchor x="300" y="730" name="top"/>
  <outline>
    <contour>
      <point x="507" y="-203" type="curve" smooth="yes"/>
      <point x="585" y="-203" type="line"/>
      <point x="585" y="-143" type="line"/>
      <point x="525" y="-143" type="line" smooth="yes"/>
      <point x="491" y="-143"/>
      <point x="470" y="-122"/>
      <point x="470" y="-93" type="curve" smooth="yes"/>
      <point x="470" y="-65"/>
      <point x="489" y="-36"/>
      <point x="534" y="1" type="curve"/>
      <point x="545" y="10" type="line"/>
      <point x="470" y="10" type="line"/>
      <point x="407" y="-34"/>
      <point x="385" y="-72"/>
      <point x="385" y="-110" type="curve" smooth="yes"/>
      <point x="385" y="-164"/>
      <point x="433" y="-203"/>
    </contour>
    <component base="A"/>
  </outline>
</glyph>
<glyph name="Dcroat" format="2">
  <advance width="600"/>
  <unicode hex="0110"/>
  <anchor x="300" y="0" name="bottom"/>
  <anchor x="300" y="365" name="center"/>
  <anchor x="300" y="730" name="top"/>
  <outline>
    <contour>
      <point x="10" y="335" type="line"/>
      <point x="290" y="335" type="line"/>
      <point x="290" y="410" type="line"/>
      <point x="10" y="410" type="line"/>
    </contour>
    <component base="D"/>
  </outline>
</glyph>
<glyph name="Eogonek" format="2">
  <advance width="600"/>
  <unicode hex="0118"/>
  <anchor x="320" y="0" name="bottom"/>
  <anchor x="440" y="0" name="ogonek"/>
  <anchor x="320" y="730" name="top"/>
  <anchor x="20" y="730" name="topleft"/>
  <outline>
    <contour>
      <point x="447" y="-203" type="curve" smooth="yes"/>
      <point x="525" y="-203" type="line"/>
      <point x="525" y="-143" type="line"/>
      <point x="465" y="-143" type="line" smooth="yes"/>
      <point x="431" y="-143"/>
      <point x="410" y="-122"/>
      <point x="410" y="-93" type="curve" smooth="yes"/>
      <point x="410" y="-65"/>
      <point x="429" y="-36"/>
      <point x="474" y="1" type="curve"/>
      <point x="485" y="10" type="line"/>
      <point x="410" y="10" type="line"/>
      <point x="347" y="-34"/>
      <point x="325" y="-72"/>
      <point x="325" y="-110" type="curve" smooth="yes"/>
      <point x="325" y="-164"/>
      <point x="373" y="-203"/>
    </contour>
    <component base="E"/>
  </outline>
</glyph>
<glyph name="idotless" format="2">
  <advance width="600"/>
  <unicode hex="0131"/>
  <anchor x="315" y="0" name="bottom"/>
  <anchor x="330" y="0" name="ogonek"/>
  <anchor x="315" y="550" name="top"/>
  <outline>
    <contour>
      <point x="85" y="0" type="line"/>
      <point x="555" y="0" type="line"/>
      <point x="555" y="82" type="line"/>
      <point x="370" y="82" type="line"/>
      <point x="370" y="550" type="line"/>
      <point x="105" y="550" type="line"/>
      <point x="105" y="468" type="line"/>
      <point x="280" y="468" type="line"/>
      <point x="280" y="82" type="line"/>
      <point x="85" y="82" type="line"/>
    </contour>
  </outline>
</glyph>
<glyph name="Tcedilla" format="2">
  <advance width="600"/>
  <unicode hex="0162"/>
  <anchor x="300" y="0" name="_bottom"/>
  <anchor x="300" y="0" name="bottom"/>
  <anchor x="300" y="365" name="center"/>
  <anchor x="300" y="730" name="top"/>
  <outline>
    <contour>
      <point x="248" y="-203" type="line"/>
      <point x="333" y="-203" type="line" smooth="yes"/>
      <point x="405" y="-203"/>
      <point x="453" y="-166"/>
      <point x="453" y="-120" type="curve" smooth="yes"/>
      <point x="453" y="-68"/>
      <point x="385" y="-41"/>
      <point x="333" y="-35" type="curve"/>
      <point x="345" y="0" type="line"/>
      <point x="297" y="26" type="line"/>
      <point x="262" y="-69" type="line"/>
      <point x="329" y="-69"/>
      <point x="367" y="-89"/>
      <point x="367" y="-112" type="curve" smooth="yes"/>
      <point x="367" y="-130"/>
      <point x="347" y="-148"/>
      <point x="318" y="-148" type="curve" smooth="yes"/>
      <point x="248" y="-148" type="line"/>
    </contour>
    <component base="T"/>
  </outline>
</glyph>
<glyph name="Uogonek" format="2">
  <advance width="600"/>
  <unicode hex="0172"/>
  <anchor x="385" y="730" name="horn"/>
  <anchor x="300" y="730" name="top"/>
  <outline>
    <contour>
      <point x="379" y="-203" type="curve" smooth="yes"/>
      <point x="457" y="-203" type="line"/>
      <point x="457" y="-143" type="line"/>
      <point x="397" y="-143" type="line" smooth="yes"/>
      <point x="363" y="-143"/>
      <point x="342" y="-122"/>
      <point x="342" y="-93" type="curve" smooth="yes"/>
      <point x="342" y="-65"/>
      <point x="357" y="-36"/>
      <point x="401" y="1" type="curve" smooth="yes"/>
      <point x="430" y="25" type="line"/>
      <point x="482" y="60"/>
      <point x="510" y="121"/>
      <point x="510" y="200" type="curve" smooth="yes"/>
      <point x="510" y="730" type="line"/>
      <point x="420" y="730" type="line"/>
      <point x="420" y="200" type="line" smooth="yes"/>
      <point x="420" y="117"/>
      <point x="378" y="71"/>
      <point x="300" y="71" type="curve" smooth="yes"/>
      <point x="222" y="71"/>
      <point x="180" y="117"/>
      <point x="180" y="200" type="curve" smooth="yes"/>
      <point x="180" y="730" type="line"/>
      <point x="90" y="730" type="line"/>
      <point x="90" y="200" type="line" smooth="yes"/>
      <point x="90" y="69"/>
      <point x="169" y="-10"/>
      <point x="300" y="-10" type="curve" smooth="yes"/>
      <point x="304" y="-10"/>
      <point x="309" y="-10"/>
      <point x="313" y="-10" type="curve"/>
      <point x="277" y="-45"/>
      <point x="257" y="-82"/>
      <point x="257" y="-110" type="curve" smooth="yes"/>
      <point x="257" y="-164"/>
      <point x="305" y="-203"/>
    </contour>
  </outline>
</glyph>
<glyph name="uogonek" format="2">
  <advance width="600"/>
  <unicode hex="0173"/>
  <anchor x="420" y="550" name="horn"/>
  <anchor x="300" y="550" name="top"/>
  <outline>
    <contour>
      <point x="372" y="-203" type="curve" smooth="yes"/>
      <point x="450" y="-203" type="line"/>
      <point x="450" y="-143" type="line"/>
      <point x="390" y="-143" type="line" smooth="yes"/>
      <point x="356" y="-143"/>
      <point x="335" y="-122"/>
      <point x="335" y="-93" type="curve" smooth="yes"/>
      <point x="335" y="-65"/>
      <point x="354" y="-36"/>
      <point x="399" y="1" type="curve" smooth="yes"/>
      <point x="423" y="21" type="line"/>
      <point x="480" y="55"/>
      <point x="510" y="117"/>
      <point x="510" y="200" type="curve" smooth="yes"/>
      <point x="510" y="550" type="line"/>
      <point x="420" y="550" type="line"/>
      <point x="420" y="200" type="line" smooth="yes"/>
      <point x="420" y="115"/>
      <point x="378" y="70"/>
      <point x="300" y="70" type="curve" smooth="yes"/>
      <point x="222" y="70"/>
      <point x="180" y="115"/>
      <point x="180" y="200" type="curve" smooth="yes"/>
      <point x="180" y="550" type="line"/>
      <point x="90" y="550" type="line"/>
      <point x="90" y="200" type="line" smooth="yes"/>
      <point x="90" y="69"/>
      <point x="169" y="-10"/>
      <point x="300" y="-10" type="curve" smooth="yes"/>
      <point x="303" y="-10"/>
      <point x="306" y="-10"/>
      <point x="309" y="-10" type="curve"/>
      <point x="263" y="-51"/>
      <point x="250" y="-81"/>
      <point x="250" y="-110" type="curve" smooth="yes"/>
      <point x="250" y="-164"/>
      <point x="298" y="-203"/>
    </contour>
  </outline>
</glyph>
<glyph name="ohorn" format="2">
  <advance width="600"/>
  <unicode hex="01A1"/>
  <anchor x="290" y="550" name="top"/>
  <anchor x="300" y="0" name="bottom"/>
  <anchor x="300" y="275" name="center"/>
  <anchor x="332" y="550" name="horn"/>
  <anchor x="350" y="0" name="ogonek"/>
  <anchor x="580" y="550" name="topright"/>
  <outline>
    <contour>
      <point x="396" y="465" type="line"/>
      <point x="435" y="465" type="line" smooth="yes"/>
      <point x="498" y="465"/>
      <point x="540" y="503"/>
      <point x="540" y="560" type="curve" smooth="yes"/>
      <point x="540" y="640" type="line"/>
      <point x="465" y="640" type="line"/>
      <point x="465" y="565" type="line" smooth="yes"/>
      <point x="465" y="542"/>
      <point x="453" y="530"/>
      <point x="430" y="530" type="curve" smooth="yes"/>
      <point x="396" y="530" type="line"/>
    </contour>
    <component base="o"/>
  </outline>
</glyph>
<glyph name="Uhorn" format="2">
  <advance width="600"/>
  <unicode hex="01AF"/>
  <anchor x="300" y="730" name="top"/>
  <anchor x="300" y="0" name="bottom"/>
  <anchor x="385" y="730" name="horn"/>
  <anchor x="350" y="0" name="ogonek"/>
  <anchor x="580" y="730" name="topright"/>
  <outline>
    <contour>
      <point x="435" y="665" type="line"/>
      <point x="490" y="665" type="line" smooth="yes"/>
      <point x="554" y="665"/>
      <point x="595" y="702"/>
      <point x="595" y="760" type="curve" smooth="yes"/>
      <point x="595" y="840" type="line"/>
      <point x="520" y="840" type="line"/>
      <point x="520" y="765" type="line" smooth="yes"/>
      <point x="520" y="744"/>
      <point x="506" y="730"/>
      <point x="485" y="730" type="curve" smooth="yes"/>
      <point x="435" y="730" type="line"/>
    </contour>
    <component base="U"/>
  </outline>
</glyph>
<glyph name="uhorn" format="2">
  <advance width="600"/>
  <unicode hex="01B0"/>
  <anchor x="299" y="0" name="bottom"/>
  <anchor x="300" y="550" name="top"/>
  <outline>
    <contour>
      <point x="90" y="200" type="line" smooth="yes"/>
      <point x="90" y="71"/>
      <point x="172" y="-10"/>
      <point x="299" y="-10" type="curve" smooth="yes"/>
      <point x="426" y="-10"/>
      <point x="510" y="71"/>
      <point x="510" y="200" type="curve" smooth="yes"/>
      <point x="510" y="485" type="line"/>
      <point x="573" y="485"/>
      <point x="600" y="523"/>
      <point x="600" y="580" type="curve" smooth="yes"/>
      <point x="600" y="660" type="line"/>
      <point x="525" y="660" type="line"/>
      <point x="525" y="585" type="line" smooth="yes"/>
      <point x="525" y="562"/>
      <point x="513" y="550"/>
      <point x="490" y="550" type="curve" smooth="yes"/>
      <point x="420" y="550" type="line"/>
      <point x="420" y="200" type="line" smooth="yes"/>
      <point x="420" y="117"/>
      <point x="374" y="69"/>
      <point x="299" y="69" type="curve" smooth="yes"/>
      <point x="225" y="69"/>
      <point x="180" y="117"/>
      <point x="180" y="200" type="curve" smooth="yes"/>
      <point x="180" y="550" type="line"/>
      <point x="90" y="550" type="line"/>
    </contour>
  </outline>
</glyph>
<glyph name="Oogonek" format="2">
  <advance width="600"/>
  <unicode hex="01EA"/>
  <anchor x="320" y="700" name="horn"/>
  <anchor x="300" y="730" name="top"/>
  <outline>
    <contour>
      <point x="379" y="-203" type="curve" smooth="yes"/>
      <point x="457" y="-203" type="line"/>
      <point x="457" y="-143" type="line"/>
      <point x="397" y="-143" type="line" smooth="yes"/>
      <point x="363" y="-143"/>
      <point x="342" y="-122"/>
      <point x="342" y="-93" type="curve" smooth="yes"/>
      <point x="342" y="-65"/>
      <point x="357" y="-36"/>
      <point x="401" y="1" type="curve" smooth="yes"/>
      <point x="430" y="25" type="line"/>
      <point x="482" y="60"/>
      <point x="512" y="121"/>
      <point x="512" y="200" type="curve" smooth="yes"/>
      <point x="512" y="531" type="line" smooth="yes"/>
      <point x="512" y="661"/>
      <point x="431" y="740"/>
      <point x="300" y="740" type="curve" smooth="yes"/>
      <point x="169" y="740"/>
      <point x="88" y="661"/>
      <point x="88" y="530" type="curve" smooth="yes"/>
      <point x="88" y="200" type="line" smooth="yes"/>
      <point x="88" y="69"/>
      <point x="169" y="-10"/>
      <point x="300" y="-10" type="curve" smooth="yes"/>
      <point x="304" y="-10"/>
      <point x="309" y="-10"/>
      <point x="313" y="-10" type="curve"/>
      <point x="277" y="-45"/>
      <point x="257" y="-82"/>
      <point x="257" y="-110" type="curve" smooth="yes"/>
      <point x="257" y="-164"/>
      <point x="305" y="-203"/>
    </contour>
    <contour>
      <point x="300" y="71" type="curve" smooth="yes"/>
      <point x="222" y="71"/>
      <point x="178" y="117"/>
      <point x="178" y="200" type="curve" smooth="yes"/>
      <point x="178" y="530" type="line" smooth="yes"/>
      <point x="178" y="613"/>
      <point x="222" y="659"/>
      <point x="300" y="659" type="curve" smooth="yes"/>
      <point x="378" y="659"/>
      <point x="422" y="613"/>
      <point x="422" y="530" type="curve" smooth="yes"/>
      <point x="422" y="200" type="line" smooth="yes"/>
      <point x="422" y="117"/>
      <point x="378" y="71"/>
    </contour>
  </outline>
</glyph>
<glyph name="oogonek" format="2">
  <advance width="600"/>
  <unicode hex="01EB"/>
  <anchor x="332" y="550" name="horn"/>
  <anchor x="300" y="550" name="top"/>
  <outline>
    <contour>
      <point x="372" y="-203" type="curve" smooth="yes"/>
      <point x="450" y="-203" type="line"/>
      <point x="450" y="-143" type="line"/>
      <point x="390" y="-143" type="line" smooth="yes"/>
      <point x="356" y="-143"/>
      <point x="335" y="-122"/>
      <point x="335" y="-93" type="curve" smooth="yes"/>
      <point x="335" y="-65"/>
      <point x="354" y="-36"/>
      <point x="399" y="1" type="curve" smooth="yes"/>
      <point x="423" y="21" type="line"/>
      <point x="480" y="55"/>
      <point x="512" y="117"/>
      <point x="512" y="200" type="curve" smooth="yes"/>
      <point x="512" y="351" type="line" smooth="yes"/>
      <point x="512" y="481"/>
      <point x="431" y="560"/>
      <point x="300" y="560" type="curve" smooth="yes"/>
      <point x="169" y="560"/>
      <point x="88" y="481"/>
      <point x="88" y="350" type="curve" smooth="yes"/>
      <point x="88" y="200" type="line" smooth="yes"/>
      <point x="88" y="69"/>
      <point x="169" y="-10"/>
      <point x="300" y="-10" type="curve" smooth="yes"/>
      <point x="303" y="-10"/>
      <point x="306" y="-10"/>
      <point x="309" y="-10" type="curve"/>
      <point x="263" y="-51"/>
      <point x="250" y="-81"/>
      <point x="250" y="-110" type="curve" smooth="yes"/>
      <point x="250" y="-164"/>
      <point x="298" y="-203"/>
    </contour>
    <contour>
      <point x="300" y="70" type="curve" smooth="yes"/>
      <point x="222" y="70"/>
      <point x="178" y="115"/>
      <point x="178" y="200" type="curve" smooth="yes"/>
      <point x="178" y="350" type="line" smooth="yes"/>
      <point x="178" y="435"/>
      <point x="222" y="480"/>
      <point x="300" y="480" type="curve" smooth="yes"/>
      <point x="378" y="480"/>
      <point x="422" y="435"/>
      <point x="422" y="350" type="curve" smooth="yes"/>
      <point x="422" y="200" type="line" smooth="yes"/>
      <point x="422" y="115"/>
      <point x="378" y="70"/>
    </contour>
  </outline>
</glyph>
<glyph name="jdotless" format="2">
  <advance width="600"/>
  <unicode hex="0237"/>
  <anchor x="300" y="-270" name="bottom"/>
  <anchor x="385" y="550" name="top"/>
  <outline>
    <contour>
      <point x="70" y="-180" type="line"/>
      <point x="214" y="-180" type="line" smooth="yes"/>
      <point x="349" y="-180"/>
      <point x="435" y="-98"/>
      <point x="435" y="31" type="curve" smooth="yes"/>
      <point x="435" y="550" type="line"/>
      <point x="90" y="550" type="line"/>
      <point x="90" y="468" type="line"/>
      <point x="345" y="468" type="line"/>
      <point x="345" y="31" type="line" smooth="yes"/>
      <point x="345" y="-51"/>
      <point x="297" y="-97"/>
      <point x="214" y="-97" type="curve" smooth="yes"/>
      <point x="70" y="-97" type="line"/>
    </contour>
  </outline>
</glyph>
<glyph name="acutecomb" format="2">
  <unicode hex="0301"/>
  <anchor x="-310" y="550" name="_top"/>
  <anchor x="-267" y="785" name="top"/>
  <outline>
    <contour>
      <point x="-368" y="645" type="line"/>
      <point x="-276" y="645" type="line"/>
      <point x="-165" y="785" type="line"/>
      <point x="-262" y="785" type="line"/>
    </contour>
  </outline>
</glyph>
<glyph name="circumflexcomb" format="2">
  <unicode hex="0302"/>
  <anchor x="-300" y="550" name="_top"/>
  <anchor x="-300" y="785" name="top"/>
  <outline>
    <contour>
      <point x="-481" y="645" type="line"/>
      <point x="-380" y="645" type="line"/>
      <point x="-300" y="723" type="line"/>
      <point x="-218" y="645" type="line"/>
      <point x="-119" y="645" type="line"/>
      <point x="-259" y="785" type="line"/>
      <point x="-342" y="785" type="line"/>
    </contour>
  </outline>
</glyph>
<glyph name="dieresiscomb" format="2">
  <unicode hex="0308"/>
  <anchor x="-300" y="550" name="_top"/>
  <anchor x="-300" y="777" name="top"/>
  <outline>
    <contour>
      <point x="-189" y="649" type="curve" smooth="yes"/>
      <point x="-150" y="649"/>
      <point x="-125" y="673"/>
      <point x="-125" y="712" type="curve" smooth="yes"/>
      <point x="-125" y="752"/>
      <point x="-150" y="777"/>
      <point x="-189" y="777" type="curve" smooth="yes"/>
      <point x="-228" y="777"/>
      <point x="-253" y="752"/>
      <point x="-253" y="712" type="curve" smooth="yes"/>
      <point x="-253" y="673"/>
      <point x="-228" y="649"/>
    </contour>
    <contour>
      <point x="-411" y="649" type="curve" smooth="yes"/>
      <point x="-372" y="649"/>
      <point x="-347" y="673"/>
      <point x="-347" y="712" type="curve" smooth="yes"/>
      <point x="-347" y="752"/>
      <point x="-372" y="777"/>
      <point x="-411" y="777" type="curve" smooth="yes"/>
      <point x="-450" y="777"/>
      <point x="-475" y="752"/>
      <point x="-475" y="712" type="curve" smooth="yes"/>
      <point x="-475" y="673"/>
      <point x="-450" y="649"/>
    </contour>
  </outline>
</glyph>
<glyph name="hookabovecomb" format="2">
  <unicode hex="0309"/>
  <anchor x="-300" y="550" name="_top"/>
  <anchor x="-295" y="825" name="top"/>
  <outline>
    <contour>
      <point x="-342" y="645" type="line"/>
      <point x="-257" y="645" type="line"/>
      <point x="-217" y="697" type="line" smooth="yes"/>
      <point x="-206" y="711"/>
      <point x="-200" y="731"/>
      <point x="-200" y="751" type="curve" smooth="yes"/>
      <point x="-200" y="797"/>
      <point x="-234" y="825"/>
      <point x="-285" y="825" type="curve" smooth="yes"/>
      <point x="-390" y="825" type="line"/>
      <point x="-390" y="760" type="line"/>
      <point x="-310" y="760" type="line" smooth="yes"/>
      <point x="-288" y="760"/>
      <point x="-278" y="754"/>
      <point x="-278" y="740" type="curve" smooth="yes"/>
      <point x="-278" y="730"/>
      <point x="-283" y="720"/>
      <point x="-292" y="708" type="curve" smooth="yes"/>
    </contour>
  </outline>
</glyph>
<glyph name="ringcomb" format="2">
  <unicode hex="030A"/>
  <anchor x="-300" y="550" name="_top"/>
  <anchor x="-300" y="836" name="top"/>
  <outline>
    <contour>
      <point x="-300" y="608" type="curve" smooth="yes"/>
      <point x="-228" y="608"/>
      <point x="-180" y="654"/>
      <point x="-180" y="722" type="curve" smooth="yes"/>
      <point x="-180" y="790"/>
      <point x="-228" y="836"/>
      <point x="-300" y="836" type="curve" smooth="yes"/>
      <point x="-372" y="836"/>
      <point x="-420" y="790"/>
      <point x="-420" y="722" type="curve" smooth="yes"/>
      <point x="-420" y="654"/>
      <point x="-372" y="608"/>
    </contour>
    <contour>
      <point x="-300" y="661" type="curve" smooth="yes"/>
      <point x="-336" y="661"/>
      <point x="-360" y="685"/>
      <point x="-360" y="722" type="curve" smooth="yes"/>
      <point x="-360" y="759"/>
      <point x="-336" y="784"/>
      <point x="-300" y="784" type="curve" smooth="yes"/>
      <point x="-264" y="784"/>
      <point x="-240" y="759"/>
      <point x="-240" y="722" type="curve" smooth="yes"/>
      <point x="-240" y="685"/>
      <point x="-264" y="661"/>
    </contour>
  </outline>
</glyph>
<glyph name="hungarumlautcomb" format="2">
  <unicode hex="030B"/>
  <anchor x="-300" y="550" name="_top"/>
  <anchor x="-263" y="785" name="top"/>
  <outline>
    <contour>
      <point x="-274" y="645" type="line"/>
      <point x="-187" y="645" type="line"/>
      <point x="-72" y="785" type="line"/>
      <point x="-164" y="785" type="line"/>
    </contour>
    <contour>
      <point x="-453" y="645" type="line"/>
      <point x="-366" y="645" type="line"/>
      <point x="-251" y="785" type="line"/>
      <point x="-343" y="785" type="line"/>
    </contour>
  </outline>
</glyph>
<glyph name="caroncomb" format="2">
  <unicode hex="030C"/>
  <anchor x="-300" y="550" name="_top"/>
  <anchor x="-300" y="785" name="top"/>
  <outline>
    <contour>
      <point x="-341" y="645" type="line"/>
      <point x="-258" y="645" type="line"/>
      <point x="-119" y="785" type="line"/>
      <point x="-220" y="785" type="line"/>
      <point x="-300" y="707" type="line"/>
      <point x="-382" y="785" type="line"/>
      <point x="-481" y="785" type="line"/>
    </contour>
  </outline>
</glyph>
<glyph name="dblgravecomb" format="2">
  <unicode hex="030F"/>
  <anchor x="-300" y="550" name="_top"/>
  <anchor x="-338" y="785" name="top"/>
  <outline>
    <contour>
      <point x="-326" y="645" type="line"/>
      <point x="-436" y="785" type="line"/>
      <point x="-528" y="785" type="line"/>
      <point x="-413" y="645" type="line"/>
    </contour>
    <contour>
      <point x="-147" y="645" type="line"/>
      <point x="-257" y="785" type="line"/>
      <point x="-349" y="785" type="line"/>
      <point x="-234" y="645" type="line"/>
    </contour>
  </outline>
</glyph>
<glyph name="horncomb" format="2">
  <unicode hex="031B"/>
  <anchor x="-276" y="550" name="_horn"/>
  <anchor x="-252" y="550" name="_topright"/>
  <anchor x="-76" y="660" name="topright"/>
  <outline>
    <contour>
      <point x="-232" y="485" type="line"/>
      <point x="-201" y="485" type="line" smooth="yes"/>
      <point x="-138" y="485"/>
      <point x="-96" y="523"/>
      <point x="-96" y="580" type="curve" smooth="yes"/>
      <point x="-96" y="660" type="line"/>
      <point x="-171" y="660" type="line"/>
      <point x="-171" y="585" type="line" smooth="yes"/>
      <point x="-171" y="562"/>
      <point x="-183" y="550"/>
      <point x="-206" y="550" type="curve" smooth="yes"/>
      <point x="-232" y="550" type="line"/>
    </contour>
  </outline>
</glyph>
<glyph name="dotbelowcomb" format="2">
  <unicode hex="0323"/>
  <anchor x="-300" y="0" name="_bottom"/>
  <anchor x="-300" y="-213" name="bottom"/>
  <outline>
    <contour>
      <point x="-300" y="-213" type="curve" smooth="yes"/>
      <point x="-256" y="-213"/>
      <point x="-229" y="-189"/>
      <point x="-229" y="-150" type="curve" smooth="yes"/>
      <point x="-229" y="-110"/>
      <point x="-256" y="-85"/>
      <point x="-300" y="-85" type="curve" smooth="yes"/>
      <point x="-344" y="-85"/>
      <point x="-371" y="-110"/>
      <point x="-371" y="-150" type="curve" smooth="yes"/>
      <point x="-371" y="-189"/>
      <point x="-344" y="-213"/>
    </contour>
  </outline>
</glyph>
<glyph name="ringbelowcomb" format="2">
  <unicode hex="0325"/>
  <anchor x="-300" y="0" name="_bottom"/>
  <anchor x="-300" y="-250" name="bottom"/>
  <outline>
    <contour>
      <point x="-300" y="-250" type="curve" smooth="yes"/>
      <point x="-228" y="-250"/>
      <point x="-180" y="-210"/>
      <point x="-180" y="-150" type="curve" smooth="yes"/>
      <point x="-180" y="-90"/>
      <point x="-228" y="-50"/>
      <point x="-300" y="-50" type="curve" smooth="yes"/>
      <point x="-372" y="-50"/>
      <point x="-420" y="-90"/>
      <point x="-420" y="-150" type="curve" smooth="yes"/>
      <point x="-420" y="-210"/>
      <point x="-372" y="-250"/>
    </contour>
    <contour>
      <point x="-301" y="-199" type="curve" smooth="yes"/>
      <point x="-336" y="-199"/>
      <point x="-360" y="-179"/>
      <point x="-360" y="-150" type="curve" smooth="yes"/>
      <point x="-360" y="-120"/>
      <point x="-336" y="-100"/>
      <point x="-301" y="-100" type="curve" smooth="yes"/>
      <point x="-263" y="-100"/>
      <point x="-240" y="-116"/>
      <point x="-240" y="-150" type="curve" smooth="yes"/>
      <point x="-240" y="-179"/>
      <point x="-264" y="-199"/>
    </contour>
  </outline>
</glyph>
<glyph name="commaaccentcomb" format="2">
  <unicode hex="0326"/>
  <anchor x="-300" y="0" name="_bottom"/>
  <anchor x="-310" y="-240" name="bottom"/>
  <outline>
    <contour>
      <point x="-410" y="-240" type="line"/>
      <point x="-315" y="-240" type="line"/>
      <point x="-210" y="-95" type="line"/>
      <point x="-315" y="-95" type="line"/>
    </contour>
  </outline>
</glyph>
<glyph name="strokelongcomb" format="2">
  <unicode hex="0336"/>
  <anchor x="-300" y="325" name="_center"/>
  <outline>
    <contour>
      <point x="-630" y="290" type="line"/>
      <point x="30" y="290" type="line"/>
      <point x="30" y="360" type="line"/>
      <point x="-630" y="360" type="line"/>
    </contour>
  </outline>
</glyph>
<glyph name="slashshortcomb" format="2">
  <unicode hex="0337"/>
  <anchor x="-300" y="280" name="_center"/>
  <outline>
    <contour>
      <point x="-565" y="-30" type="line"/>
      <point x="-475" y="-30" type="line"/>
      <point x="-35" y="590" type="line"/>
      <point x="-126" y="590" type="line"/>
    </contour>
  </outline>
</glyph>
<glyph name="slashlongcomb" format="2">
  <unicode hex="0338"/>
  <anchor x="-300" y="275" name="_center"/>
  <outline>
    <contour>
      <point x="-490" y="-110" type="line"/>
      <point x="-427" y="-110" type="line"/>
      <point x="-110" y="660" type="line"/>
      <point x="-173" y="660" type="line"/>
    </contour>
  </outline>
</glyph>
<glyph name="tonos" format="2">
  <advance width="600"/>
  <unicode hex="0384"/>
  <anchor x="270" y="550" name="_top"/>
  <outline>
    <contour>
      <point x="212" y="645" type="line"/>
      <point x="304" y="645" type="line"/>
      <point x="415" y="785" type="line"/>
      <point x="318" y="785" type="line"/>
    </contour>
  </outline>
</glyph>
<glyph name="Xi" format="2">
  <advance width="600"/>
  <unicode hex="039E"/>
  <outline>
    <contour>
      <point x="80" y="648" type="line"/>
      <point x="520" y="648" type="line"/>
      <point x="520" y="730" type="line"/>
      <point x="80" y="730" type="line"/>
    </contour>
    <contour>
      <point x="80" y="0" type="line"/>
      <point x="520" y="0" type="line"/>
      <point x="520" y="82" type="line"/>
      <point x="80" y="82" type="line"/>
    </contour>
    <contour>
      <point x="110" y="329" type="line"/>
      <point x="490" y="329" type="line"/>
      <point x="490" y="411" type="line"/>
      <point x="110" y="411" type="line"/>
    </contour>
  </outline>
</glyph>
<glyph name="Sigma" format="2">
  <advance width="600"/>
  <unicode hex="03A3"/>
  <outline>
    <contour>
      <point x="75" y="0" type="line"/>
      <point x="550" y="0" type="line"/>
      <point x="550" y="80" type="line"/>
      <point x="180" y="80" type="line"/>
      <point x="416" y="375" type="line"/>
      <point x="181" y="650" type="line"/>
      <point x="550" y="650" type="line"/>
      <point x="550" y="730" type="line"/>
      <point x="75" y="730" type="line"/>
      <point x="75" y="650" type="line"/>
      <point x="307" y="371" type="line"/>
      <point x="75" y="80" type="line"/>
    </contour>
  </outline>
</glyph>
<glyph name="Psi" format="2">
  <advance width="600"/>
  <unicode hex="03A8"/>
  <outline>
    <contour>
      <point x="258" y="0" type="line"/>
      <point x="342" y="0" type="line"/>
      <point x="342" y="170" type="line"/>
      <point x="465" y="170"/>
      <point x="546" y="252"/>
      <point x="546" y="378" type="curve" smooth="yes"/>
      <point x="546" y="730" type="line"/>
      <point x="462" y="730" type="line"/>
      <point x="462" y="378" type="line" smooth="yes"/>
      <point x="462" y="296"/>
      <point x="417" y="246"/>
      <point x="342" y="246" type="curve"/>
      <point x="342" y="730" type="line"/>
      <point x="258" y="730" type="line"/>
      <point x="258" y="246" type="line"/>
      <point x="183" y="246"/>
      <point x="138" y="296"/>
      <point x="138" y="378" type="curve" smooth="yes"/>
      <point x="138" y="730" type="line"/>
      <point x="54" y="730" type="line"/>
      <point x="54" y="378" type="line" smooth="yes"/>
      <point x="54" y="252"/>
      <point x="135" y="170"/>
      <point x="258" y="170" type="curve"/>
    </contour>
  </outline>
</glyph>
<glyph name="gamma" format="2">
  <advance width="600"/>
  <unicode hex="03B3"/>
  <outline>
    <contour>
      <point x="255" y="-180" type="line"/>
      <point x="345" y="-180" type="line"/>
      <point x="345" y="0" type="line"/>
      <point x="540" y="550" type="line"/>
      <point x="448" y="550" type="line"/>
      <point x="327" y="185" type="line" smooth="yes"/>
      <point x="312" y="139"/>
      <point x="308" y="103"/>
      <point x="304" y="81" type="curve"/>
      <point x="300" y="103"/>
      <point x="295" y="139"/>
      <point x="279" y="185" type="curve" smooth="yes"/>
      <point x="155" y="550" type="line"/>
      <point x="60" y="550" type="line"/>
      <point x="255" y="0" type="line"/>
    </contour>
  </outline>
</glyph>
<glyph name="iota" format="2">
  <advance width="600"/>
  <unicode hex="03B9"/>
  <anchor x="300" y="550" name="top"/>
  <outline>
    <contour>
      <point x="415" y="0" type="curve" smooth="yes"/>
      <point x="550" y="0" type="line"/>
      <point x="550" y="82" type="line"/>
      <point x="415" y="82" type="line" smooth="yes"/>
      <point x="372" y="82"/>
      <point x="345" y="110"/>
      <point x="345" y="155" type="curve" smooth="yes"/>
      <point x="345" y="550" type="line"/>
      <point x="55" y="550" type="line"/>
      <point x="55" y="468" type="line"/>
      <point x="255" y="468" type="line"/>
      <point x="255" y="155" type="line" smooth="yes"/>
      <point x="255" y="61"/>
      <point x="318" y="0"/>
    </contour>
  </outline>
</glyph>
<glyph name="lambda" format="2">
  <advance width="600"/>
  <unicode hex="03BB"/>
  <outline>
    <contour>
      <point x="50" y="0" type="line"/>
      <point x="147" y="0" type="line"/>
      <point x="273" y="357" type="line" smooth="yes"/>
      <point x="289" y="403"/>
      <point x="293" y="441"/>
      <point x="293" y="461" type="curve"/>
      <point x="299" y="441"/>
      <point x="306" y="403"/>
      <point x="323" y="357" type="curve" smooth="yes"/>
      <point x="454" y="0" type="line"/>
      <point x="550" y="0" type="line"/>
      <point x="276" y="730" type="line"/>
      <point x="180" y="730" type="line"/>
      <point x="254" y="541" type="line"/>
    </contour>
  </outline>
</glyph>
<glyph name="mu" format="2">
  <advance width="600"/>
  <unicode hex="03BC"/>
  <outline>
    <contour>
      <point x="93" y="-180" type="line"/>
      <point x="183" y="-180" type="line"/>
      <point x="183" y="-20" type="line"/>
      <point x="181" y="105" type="line"/>
      <point x="201" y="105" type="line"/>
      <point x="183" y="126" type="line"/>
      <point x="183" y="43"/>
      <point x="207" y="-10"/>
      <point x="297" y="-10" type="curve" smooth="yes"/>
      <point x="387" y="-10"/>
      <point x="417" y="43"/>
      <point x="417" y="126" type="curve"/>
      <point x="399" y="105" type="line"/>
      <point x="419" y="105" type="line"/>
      <point x="419" y="0" type="line"/>
      <point x="507" y="0" type="line"/>
      <point x="507" y="550" type="line"/>
      <point x="417" y="550" type="line"/>
      <point x="417" y="200" type="line" smooth="yes"/>
      <point x="417" y="117"/>
      <point x="372" y="68"/>
      <point x="298" y="68" type="curve" smooth="yes"/>
      <point x="224" y="68"/>
      <point x="183" y="117"/>
      <point x="183" y="200" type="curve" smooth="yes"/>
      <point x="183" y="550" type="line"/>
      <point x="93" y="550" type="line"/>
    </contour>
  </outline>
</glyph>
<glyph name="xi" format="2">
  <advance width="600"/>
  <unicode hex="03BE"/>
  <outline>
    <contour>
      <point x="475" y="-178" type="line"/>
      <point x="565" y="-178" type="line"/>
      <point x="565" y="-48" type="line" smooth="yes"/>
      <point x="565" y="32"/>
      <point x="512" y="82"/>
      <point x="427" y="82" type="curve" smooth="yes"/>
      <point x="331" y="82" type="line" smooth="yes"/>
      <point x="238" y="82"/>
      <point x="180" y="133"/>
      <point x="180" y="214" type="curve" smooth="yes"/>
      <point x="180" y="296"/>
      <point x="235" y="347"/>
      <point x="323" y="347" type="curve" smooth="yes"/>
      <point x="472" y="347" type="line"/>
      <point x="472" y="427" type="line"/>
      <point x="319" y="427" type="line" smooth="yes"/>
      <point x="243" y="427"/>
      <point x="196" y="470"/>
      <point x="196" y="538" type="curve" smooth="yes"/>
      <point x="196" y="606"/>
      <point x="243" y="648"/>
      <point x="319" y="648" type="curve" smooth="yes"/>
      <point x="504" y="648" type="line"/>
      <point x="504" y="730" type="line"/>
      <point x="319" y="730" type="line" smooth="yes"/>
      <point x="186" y="730"/>
      <point x="102" y="660"/>
      <point x="102" y="549" type="curve" smooth="yes"/>
      <point x="102" y="449"/>
      <point x="172" y="388"/>
      <point x="283" y="390" type="curve"/>
      <point x="283" y="400" type="line"/>
      <point x="161" y="402"/>
      <point x="85" y="330"/>
      <point x="85" y="214" type="curve" smooth="yes"/>
      <point x="85" y="83"/>
      <point x="180" y="0"/>
      <point x="331" y="0" type="curve" smooth="yes"/>
      <point x="427" y="0" type="line" smooth="yes"/>
      <point x="456" y="0"/>
      <point x="475" y="-19"/>
      <point x="475" y="-48" type="curve" smooth="yes"/>
    </contour>
  </outline>
</glyph>
<glyph name="pi" format="2">
  <advance width="600"/>
  <unicode hex="03C0"/>
  <outline>
    <contour>
      <point x="536" y="-5" type="curve" smooth="yes"/>
      <point x="555" y="-5" type="line"/>
      <point x="555" y="79" type="line"/>
      <point x="531" y="79" type="line" smooth="yes"/>
      <point x="484" y="79"/>
      <point x="455" y="109"/>
      <point x="455" y="164" type="curve" smooth="yes"/>
      <point x="455" y="470" type="line"/>
      <point x="554" y="470" type="line"/>
      <point x="554" y="550" type="line"/>
      <point x="25" y="550" type="line"/>
      <point x="25" y="470" type="line"/>
      <point x="109" y="470" type="line"/>
      <point x="109" y="0" type="line"/>
      <point x="196" y="0" type="line"/>
      <point x="196" y="470" type="line"/>
      <point x="369" y="470" type="line"/>
      <point x="369" y="170" type="line" smooth="yes"/>
      <point x="369" y="64"/>
      <point x="435" y="-5"/>
    </contour>
  </outline>
</glyph>
<glyph name="sigmafinal" format="2">
  <advance width="600"/>
  <unicode hex="03C2"/>
  <outline>
    <contour>
      <point x="450" y="-180" type="line"/>
      <point x="540" y="-180" type="line"/>
      <point x="540" y="-48" type="line" smooth="yes"/>
      <point x="540" y="33"/>
      <point x="490" y="80"/>
      <point x="402" y="80" type="curve" smooth="yes"/>
      <point x="304" y="80" type="line" smooth="yes"/>
      <point x="225" y="80"/>
      <point x="175" y="117"/>
      <point x="175" y="200" type="curve" smooth="yes"/>
      <point x="175" y="351" type="line" smooth="yes"/>
      <point x="175" y="433"/>
      <point x="225" y="480"/>
      <point x="304" y="480" type="curve" smooth="yes"/>
      <point x="378" y="480"/>
      <point x="424" y="440"/>
      <point x="428" y="370" type="curve"/>
      <point x="518" y="370" type="line"/>
      <point x="514" y="487"/>
      <point x="431" y="560"/>
      <point x="304" y="560" type="curve" smooth="yes"/>
      <point x="171" y="560"/>
      <point x="85" y="481"/>
      <point x="85" y="350" type="curve" smooth="yes"/>
      <point x="85" y="200" type="line" smooth="yes"/>
      <point x="85" y="69"/>
      <point x="171" y="0"/>
      <point x="304" y="0" type="curve" smooth="yes"/>
      <point x="402" y="0" type="line" smooth="yes"/>
      <point x="433" y="0"/>
      <point x="450" y="-17"/>
      <point x="450" y="-48" type="curve" smooth="yes"/>
    </contour>
  </outline>
</glyph>
<glyph name="sigma" format="2">
  <advance width="600"/>
  <unicode hex="03C3"/>
  <outline>
    <contour>
      <point x="297" y="-10" type="curve" smooth="yes"/>
      <point x="425" y="-10"/>
      <point x="509" y="74"/>
      <point x="509" y="200" type="curve" smooth="yes"/>
      <point x="509" y="340" type="line" smooth="yes"/>
      <point x="509" y="417"/>
      <point x="462" y="466"/>
      <point x="386" y="466" type="curve"/>
      <point x="401" y="452" type="line"/>
      <point x="401" y="468" type="line"/>
      <point x="570" y="468" type="line"/>
      <point x="570" y="550" type="line"/>
      <point x="297" y="550" type="line" smooth="yes"/>
      <point x="169" y="550"/>
      <point x="85" y="466"/>
      <point x="85" y="340" type="curve" smooth="yes"/>
      <point x="85" y="200" type="line" smooth="yes"/>
      <point x="85" y="74"/>
      <point x="169" y="-10"/>
    </contour>
    <contour>
      <point x="297" y="70" type="curve" smooth="yes"/>
      <point x="221" y="70"/>
      <point x="175" y="120"/>
      <point x="175" y="200" type="curve" smooth="yes"/>
      <point x="175" y="340" type="line" smooth="yes"/>
      <point x="175" y="420"/>
      <point x="221" y="470"/>
      <point x="297" y="470" type="curve" smooth="yes"/>
      <point x="373" y="470"/>
      <point x="419" y="420"/>
      <point x="419" y="340" type="curve" smooth="yes"/>
      <point x="419" y="200" type="line" smooth="yes"/>
      <point x="419" y="120"/>
      <point x="373" y="70"/>
    </contour>
  </outline>
</glyph>
<glyph name="tau" format="2">
  <advance width="600"/>
  <unicode hex="03C4"/>
  <outline>
    <contour>
      <point x="385" y="0" type="curve" smooth="yes"/>
      <point x="510" y="0" type="line"/>
      <point x="510" y="82" type="line"/>
      <point x="385" y="82" type="line" smooth="yes"/>
      <point x="344" y="82"/>
      <point x="325" y="102"/>
      <point x="325" y="145" type="curve" smooth="yes"/>
      <point x="325" y="468" type="line"/>
      <point x="525" y="468" type="line"/>
      <point x="525" y="550" type="line"/>
      <point x="60" y="550" type="line"/>
      <point x="60" y="468" type="line"/>
      <point x="235" y="468" type="line"/>
      <point x="235" y="145" type="line" smooth="yes"/>
      <point x="235" y="53"/>
      <point x="290" y="0"/>
    </contour>
  </outline>
</glyph>
<glyph name="psi" format="2">
  <advance width="600"/>
  <unicode hex="03C8"/>
  <outline>
    <contour>
      <point x="259" y="-180" type="line"/>
      <point x="341" y="-180" type="line"/>
      <point x="341" y="0" type="line"/>
      <point x="468" y="0"/>
      <point x="546" y="77"/>
      <point x="546" y="202" type="curve" smooth="yes"/>
      <point x="546" y="550" type="line"/>
      <point x="463" y="550" type="line"/>
      <point x="463" y="202" type="line" smooth="yes"/>
      <point x="463" y="120"/>
      <point x="417" y="73"/>
      <point x="336" y="73" type="curve"/>
      <point x="336" y="550" type="line"/>
      <point x="264" y="550" type="line"/>
      <point x="264" y="73" type="line"/>
      <point x="183" y="73"/>
      <point x="137" y="120"/>
      <point x="137" y="202" type="curve" smooth="yes"/>
      <point x="137" y="550" type="line"/>
      <point x="54" y="550" type="line"/>
      <point x="54" y="202" type="line" smooth="yes"/>
      <point x="54" y="77"/>
      <point x="132" y="0"/>
      <point x="259" y="0" type="curve"/>
    </contour>
  </outline>
</glyph>
<glyph name="omega" format="2">
  <advance width="600"/>
  <unicode hex="03C9"/>
  <outline>
    <contour>
      <point x="181" y="-10" type="curve" smooth="yes"/>
      <point x="256" y="-10"/>
      <point x="302" y="42"/>
      <point x="302" y="126" type="curve"/>
      <point x="298" y="126" type="line"/>
      <point x="298" y="42"/>
      <point x="344" y="-10"/>
      <point x="419" y="-10" type="curve" smooth="yes"/>
      <point x="497" y="-10"/>
      <point x="545" y="51"/>
      <point x="545" y="151" type="curve" smooth="yes"/>
      <point x="545" y="358" type="line" smooth="yes"/>
      <point x="545" y="466"/>
      <point x="490" y="541"/>
      <point x="400" y="555" type="curve"/>
      <point x="400" y="460" type="line"/>
      <point x="438" y="452"/>
      <point x="460" y="413"/>
      <point x="460" y="358" type="curve" smooth="yes"/>
      <point x="460" y="150" type="line" smooth="yes"/>
      <point x="460" y="96"/>
      <point x="438" y="66"/>
      <point x="399" y="66" type="curve" smooth="yes"/>
      <point x="360" y="66"/>
      <point x="337" y="96"/>
      <point x="337" y="150" type="curve" smooth="yes"/>
      <point x="337" y="345" type="line"/>
      <point x="263" y="345" type="line"/>
      <point x="263" y="150" type="line" smooth="yes"/>
      <point x="263" y="96"/>
      <point x="240" y="66"/>
      <point x="201" y="66" type="curve" smooth="yes"/>
      <point x="162" y="66"/>
      <point x="140" y="96"/>
      <point x="140" y="150" type="curve" smooth="yes"/>
      <point x="140" y="358" type="line" smooth="yes"/>
      <point x="140" y="417"/>
      <point x="160" y="458"/>
      <point x="195" y="465" type="curve"/>
      <point x="195" y="560" type="line"/>
      <point x="108" y="546"/>
      <point x="55" y="469"/>
      <point x="55" y="358" type="curve" smooth="yes"/>
      <point x="55" y="151" type="line" smooth="yes"/>
      <point x="55" y="51"/>
      <point x="103" y="-10"/>
    </contour>
  </outline>
</glyph>
<glyph name="KaiSymbol" format="2">
  <advance width="600"/>
  <unicode hex="03CF"/>
  <anchor x="300" y="0" name="bottom"/>
  <anchor x="300" y="730" name="top"/>
  <outline>
    <contour>
      <point x="364" y="-180" type="line"/>
      <point x="393" y="-180" type="line" smooth="yes"/>
      <point x="515" y="-180"/>
      <point x="580" y="-117"/>
      <point x="580" y="0" type="curve" smooth="yes"/>
      <point x="580" y="71" type="line"/>
      <point x="494" y="71" type="line"/>
      <point x="494" y="0" type="line" smooth="yes"/>
      <point x="494" y="-62"/>
      <point x="453" y="-101"/>
      <point x="393" y="-101" type="curve" smooth="yes"/>
      <point x="364" y="-101" type="line"/>
    </contour>
    <component base="K"/>
  </outline>
</glyph>
<glyph name="piSymbol" format="2">
  <advance width="600"/>
  <unicode hex="03D6"/>
  <outline>
    <contour>
      <point x="181" y="-10" type="curve" smooth="yes"/>
      <point x="247" y="-10"/>
      <point x="290" y="30"/>
      <point x="300" y="97" type="curve"/>
      <point x="310" y="30"/>
      <point x="353" y="-10"/>
      <point x="419" y="-10" type="curve" smooth="yes"/>
      <point x="497" y="-10"/>
      <point x="545" y="51"/>
      <point x="545" y="151" type="curve" smooth="yes"/>
      <point x="545" y="339" type="line" smooth="yes"/>
      <point x="545" y="429"/>
      <point x="486" y="484"/>
      <point x="391" y="484" type="curve"/>
      <point x="457" y="459" type="line"/>
      <point x="457" y="468" type="line"/>
      <point x="585" y="468" type="line"/>
      <point x="585" y="550" type="line"/>
      <point x="15" y="550" type="line"/>
      <point x="15" y="468" type="line"/>
      <point x="143" y="468" type="line"/>
      <point x="143" y="459" type="line"/>
      <point x="209" y="484" type="line"/>
      <point x="114" y="484"/>
      <point x="55" y="429"/>
      <point x="55" y="339" type="curve" smooth="yes"/>
      <point x="55" y="151" type="line" smooth="yes"/>
      <point x="55" y="51"/>
      <point x="103" y="-10"/>
    </contour>
    <contour>
      <point x="201" y="66" type="curve" smooth="yes"/>
      <point x="162" y="66"/>
      <point x="140" y="96"/>
      <point x="140" y="150" type="curve" smooth="yes"/>
      <point x="140" y="384" type="line" smooth="yes"/>
      <point x="140" y="438"/>
      <point x="162" y="468"/>
      <point x="201" y="468" type="curve" smooth="yes"/>
      <point x="399" y="468" type="line" smooth="yes"/>
      <point x="438" y="468"/>
      <point x="460" y="438"/>
      <point x="460" y="384" type="curve" smooth="yes"/>
      <point x="460" y="150" type="line" smooth="yes"/>
      <point x="460" y="96"/>
      <point x="438" y="66"/>
      <point x="399" y="66" type="curve" smooth="yes"/>
      <point x="360" y="66"/>
      <point x="337" y="96"/>
      <point x="337" y="150" type="curve" smooth="yes"/>
      <point x="337" y="345" type="line"/>
      <point x="263" y="345" type="line"/>
      <point x="263" y="150" type="line" smooth="yes"/>
      <point x="263" y="96"/>
      <point x="240" y="66"/>
    </contour>
  </outline>
</glyph>
<glyph name="kaiSymbol" format="2">
  <advance width="600"/>
  <unicode hex="03D7"/>
  <anchor x="580" y="0" name="bottomright"/>
  <anchor x="300" y="550" name="top"/>
  <outline>
    <contour>
      <point x="334" y="-180" type="line"/>
      <point x="363" y="-180" type="line" smooth="yes"/>
      <point x="485" y="-180"/>
      <point x="550" y="-117"/>
      <point x="550" y="0" type="curve" smooth="yes"/>
      <point x="550" y="71" type="line"/>
      <point x="464" y="71" type="line"/>
      <point x="464" y="0" type="line" smooth="yes"/>
      <point x="464" y="-62"/>
      <point x="423" y="-101"/>
      <point x="363" y="-101" type="curve" smooth="yes"/>
      <point x="334" y="-101" type="line"/>
    </contour>
    <component base="ii-cy"/>
  </outline>
</glyph>
<glyph name="E-cy" format="2">
  <advance width="600"/>
  <unicode hex="0404"/>
  <outline>
    <contour>
      <point x="304" y="-10" type="curve" smooth="yes"/>
      <point x="435" y="-10"/>
      <point x="516" y="71"/>
      <point x="516" y="200" type="curve"/>
      <point x="426" y="200" type="line"/>
      <point x="426" y="117"/>
      <point x="382" y="70"/>
      <point x="304" y="70" type="curve" smooth="yes"/>
      <point x="225" y="70"/>
      <point x="180" y="117"/>
      <point x="180" y="200" type="curve" smooth="yes"/>
      <point x="180" y="327" type="line"/>
      <point x="405" y="327" type="line"/>
      <point x="405" y="409" type="line"/>
      <point x="180" y="409" type="line"/>
      <point x="180" y="531" type="line" smooth="yes"/>
      <point x="180" y="613"/>
      <point x="225" y="660"/>
      <point x="304" y="660" type="curve" smooth="yes"/>
      <point x="382" y="660"/>
      <point x="426" y="613"/>
      <point x="426" y="530" type="curve"/>
      <point x="516" y="530" type="line"/>
      <point x="516" y="659"/>
      <point x="435" y="740"/>
      <point x="304" y="740" type="curve" smooth="yes"/>
      <point x="171" y="740"/>
      <point x="90" y="661"/>
      <point x="90" y="530" type="curve" smooth="yes"/>
      <point x="90" y="200" type="line" smooth="yes"/>
      <point x="90" y="69"/>
      <point x="171" y="-10"/>
    </contour>
  </outline>
</glyph>
<glyph name="De-cy" format="2">
  <advance width="600"/>
  <unicode hex="0414"/>
  <outline>
    <contour>
      <point x="25" y="-140" type="line"/>
      <point x="105" y="-140" type="line"/>
      <point x="105" y="0" type="line"/>
      <point x="495" y="0" type="line"/>
      <point x="495" y="-140" type="line"/>
      <point x="575" y="-140" type="line"/>
      <point x="575" y="77" type="line"/>
      <point x="505" y="77" type="line"/>
      <point x="505" y="730" type="line"/>
      <point x="131" y="730" type="line"/>
      <point x="124" y="298" type="line" smooth="yes"/>
      <point x="122" y="204"/>
      <point x="92" y="117"/>
      <point x="70" y="77" type="curve"/>
      <point x="25" y="77" type="line"/>
    </contour>
    <contour>
      <point x="164" y="77" type="line"/>
      <point x="184" y="111"/>
      <point x="211" y="195"/>
      <point x="212" y="298" type="curve" smooth="yes"/>
      <point x="217" y="650" type="line"/>
      <point x="415" y="650" type="line"/>
      <point x="415" y="77" type="line"/>
    </contour>
  </outline>
</glyph>
<glyph name="Ii-cy" format="2">
  <advance width="600"/>
  <unicode hex="0418"/>
  <anchor x="580" y="0" name="bottomright"/>
  <anchor x="300" y="730" name="top"/>
  <outline>
    <contour>
      <point x="90" y="0" type="line"/>
      <point x="210" y="0" type="line"/>
      <point x="433" y="625" type="line"/>
      <point x="429" y="576"/>
      <point x="423" y="483"/>
      <point x="423" y="410" type="curve" smooth="yes"/>
      <point x="423" y="0" type="line"/>
      <point x="510" y="0" type="line"/>
      <point x="510" y="730" type="line"/>
      <point x="390" y="730" type="line"/>
      <point x="168" y="105" type="line"/>
      <point x="172" y="154"/>
      <point x="177" y="247"/>
      <point x="177" y="320" type="curve" smooth="yes"/>
      <point x="177" y="730" type="line"/>
      <point x="90" y="730" type="line"/>
    </contour>
  </outline>
</glyph>
<glyph name="U-cy" format="2">
  <advance width="600"/>
  <unicode hex="0423"/>
  <anchor x="300" y="730" name="top"/>
  <outline>
    <contour>
      <point x="191" y="0" type="line"/>
      <point x="287" y="0" type="line"/>
      <point x="550" y="730" type="line"/>
      <point x="452" y="730" type="line"/>
      <point x="337" y="373" type="line" smooth="yes"/>
      <point x="322" y="327"/>
      <point x="313" y="283"/>
      <point x="310" y="263" type="curve"/>
      <point x="307" y="283"/>
      <point x="296" y="327"/>
      <point x="279" y="373" type="curve" smooth="yes"/>
      <point x="148" y="730" type="line"/>
      <point x="50" y="730" type="line"/>
      <point x="265" y="189" type="line"/>
    </contour>
  </outline>
</glyph>
<glyph name="ze-cy" format="2">
  <advance width="600"/>
  <unicode hex="0437"/>
  <outline>
    <contour>
      <point x="269" y="-7" type="curve" smooth="yes"/>
      <point x="321" y="-7" type="line" smooth="yes"/>
      <point x="442" y="-7"/>
      <point x="520" y="56"/>
      <point x="520" y="154" type="curve" smooth="yes"/>
      <point x="520" y="236"/>
      <point x="479" y="285"/>
      <point x="385" y="292" type="curve"/>
      <point x="385" y="296" type="line"/>
      <point x="462" y="301"/>
      <point x="502" y="341"/>
      <point x="502" y="407" type="curve" smooth="yes"/>
      <point x="502" y="501"/>
      <point x="432" y="557"/>
      <point x="314" y="557" type="curve" smooth="yes"/>
      <point x="268" y="557" type="line" smooth="yes"/>
      <point x="157" y="557"/>
      <point x="81" y="503"/>
      <point x="69" y="415" type="curve"/>
      <point x="164" y="415" type="line"/>
      <point x="171" y="453"/>
      <point x="211" y="477"/>
      <point x="268" y="477" type="curve" smooth="yes"/>
      <point x="314" y="477" type="line" smooth="yes"/>
      <point x="374" y="477"/>
      <point x="407" y="451"/>
      <point x="407" y="402" type="curve" smooth="yes"/>
      <point x="407" y="354"/>
      <point x="374" y="324"/>
      <point x="313" y="324" type="curve" smooth="yes"/>
      <point x="190" y="324" type="line"/>
      <point x="190" y="246" type="line"/>
      <point x="321" y="246" type="line" smooth="yes"/>
      <point x="389" y="246"/>
      <point x="425" y="211"/>
      <point x="425" y="158" type="curve" smooth="yes"/>
      <point x="425" y="109"/>
      <point x="386" y="73"/>
      <point x="321" y="73" type="curve" smooth="yes"/>
      <point x="269" y="73" type="line" smooth="yes"/>
      <point x="208" y="73"/>
      <point x="166" y="95"/>
      <point x="160" y="130" type="curve"/>
      <point x="65" y="130" type="line"/>
      <point x="78" y="45"/>
      <point x="156" y="-7"/>
    </contour>
  </outline>
</glyph>
<glyph name="ii-cy" format="2">
  <advance width="600"/>
  <unicode hex="0438"/>
  <anchor x="580" y="0" name="bottomright"/>
  <anchor x="300" y="550" name="top"/>
  <outline>
    <contour>
      <point x="92" y="0" type="line"/>
      <point x="207" y="0" type="line"/>
      <point x="433" y="471" type="line"/>
      <point x="428" y="432"/>
      <point x="422" y="358"/>
      <point x="422" y="300" type="curve" smooth="yes"/>
      <point x="422" y="0" type="line"/>
      <point x="508" y="0" type="line"/>
      <point x="508" y="550" type="line"/>
      <point x="393" y="550" type="line"/>
      <point x="167" y="80" type="line"/>
      <point x="172" y="119"/>
      <point x="178" y="192"/>
      <point x="178" y="250" type="curve" smooth="yes"/>
      <point x="178" y="550" type="line"/>
      <point x="92" y="550" type="line"/>
    </contour>
  </outline>
</glyph>
<glyph name="en-cy" format="2">
  <advance width="600"/>
  <unicode hex="043D"/>
  <outline>
    <contour>
      <point x="92" y="0" type="line"/>
      <point x="182" y="0" type="line"/>
      <point x="182" y="241" type="line"/>
      <point x="418" y="241" type="line"/>
      <point x="418" y="0" type="line"/>
      <point x="508" y="0" type="line"/>
      <point x="508" y="550" type="line"/>
      <point x="418" y="550" type="line"/>
      <point x="418" y="323" type="line"/>
      <point x="182" y="323" type="line"/>
      <point x="182" y="550" type="line"/>
      <point x="92" y="550" type="line"/>
    </contour>
  </outline>
</glyph>
<glyph name="pe-cy" format="2">
  <advance width="600"/>
  <unicode hex="043F"/>
  <outline>
    <contour>
      <point x="92" y="0" type="line"/>
      <point x="182" y="0" type="line"/>
      <point x="182" y="468" type="line"/>
      <point x="418" y="468" type="line"/>
      <point x="418" y="0" type="line"/>
      <point x="508" y="0" type="line"/>
      <point x="508" y="550" type="line"/>
      <point x="92" y="550" type="line"/>
    </contour>
  </outline>
</glyph>
<glyph name="te-cy" format="2">
  <advance width="600"/>
  <unicode hex="0442"/>
  <outline>
    <contour>
      <point x="255" y="0" type="line"/>
      <point x="345" y="0" type="line"/>
      <point x="345" y="470" type="line"/>
      <point x="545" y="470" type="line"/>
      <point x="545" y="550" type="line"/>
      <point x="55" y="550" type="line"/>
      <point x="55" y="470" type="line"/>
      <point x="255" y="470" type="line"/>
    </contour>
  </outline>
</glyph>
<glyph name="tse-cy" format="2">
  <advance width="600"/>
  <unicode hex="0446"/>
  <outline>
    <contour>
      <point x="485" y="-140" type="line"/>
      <point x="565" y="-140" type="line"/>
      <point x="565" y="80" type="line"/>
      <point x="490" y="80" type="line"/>
      <point x="490" y="550" type="line"/>
      <point x="400" y="550" type="line"/>
      <point x="400" y="80" type="line"/>
      <point x="182" y="80" type="line"/>
      <point x="182" y="550" type="line"/>
      <point x="92" y="550" type="line"/>
      <point x="92" y="0" type="line"/>
      <point x="485" y="0" type="line"/>
    </contour>
  </outline>
</glyph>
<glyph name="che-cy" format="2">
  <advance width="600"/>
  <unicode hex="0447"/>
  <outline>
    <contour>
      <point x="410" y="0" type="line"/>
      <point x="500" y="0" type="line"/>
      <point x="500" y="550" type="line"/>
      <point x="410" y="550" type="line"/>
      <point x="410" y="275" type="line"/>
      <point x="398" y="272"/>
      <point x="350" y="270"/>
      <point x="296" y="270" type="curve" smooth="yes"/>
      <point x="207" y="270"/>
      <point x="168" y="297"/>
      <point x="168" y="360" type="curve" smooth="yes"/>
      <point x="168" y="550" type="line"/>
      <point x="78" y="550" type="line"/>
      <point x="78" y="360" type="line" smooth="yes"/>
      <point x="78" y="243"/>
      <point x="147" y="188"/>
      <point x="293" y="189" type="curve" smooth="yes"/>
      <point x="345" y="189"/>
      <point x="395" y="193"/>
      <point x="410" y="196" type="curve"/>
    </contour>
  </outline>
</glyph>
<glyph name="iu-cy" format="2">
  <advance width="600"/>
  <unicode hex="044E"/>
  <outline>
    <contour>
      <point x="395" y="-10" type="curve" smooth="yes"/>
      <point x="496" y="-10"/>
      <point x="560" y="56"/>
      <point x="560" y="160" type="curve" smooth="yes"/>
      <point x="560" y="390" type="line" smooth="yes"/>
      <point x="560" y="494"/>
      <point x="496" y="560"/>
      <point x="395" y="560" type="curve" smooth="yes"/>
      <point x="300" y="560"/>
      <point x="241" y="494"/>
      <point x="241" y="390" type="curve" smooth="yes"/>
      <point x="241" y="315" type="line"/>
      <point x="143" y="315" type="line"/>
      <point x="143" y="550" type="line"/>
      <point x="60" y="550" type="line"/>
      <point x="60" y="0" type="line"/>
      <point x="143" y="0" type="line"/>
      <point x="143" y="243" type="line"/>
      <point x="241" y="243" type="line"/>
      <point x="241" y="160" type="line" smooth="yes"/>
      <point x="241" y="56"/>
      <point x="300" y="-10"/>
    </contour>
    <contour>
      <point x="396" y="60" type="curve" smooth="yes"/>
      <point x="347" y="60"/>
      <point x="317" y="99"/>
      <point x="317" y="160" type="curve" smooth="yes"/>
      <point x="317" y="390" type="line" smooth="yes"/>
      <point x="317" y="451"/>
      <point x="347" y="490"/>
      <point x="396" y="490" type="curve" smooth="yes"/>
      <point x="446" y="490"/>
      <point x="477" y="451"/>
      <point x="477" y="390" type="curve" smooth="yes"/>
      <point x="477" y="160" type="line" smooth="yes"/>
      <point x="477" y="99"/>
      <point x="446" y="60"/>
    </contour>
  </outline>
</glyph>
<glyph name="nje-cy" format="2">
  <advance width="600"/>
  <unicode hex="045A"/>
  <outline>
    <contour>
      <point x="62" y="0" type="line"/>
      <point x="145" y="0" type="line"/>
      <point x="145" y="275" type="line"/>
      <point x="284" y="275" type="line"/>
      <point x="284" y="0" type="line"/>
      <point x="418" y="0" type="line" smooth="yes"/>
      <point x="514" y="0"/>
      <point x="578" y="62"/>
      <point x="578" y="155" type="curve" smooth="yes"/>
      <point x="578" y="195" type="line" smooth="yes"/>
      <point x="578" y="288"/>
      <point x="514" y="350"/>
      <point x="418" y="350" type="curve" smooth="yes"/>
      <point x="357" y="350" type="line"/>
      <point x="357" y="550" type="line"/>
      <point x="284" y="550" type="line"/>
      <point x="284" y="350" type="line"/>
      <point x="145" y="350" type="line"/>
      <point x="145" y="550" type="line"/>
      <point x="62" y="550" type="line"/>
    </contour>
    <contour>
      <point x="357" y="75" type="line"/>
      <point x="357" y="275" type="line"/>
      <point x="418" y="275" type="line" smooth="yes"/>
      <point x="466" y="275"/>
      <point x="495" y="243"/>
      <point x="495" y="195" type="curve" smooth="yes"/>
      <point x="495" y="155" type="line" smooth="yes"/>
      <point x="495" y="107"/>
      <point x="466" y="75"/>
      <point x="418" y="75" type="curve" smooth="yes"/>
    </contour>
  </outline>
</glyph>
<glyph name="tshe-cy" format="2">
  <advance width="600"/>
  <unicode hex="045B"/>
  <outline>
    <contour>
      <point x="0" y="570" type="line"/>
      <point x="92" y="570" type="line"/>
      <point x="92" y="0" type="line"/>
      <point x="182" y="0" type="line"/>
      <point x="182" y="290" type="line" smooth="yes"/>
      <point x="182" y="375"/>
      <point x="228" y="424"/>
      <point x="303" y="424" type="curve" smooth="yes"/>
      <point x="375" y="424"/>
      <point x="420" y="378"/>
      <point x="420" y="300" type="curve" smooth="yes"/>
      <point x="420" y="0" type="line"/>
      <point x="510" y="0" type="line"/>
      <point x="510" y="310" type="line" smooth="yes"/>
      <point x="510" y="427"/>
      <point x="439" y="500"/>
      <point x="329" y="500" type="curve" smooth="yes"/>
      <point x="245" y="500"/>
      <point x="192" y="458"/>
      <point x="183" y="385" type="curve"/>
      <point x="182" y="385" type="line"/>
      <point x="182" y="490" type="line"/>
      <point x="182" y="570" type="line"/>
      <point x="350" y="570" type="line"/>
      <point x="350" y="645" type="line"/>
      <point x="182" y="645" type="line"/>
      <point x="182" y="730" type="line"/>
      <point x="92" y="730" type="line"/>
      <point x="92" y="645" type="line"/>
      <point x="0" y="645" type="line"/>
    </contour>
  </outline>
</glyph>
<glyph name="dzhe-cy" format="2">
  <advance width="600"/>
  <unicode hex="045F"/>
  <outline>
    <contour>
      <point x="255" y="-125" type="line"/>
      <point x="345" y="-125" type="line"/>
      <point x="345" y="0" type="line"/>
      <point x="508" y="0" type="line"/>
      <point x="508" y="550" type="line"/>
      <point x="418" y="550" type="line"/>
      <point x="418" y="82" type="line"/>
      <point x="182" y="82" type="line"/>
      <point x="182" y="550" type="line"/>
      <point x="92" y="550" type="line"/>
      <point x="92" y="0" type="line"/>
      <point x="255" y="0" type="line"/>
    </contour>
  </outline>
</glyph>
<glyph name="Ghestroke-cy" format="2">
  <advance width="600"/>
  <unicode hex="0492"/>
  <anchor x="580" y="0" name="bottomright"/>
  <anchor x="320" y="730" name="top"/>
  <outline>
    <contour>
      <point x="30" y="326" type="line"/>
      <point x="380" y="326" type="line"/>
      <point x="380" y="406" type="line"/>
      <point x="30" y="406" type="line"/>
    </contour>
    <component base="Ge-cy"/>
  </outline>
</glyph>
<glyph name="ghestroke-cy" format="2">
  <advance width="600"/>
  <unicode hex="0493"/>
  <anchor x="335" y="550" name="top"/>
  <outline>
    <contour>
      <point x="55" y="242" type="line"/>
      <point x="415" y="242" type="line"/>
      <point x="415" y="310" type="line"/>
      <point x="55" y="310" type="line"/>
    </contour>
    <component base="ge-cy" xOffset="15"/>
  </outline>
</glyph>
<glyph name="Kadescender-cy" format="2">
  <advance width="600"/>
  <unicode hex="049A"/>
  <anchor x="289" y="0" name="bottom"/>
  <anchor x="289" y="730" name="top"/>
  <outline>
    <contour>
      <point x="505" y="-140" type="line"/>
      <point x="585" y="-140" type="line"/>
      <point x="585" y="80" type="line"/>
      <point x="505" y="80" type="line"/>
    </contour>
    <component base="K" xOffset="-11"/>
  </outline>
</glyph>
<glyph name="Endescender-cy" format="2">
  <advance width="600"/>
  <unicode hex="04A2"/>
  <anchor x="296" y="0" name="bottom"/>
  <anchor x="296" y="365" name="center"/>
  <anchor x="296" y="730" name="top"/>
  <anchor x="16" y="730" name="topleft"/>
  <outline>
    <contour>
      <point x="470" y="-140" type="line"/>
      <point x="550" y="-140" type="line"/>
      <point x="550" y="80" type="line"/>
      <point x="470" y="80" type="line"/>
    </contour>
    <component base="H" xOffset="-4"/>
  </outline>
</glyph>
<glyph name="Ustraightstroke-cy" format="2">
  <advance width="600"/>
  <unicode hex="04B0"/>
  <anchor x="300" y="0" name="bottom"/>
  <anchor x="300" y="730" name="top"/>
  <anchor x="20" y="730" name="topleft"/>
  <outline>
    <contour>
      <point x="125" y="198" type="line"/>
      <point x="475" y="198" type="line"/>
      <point x="475" y="273" type="line"/>
      <point x="125" y="273" type="line"/>
    </contour>
    <component base="Y"/>
  </outline>
</glyph>
<glyph name="Schwa-cy" format="2">
  <advance width="600"/>
  <unicode hex="04D8"/>
  <outline>
    <contour>
      <point x="297" y="-10" type="curve" smooth="yes"/>
      <point x="428" y="-10"/>
      <point x="510" y="71"/>
      <point x="510" y="200" type="curve" smooth="yes"/>
      <point x="510" y="530" type="line" smooth="yes"/>
      <point x="510" y="659"/>
      <point x="428" y="740"/>
      <point x="297" y="740" type="curve" smooth="yes"/>
      <point x="166" y="740"/>
      <point x="84" y="659"/>
      <point x="84" y="530" type="curve"/>
      <point x="174" y="530" type="line"/>
      <point x="174" y="610"/>
      <point x="221" y="660"/>
      <point x="297" y="660" type="curve" smooth="yes"/>
      <point x="373" y="660"/>
      <point x="420" y="610"/>
      <point x="420" y="531" type="curve" smooth="yes"/>
      <point x="420" y="409" type="line"/>
      <point x="84" y="409" type="line"/>
      <point x="84" y="200" type="line" smooth="yes"/>
      <point x="84" y="71"/>
      <point x="166" y="-10"/>
    </contour>
    <contour>
      <point x="297" y="70" type="curve" smooth="yes"/>
      <point x="221" y="70"/>
      <point x="174" y="120"/>
      <point x="174" y="200" type="curve" smooth="yes"/>
      <point x="174" y="327" type="line"/>
      <point x="420" y="327" type="line"/>
      <point x="420" y="200" type="line" smooth="yes"/>
      <point x="420" y="120"/>
      <point x="373" y="70"/>
    </contour>
  </outline>
</glyph>
<glyph name="four-gujarati" format="2">
  <advance width="600"/>
  <unicode hex="0AEA"/>
  <outline>
    <contour>
      <point x="300" y="-10" type="curve" smooth="yes"/>
      <point x="435" y="-10"/>
      <point x="520" y="73"/>
      <point x="520" y="178" type="curve" smooth="yes"/>
      <point x="520" y="237"/>
      <point x="492" y="289"/>
      <point x="445" y="344" type="curve" smooth="yes"/>
      <point x="180" y="650" type="line"/>
      <point x="76" y="650" type="line"/>
      <point x="382" y="295" type="line" smooth="yes"/>
      <point x="413" y="260"/>
      <point x="430" y="223"/>
      <point x="430" y="186" type="curve" smooth="yes"/>
      <point x="430" y="122"/>
      <point x="380" y="70"/>
      <point x="300" y="70" type="curve" smooth="yes"/>
      <point x="220" y="70"/>
      <point x="170" y="122"/>
      <point x="170" y="186" type="curve" smooth="yes"/>
      <point x="170" y="225"/>
      <point x="188" y="262"/>
      <point x="217" y="295" type="curve" smooth="yes"/>
      <point x="524" y="650" type="line"/>
      <point x="422" y="650" type="line"/>
      <point x="157" y="345" type="line" smooth="yes"/>
      <point x="111" y="292"/>
      <point x="80" y="239"/>
      <point x="80" y="178" type="curve" smooth="yes"/>
      <point x="80" y="73"/>
      <point x="165" y="-10"/>
    </contour>
  </outline>
</glyph>
<glyph name="bracketleftwithquill" format="2">
  <advance width="600"/>
  <unicode hex="2045"/>
  <outline>
    <contour>
      <point x="205" y="-110" type="line"/>
      <point x="445" y="-110" type="line"/>
      <point x="445" y="-30" type="line"/>
      <point x="295" y="-30" type="line"/>
      <point x="295" y="335" type="line"/>
      <point x="450" y="335" type="line"/>
      <point x="450" y="415" type="line"/>
      <point x="295" y="415" type="line"/>
      <point x="295" y="750" type="line"/>
      <point x="450" y="750" type="line"/>
      <point x="450" y="830" type="line"/>
      <point x="205" y="830" type="line"/>
    </contour>
  </outline>
</glyph>
<glyph name="leftRightArrow" format="2">
  <advance width="600"/>
  <unicode hex="2194"/>
  <outline>
    <contour>
      <point x="152" y="35" type="line"/>
      <point x="257" y="35" type="line"/>
      <point x="95" y="239" type="line" smooth="yes"/>
      <point x="78" y="259"/>
      <point x="59" y="278"/>
      <point x="50" y="286" type="curve"/>
      <point x="50" y="295" type="line"/>
      <point x="67" y="293"/>
      <point x="98" y="290"/>
      <point x="120" y="290" type="curve" smooth="yes"/>
      <point x="480" y="290" type="line" smooth="yes"/>
      <point x="502" y="290"/>
      <point x="533" y="292"/>
      <point x="550" y="294" type="curve"/>
      <point x="550" y="285" type="line"/>
      <point x="538" y="276"/>
      <point x="518" y="257"/>
      <point x="505" y="240" type="curve" smooth="yes"/>
      <point x="343" y="35" type="line"/>
      <point x="449" y="35" type="line"/>
      <point x="680" y="330" type="line"/>
      <point x="448" y="625" type="line"/>
      <point x="343" y="625" type="line"/>
      <point x="505" y="421" type="line" smooth="yes"/>
      <point x="522" y="401"/>
      <point x="541" y="382"/>
      <point x="550" y="374" type="curve"/>
      <point x="550" y="365" type="line"/>
      <point x="533" y="367"/>
      <point x="502" y="370"/>
      <point x="480" y="370" type="curve" smooth="yes"/>
      <point x="120" y="370" type="line" smooth="yes"/>
      <point x="98" y="370"/>
      <point x="67" y="368"/>
      <point x="50" y="366" type="curve"/>
      <point x="50" y="375" type="line"/>
      <point x="62" y="384"/>
      <point x="82" y="403"/>
      <point x="95" y="420" type="curve" smooth="yes"/>
      <point x="257" y="625" type="line"/>
      <point x="151" y="625" type="line"/>
      <point x="-80" y="330" type="line"/>
    </contour>
  </outline>
</glyph>
<glyph name="rightFrombarArrow" format="2">
  <advance width="600"/>
  <unicode hex="21A6"/>
  <outline>
    <contour>
      <point x="-80" y="75" type="line"/>
      <point x="2" y="75" type="line"/>
      <point x="2" y="235" type="line"/>
      <point x="480" y="235" type="line" smooth="yes"/>
      <point x="502" y="235"/>
      <point x="533" y="237"/>
      <point x="550" y="239" type="curve"/>
      <point x="550" y="230" type="line"/>
      <point x="538" y="221"/>
      <point x="518" y="202"/>
      <point x="505" y="185" type="curve" smooth="yes"/>
      <point x="418" y="75" type="line"/>
      <point x="524" y="75" type="line"/>
      <point x="680" y="275" type="line"/>
      <point x="524" y="475" type="line"/>
      <point x="418" y="475" type="line"/>
      <point x="505" y="366" type="line" smooth="yes"/>
      <point x="522" y="344"/>
      <point x="541" y="327"/>
      <point x="550" y="319" type="curve"/>
      <point x="550" y="310" type="line"/>
      <point x="533" y="312"/>
      <point x="502" y="315"/>
      <point x="480" y="315" type="curve" smooth="yes"/>
      <point x="2" y="315" type="line"/>
      <point x="2" y="475" type="line"/>
      <point x="-80" y="475" type="line"/>
    </contour>
  </outline>
</glyph>
<glyph name="upWhiteArrow" format="2">
  <advance width="600"/>
  <unicode hex="21E7"/>
  <outline>
    <contour>
      <point x="585" y="429" type="line"/>
      <point x="300" y="755" type="line"/>
      <point x="15" y="429" type="line"/>
      <point x="143" y="429" type="line"/>
      <point x="143" y="31" type="line" smooth="yes"/>
      <point x="143" y="14"/>
      <point x="157" y="0"/>
      <point x="174" y="0" type="curve" smooth="yes"/>
      <point x="424" y="0" type="line" smooth="yes"/>
      <point x="441" y="0"/>
      <point x="455" y="14"/>
      <point x="455" y="31" type="curve" smooth="yes"/>
      <point x="455" y="429" type="line"/>
    </contour>
    <contour>
      <point x="476" y="473" type="line"/>
      <point x="400" y="473" type="line"/>
      <point x="400" y="50" type="line"/>
      <point x="198" y="50" type="line"/>
      <point x="198" y="473" type="line"/>
      <point x="124" y="473" type="line"/>
      <point x="300" y="680" type="line"/>
    </contour>
  </outline>
</glyph>
<glyph name="rightWhiteArrow" format="2">
  <advance width="600"/>
  <unicode hex="21E8"/>
  <outline>
    <contour>
      <point x="334" y="-10" type="line"/>
      <point x="660" y="275" type="line"/>
      <point x="334" y="560" type="line"/>
      <point x="334" y="432" type="line"/>
      <point x="1" y="432" type="line" smooth="yes"/>
      <point x="-16" y="432"/>
      <point x="-30" y="418"/>
      <point x="-30" y="401" type="curve" smooth="yes"/>
      <point x="-30" y="151" type="line" smooth="yes"/>
      <point x="-30" y="134"/>
      <point x="-16" y="120"/>
      <point x="1" y="120" type="curve" smooth="yes"/>
      <point x="334" y="120" type="line"/>
    </contour>
    <contour>
      <point x="384" y="101" type="line"/>
      <point x="384" y="170" type="line"/>
      <point x="25" y="170" type="line"/>
      <point x="25" y="382" type="line"/>
      <point x="384" y="382" type="line"/>
      <point x="384" y="449" type="line"/>
      <point x="585" y="275" type="line"/>
    </contour>
  </outline>
</glyph>
<glyph name="theredoesnotexist" format="2">
  <advance width="600"/>
  <unicode hex="2204"/>
  <outline>
    <contour>
      <point x="67" y="-110" type="line"/>
      <point x="137" y="-110" type="line"/>
      <point x="482" y="830" type="line"/>
      <point x="412" y="830" type="line"/>
    </contour>
    <component base="existential"/>
  </outline>
</glyph>
<glyph name="emptyset" format="2">
  <advance width="600"/>
  <unicode hex="2205"/>
  <outline>
    <contour>
      <point x="300" y="50" type="curve" smooth="yes"/>
      <point x="477" y="50"/>
      <point x="610" y="183"/>
      <point x="610" y="360" type="curve" smooth="yes"/>
      <point x="610" y="537"/>
      <point x="477" y="670"/>
      <point x="300" y="670" type="curve" smooth="yes"/>
      <point x="123" y="670"/>
      <point x="-10" y="537"/>
      <point x="-10" y="360" type="curve" smooth="yes"/>
      <point x="-10" y="183"/>
      <point x="123" y="50"/>
    </contour>
    <contour>
      <point x="300" y="130" type="curve" smooth="yes"/>
      <point x="175" y="130"/>
      <point x="80" y="229"/>
      <point x="80" y="360" type="curve" smooth="yes"/>
      <point x="80" y="491"/>
      <point x="175" y="590"/>
      <point x="300" y="590" type="curve" smooth="yes"/>
      <point x="425" y="590"/>
      <point x="520" y="491"/>
      <point x="520" y="360" type="curve" smooth="yes"/>
      <point x="520" y="229"/>
      <point x="425" y="130"/>
    </contour>
    <contour>
      <point x="20" y="0" type="line"/>
      <point x="91" y="0" type="line"/>
      <point x="580" y="730" type="line"/>
      <point x="509" y="730" type="line"/>
    </contour>
  </outline>
</glyph>
<glyph name="notcontains" format="2">
  <advance width="600"/>
  <unicode hex="220C"/>
  <outline>
    <contour>
      <point x="120" y="-60" type="line"/>
      <point x="183" y="-60" type="line"/>
      <point x="480" y="780" type="line"/>
      <point x="417" y="780" type="line"/>
    </contour>
    <component base="suchthat"/>
  </outline>
</glyph>
<glyph name="radical" format="2">
  <advance width="600"/>
  <unicode hex="221A"/>
  <outline>
    <contour>
      <point x="268" y="0" type="line"/>
      <point x="373" y="0" type="line"/>
      <point x="585" y="730" type="line"/>
      <point x="501" y="730" type="line"/>
      <point x="341" y="161" type="line" smooth="yes"/>
      <point x="329" y="117"/>
      <point x="325" y="80"/>
      <point x="326" y="65" type="curve"/>
      <point x="317" y="65" type="line"/>
      <point x="318" y="80"/>
      <point x="315" y="116"/>
      <point x="304" y="161" type="curve" smooth="yes"/>
      <point x="205" y="550" type="line"/>
      <point x="30" y="550" type="line"/>
      <point x="30" y="470" type="line"/>
      <point x="141" y="470" type="line"/>
    </contour>
  </outline>
</glyph>
<glyph name="dotminus" format="2">
  <advance width="600"/>
  <unicode hex="2238"/>
  <outline>
    <contour>
      <point x="300" y="340" type="curve" smooth="yes"/>
      <point x="350" y="340"/>
      <point x="383" y="370"/>
      <point x="383" y="415" type="curve" smooth="yes"/>
      <point x="383" y="460"/>
      <point x="350" y="490"/>
      <point x="300" y="490" type="curve" smooth="yes"/>
      <point x="250" y="490"/>
      <point x="217" y="460"/>
      <point x="217" y="415" type="curve" smooth="yes"/>
      <point x="217" y="370"/>
      <point x="250" y="340"/>
    </contour>
    <component base="minus" yOffset="-120"/>
  </outline>
</glyph>
<glyph name="asymptoticallyequal" format="2">
  <advance width="600"/>
  <unicode hex="2243"/>
  <outline>
    <contour>
      <point x="70" y="170" type="line"/>
      <point x="530" y="170" type="line"/>
      <point x="530" y="250" type="line"/>
      <point x="70" y="250" type="line"/>
    </contour>
    <component base="asciitilde" yOffset="114"/>
  </outline>
</glyph>
<glyph name="neitherapproximatelynoractuallyequalto" format="2">
  <advance width="600"/>
  <unicode hex="2247"/>
  <outline>
    <contour>
      <point x="120" y="-100" type="line"/>
      <point x="183" y="-100" type="line"/>
      <point x="480" y="780" type="line"/>
      <point x="417" y="780" type="line"/>
    </contour>
    <contour>
      <point x="70" y="76" type="line"/>
      <point x="530" y="76" type="line"/>
      <point x="530" y="152" type="line"/>
      <point x="70" y="152" type="line"/>
    </contour>
    <contour>
      <point x="70" y="292" type="line"/>
      <point x="530" y="292" type="line"/>
      <point x="530" y="368" type="line"/>
      <point x="70" y="368" type="line"/>
    </contour>
    <component base="asciitilde" yOffset="215"/>
  </outline>
</glyph>
<glyph name="ringequalto" format="2">
  <advance width="600"/>
  <unicode hex="2257"/>
  <outline>
    <contour>
      <point x="85" y="292" type="line"/>
      <point x="515" y="292" type="line"/>
      <point x="515" y="368" type="line"/>
      <point x="85" y="368" type="line"/>
    </contour>
    <contour>
      <point x="85" y="76" type="line"/>
      <point x="515" y="76" type="line"/>
      <point x="515" y="152" type="line"/>
      <point x="85" y="152" type="line"/>
    </contour>
    <component base="ringcomb" xOffset="600" yOffset="-115"/>
  </outline>
</glyph>
<glyph name="equivalence" format="2">
  <advance width="600"/>
  <unicode hex="2261"/>
  <outline>
    <contour>
      <point x="85" y="508" type="line"/>
      <point x="515" y="508" type="line"/>
      <point x="515" y="584" type="line"/>
      <point x="85" y="584" type="line"/>
    </contour>
    <contour>
      <point x="85" y="76" type="line"/>
      <point x="515" y="76" type="line"/>
      <point x="515" y="152" type="line"/>
      <point x="85" y="152" type="line"/>
    </contour>
    <contour>
      <point x="85" y="292" type="line"/>
      <point x="515" y="292" type="line"/>
      <point x="515" y="368" type="line"/>
      <point x="85" y="368" type="line"/>
    </contour>
  </outline>
</glyph>
<glyph name="notidentical" format="2">
  <advance width="600"/>
  <unicode hex="2262"/>
  <outline>
    <contour>
      <point x="140" y="-60" type="line"/>
      <point x="203" y="-60" type="line"/>
      <point x="460" y="729" type="line"/>
      <point x="397" y="729" type="line"/>
    </contour>
    <component base="equivalence"/>
  </outline>
</glyph>
<glyph name="muchless" format="2">
  <advance width="600"/>
  <unicode hex="226A"/>
  <outline>
    <contour>
      <point x="600" y="65" type="line"/>
      <point x="600" y="148" type="line"/>
      <point x="390" y="298" type="line" smooth="yes"/>
      <point x="367" y="314"/>
      <point x="343" y="326"/>
      <point x="330" y="331" type="curve"/>
      <point x="343" y="336"/>
      <point x="368" y="351"/>
      <point x="390" y="366" type="curve" smooth="yes"/>
      <point x="600" y="509" type="line"/>
      <point x="600" y="595" type="line"/>
      <point x="270" y="371" type="line"/>
      <point x="270" y="293" type="line"/>
    </contour>
    <contour>
      <point x="330" y="65" type="line"/>
      <point x="330" y="148" type="line"/>
      <point x="120" y="298" type="line" smooth="yes"/>
      <point x="97" y="314"/>
      <point x="73" y="326"/>
      <point x="60" y="331" type="curve"/>
      <point x="73" y="336"/>
      <point x="98" y="351"/>
      <point x="120" y="366" type="curve" smooth="yes"/>
      <point x="330" y="509" type="line"/>
      <point x="330" y="595" type="line"/>
      <point x="0" y="371" type="line"/>
      <point x="0" y="293" type="line"/>
    </contour>
  </outline>
</glyph>
<glyph name="notgreater" format="2">
  <advance width="600"/>
  <unicode hex="226F"/>
  <outline>
    <contour>
      <point x="120" y="-70" type="line"/>
      <point x="183" y="-70" type="line"/>
      <point x="460" y="730" type="line"/>
      <point x="397" y="730" type="line"/>
    </contour>
    <component base="greater"/>
  </outline>
</glyph>
<glyph name="notgreaternorequal" format="2">
  <advance width="600"/>
  <unicode hex="2271"/>
  <outline>
    <contour>
      <point x="120" y="-110" type="line"/>
      <point x="183" y="-110" type="line"/>
      <point x="480" y="780" type="line"/>
      <point x="417" y="780" type="line"/>
    </contour>
    <contour>
      <point x="85" y="0" type="line"/>
      <point x="515" y="0" type="line"/>
      <point x="515" y="82" type="line"/>
      <point x="85" y="82" type="line"/>
    </contour>
    <component base="greater" yOffset="126"/>
  </outline>
</glyph>
<glyph name="precedes" format="2">
  <advance width="600"/>
  <unicode hex="227A"/>
  <outline>
    <contour>
      <point x="430" y="55" type="curve"/>
      <point x="520" y="55" type="line"/>
      <point x="502" y="220"/>
      <point x="364" y="330"/>
      <point x="168" y="336" type="curve"/>
      <point x="168" y="334" type="line"/>
      <point x="364" y="338"/>
      <point x="502" y="442"/>
      <point x="520" y="600" type="curve"/>
      <point x="430" y="600" type="line"/>
      <point x="413" y="466"/>
      <point x="265" y="380"/>
      <point x="55" y="380" type="curve"/>
      <point x="55" y="280" type="line"/>
      <point x="265" y="280"/>
      <point x="413" y="192"/>
    </contour>
  </outline>
</glyph>
<glyph name="notsubset" format="2">
  <advance width="600"/>
  <unicode hex="2284"/>
  <outline>
    <contour>
      <point x="120" y="-60" type="line"/>
      <point x="183" y="-60" type="line"/>
      <point x="480" y="780" type="line"/>
      <point x="417" y="780" type="line"/>
    </contour>
    <component base="subset"/>
  </outline>
</glyph>
<glyph name="squareimageoforequalto" format="2">
  <advance width="600"/>
  <unicode hex="2291"/>
  <outline>
    <contour>
      <point x="35" y="200" type="line"/>
      <point x="570" y="200" type="line"/>
      <point x="570" y="282" type="line"/>
      <point x="125" y="282" type="line"/>
      <point x="125" y="598" type="line"/>
      <point x="570" y="598" type="line"/>
      <point x="570" y="680" type="line"/>
      <point x="35" y="680" type="line"/>
    </contour>
    <contour>
      <point x="35" y="0" type="line"/>
      <point x="570" y="0" type="line"/>
      <point x="570" y="82" type="line"/>
      <point x="35" y="82" type="line"/>
    </contour>
  </outline>
</glyph>
<glyph name="squareoriginaloforequalto" format="2">
  <advance width="600"/>
  <unicode hex="2292"/>
  <outline>
    <contour>
      <point x="30" y="200" type="line"/>
      <point x="565" y="200" type="line"/>
      <point x="565" y="680" type="line"/>
      <point x="30" y="680" type="line"/>
      <point x="30" y="598" type="line"/>
      <point x="475" y="598" type="line"/>
      <point x="475" y="282" type="line"/>
      <point x="30" y="282" type="line"/>
    </contour>
    <contour>
      <point x="30" y="0" type="line"/>
      <point x="565" y="0" type="line"/>
      <point x="565" y="82" type="line"/>
      <point x="30" y="82" type="line"/>
    </contour>
  </outline>
</glyph>
<glyph name="squarecap" format="2">
  <advance width="600"/>
  <unicode hex="2293"/>
  <outline>
    <contour>
      <point x="60" y="0" type="line"/>
      <point x="150" y="0" type="line"/>
      <point x="150" y="453" type="line"/>
      <point x="450" y="453" type="line"/>
      <point x="450" y="0" type="line"/>
      <point x="540" y="0" type="line"/>
      <point x="540" y="535" type="line"/>
      <point x="60" y="535" type="line"/>
    </contour>
  </outline>
</glyph>
<glyph name="multiply.circled" format="2">
  <advance width="600"/>
  <unicode hex="2297"/>
  <outline>
    <contour>
      <point x="300" y="20" type="curve" smooth="yes"/>
      <point x="477" y="20"/>
      <point x="610" y="153"/>
      <point x="610" y="330" type="curve" smooth="yes"/>
      <point x="610" y="507"/>
      <point x="477" y="640"/>
      <point x="300" y="640" type="curve" smooth="yes"/>
      <point x="123" y="640"/>
      <point x="-10" y="507"/>
      <point x="-10" y="330" type="curve" smooth="yes"/>
      <point x="-10" y="153"/>
      <point x="123" y="20"/>
    </contour>
    <contour>
      <point x="300" y="70" type="curve" smooth="yes"/>
      <point x="152" y="70"/>
      <point x="40" y="182"/>
      <point x="40" y="330" type="curve" smooth="yes"/>
      <point x="40" y="478"/>
      <point x="152" y="590"/>
      <point x="300" y="590" type="curve" smooth="yes"/>
      <point x="448" y="590"/>
      <point x="560" y="478"/>
      <point x="560" y="330" type="curve" smooth="yes"/>
      <point x="560" y="182"/>
      <point x="448" y="70"/>
    </contour>
    <contour>
      <point x="120" y="100" type="line"/>
      <point x="298" y="278" type="line"/>
      <point x="471" y="104" type="line"/>
      <point x="524" y="155" type="line"/>
      <point x="349" y="329" type="line"/>
      <point x="527" y="507" type="line"/>
      <point x="471" y="554" type="line"/>
      <point x="298" y="381" type="line"/>
      <point x="120" y="558" type="line"/>
      <point x="72" y="504" type="line"/>
      <point x="246" y="329" type="line"/>
      <point x="69" y="152" type="line"/>
    </contour>
  </outline>
</glyph>
<glyph name="asteriskoperator.circled" format="2">
  <advance width="600"/>
  <unicode hex="229B"/>
  <outline>
    <contour>
      <point x="300" y="20" type="curve" smooth="yes"/>
      <point x="477" y="20"/>
      <point x="610" y="153"/>
      <point x="610" y="330" type="curve" smooth="yes"/>
      <point x="610" y="507"/>
      <point x="477" y="640"/>
      <point x="300" y="640" type="curve" smooth="yes"/>
      <point x="123" y="640"/>
      <point x="-10" y="507"/>
      <point x="-10" y="330" type="curve" smooth="yes"/>
      <point x="-10" y="153"/>
      <point x="123" y="20"/>
    </contour>
    <contour>
      <point x="300" y="70" type="curve" smooth="yes"/>
      <point x="152" y="70"/>
      <point x="40" y="182"/>
      <point x="40" y="330" type="curve" smooth="yes"/>
      <point x="40" y="478"/>
      <point x="152" y="590"/>
      <point x="300" y="590" type="curve" smooth="yes"/>
      <point x="448" y="590"/>
      <point x="560" y="478"/>
      <point x="560" y="330" type="curve" smooth="yes"/>
      <point x="560" y="182"/>
      <point x="448" y="70"/>
    </contour>
    <contour>
      <point x="181" y="87" type="line"/>
      <point x="235" y="165" type="line" smooth="yes"/>
      <point x="261" y="201"/>
      <point x="283" y="257"/>
      <point x="296" y="293" type="curve"/>
      <point x="303" y="293" type="line"/>
      <point x="315" y="257"/>
      <point x="338" y="201"/>
      <point x="363" y="165" type="curve" smooth="yes"/>
      <point x="418" y="87" type="line"/>
      <point x="490" y="137" type="line"/>
      <point x="435" y="215" type="line" smooth="yes"/>
      <point x="410" y="251"/>
      <point x="366" y="291"/>
      <point x="336" y="315" type="curve"/>
      <point x="340" y="323" type="line"/>
      <point x="378" y="326"/>
      <point x="435" y="333"/>
      <point x="476" y="348" type="curve" smooth="yes"/>
      <point x="565" y="380" type="line"/>
      <point x="535" y="463" type="line"/>
      <point x="446" y="431" type="line" smooth="yes"/>
      <point x="404" y="416"/>
      <point x="354" y="383"/>
      <point x="323" y="360" type="curve"/>
      <point x="318" y="364" type="line"/>
      <point x="329" y="401"/>
      <point x="344" y="462"/>
      <point x="344" y="508" type="curve" smooth="yes"/>
      <point x="344" y="603" type="line"/>
      <point x="256" y="603" type="line"/>
      <point x="256" y="508" type="line" smooth="yes"/>
      <point x="256" y="462"/>
      <point x="271" y="401"/>
      <point x="281" y="364" type="curve"/>
      <point x="276" y="360" type="line"/>
      <point x="245" y="383"/>
      <point x="195" y="416"/>
      <point x="153" y="431" type="curve" smooth="yes"/>
      <point x="65" y="463" type="line"/>
      <point x="35" y="380" type="line"/>
      <point x="123" y="348" type="line" smooth="yes"/>
      <point x="164" y="333"/>
      <point x="222" y="326"/>
      <point x="260" y="323" type="curve"/>
      <point x="263" y="316" type="line"/>
      <point x="234" y="292"/>
      <point x="189" y="252"/>
      <point x="163" y="215" type="curve" smooth="yes"/>
      <point x="109" y="137" type="line"/>
    </contour>
  </outline>
</glyph>
<glyph name="squaredminus" format="2">
  <advance width="600"/>
  <unicode hex="229F"/>
  <outline>
    <contour>
      <point x="140" y="290" type="line"/>
      <point x="460" y="290" type="line"/>
      <point x="460" y="370" type="line"/>
      <point x="140" y="370" type="line"/>
    </contour>
    <component base="whiteSquare" yOffset="-30"/>
  </outline>
</glyph>
<glyph name="curlyor" format="2">
  <advance width="600"/>
  <unicode hex="22CE"/>
  <outline>
    <contour>
      <point x="572" y="464" type="curve"/>
      <point x="572" y="554" type="line"/>
      <point x="411" y="536"/>
      <point x="302" y="398"/>
      <point x="296" y="202" type="curve"/>
      <point x="298" y="202" type="line"/>
      <point x="294" y="398"/>
      <point x="187" y="536"/>
      <point x="27" y="554" type="curve"/>
      <point x="27" y="464" type="line"/>
      <point x="161" y="447"/>
      <point x="247" y="300"/>
      <point x="247" y="90" type="curve"/>
      <point x="247" y="0" type="line"/>
      <point x="347" y="0" type="line"/>
      <point x="347" y="90" type="line"/>
      <point x="347" y="300"/>
      <point x="435" y="447"/>
    </contour>
  </outline>
</glyph>
<glyph name="notsquareimageoforequalto" format="2">
  <advance width="600"/>
  <unicode hex="22E2"/>
  <outline>
    <contour>
      <point x="101" y="-110" type="line"/>
      <point x="171" y="-110" type="line"/>
      <point x="516" y="830" type="line"/>
      <point x="446" y="830" type="line"/>
    </contour>
    <component base="squareimageoforequalto"/>
  </outline>
</glyph>
<glyph name="downrightdiagonalellipsis" format="2">
  <advance width="600"/>
  <unicode hex="22F1"/>
  <outline>
    <contour>
      <point x="61" y="503" type="curve" smooth="yes"/>
      <point x="103" y="503"/>
      <point x="131" y="531"/>
      <point x="131" y="573" type="curve" smooth="yes"/>
      <point x="131" y="615"/>
      <point x="103" y="643"/>
      <point x="61" y="643" type="curve" smooth="yes"/>
      <point x="18" y="643"/>
      <point x="-10" y="615"/>
      <point x="-10" y="573" type="curve" smooth="yes"/>
      <point x="-10" y="531"/>
      <point x="18" y="503"/>
    </contour>
    <contour>
      <point x="301" y="264" type="curve" smooth="yes"/>
      <point x="343" y="264"/>
      <point x="371" y="292"/>
      <point x="371" y="334" type="curve" smooth="yes"/>
      <point x="371" y="376"/>
      <point x="343" y="404"/>
      <point x="301" y="404" type="curve" smooth="yes"/>
      <point x="258" y="404"/>
      <point x="230" y="376"/>
      <point x="230" y="334" type="curve" smooth="yes"/>
      <point x="230" y="292"/>
      <point x="258" y="264"/>
    </contour>
    <contour>
      <point x="540" y="25" type="curve" smooth="yes"/>
      <point x="582" y="25"/>
      <point x="610" y="53"/>
      <point x="610" y="95" type="curve" smooth="yes"/>
      <point x="610" y="137"/>
      <point x="582" y="165"/>
      <point x="540" y="165" type="curve" smooth="yes"/>
      <point x="497" y="165"/>
      <point x="469" y="137"/>
      <point x="469" y="95" type="curve" smooth="yes"/>
      <point x="469" y="53"/>
      <point x="497" y="25"/>
    </contour>
  </outline>
</glyph>
<glyph name="control" format="2">
  <advance width="600"/>
  <unicode hex="2303"/>
  <outline>
    <contour>
      <point x="60" y="370" type="line"/>
      <point x="170" y="370" type="line"/>
      <point x="298" y="488" type="line"/>
      <point x="429" y="370" type="line"/>
      <point x="540" y="370" type="line"/>
      <point x="350" y="550" type="line"/>
      <point x="250" y="550" type="line"/>
    </contour>
  </outline>
</glyph>
<glyph name="optionKey" format="2">
  <advance width="600"/>
  <unicode hex="2325"/>
  <outline>
    <contour>
      <point x="367" y="0" type="line"/>
      <point x="590" y="0" type="line"/>
      <point x="590" y="80" type="line"/>
      <point x="427" y="80" type="line"/>
      <point x="233" y="550" type="line"/>
      <point x="10" y="550" type="line"/>
      <point x="10" y="470" type="line"/>
      <point x="173" y="470" type="line"/>
    </contour>
    <contour>
      <point x="386" y="470" type="line"/>
      <point x="590" y="470" type="line"/>
      <point x="590" y="550" type="line"/>
      <point x="386" y="550" type="line"/>
    </contour>
  </outline>
</glyph>
<glyph name="APLquadupcaret" format="2">
  <advance width="600"/>
  <unicode hex="2353"/>
  <outline>
    <contour>
      <point x="0" y="-111" type="line"/>
      <point x="600" y="-111" type="line"/>
      <point x="600" y="830" type="line"/>
      <point x="0" y="830" type="line"/>
    </contour>
    <contour>
      <point x="16" y="37" type="line"/>
      <point x="42" y="-22" type="line"/>
      <point x="266" y="590" type="line" smooth="yes"/>
      <point x="280" y="627"/>
      <point x="293" y="670"/>
      <point x="299" y="693" type="curve"/>
      <point x="305" y="670"/>
      <point x="320" y="626"/>
      <point x="333" y="590" type="curve" smooth="yes"/>
      <point x="558" y="-22" type="line"/>
      <point x="584" y="37" type="line"/>
      <point x="331" y="730" type="line"/>
      <point x="269" y="730" type="line"/>
    </contour>
    <contour>
      <point x="50" y="-66" type="line"/>
      <point x="50" y="785" type="line"/>
      <point x="550" y="785" type="line"/>
      <point x="550" y="-66" type="line"/>
    </contour>
  </outline>
</glyph>
<glyph name="leftsquarebracketuppercorner" format="2">
  <advance width="600"/>
  <unicode hex="23A1"/>
  <outline>
    <contour>
      <point x="255" y="-300" type="line"/>
      <point x="345" y="-300" type="line"/>
      <point x="345" y="750" type="line"/>
      <point x="500" y="750" type="line"/>
      <point x="500" y="830" type="line"/>
      <point x="255" y="830" type="line"/>
    </contour>
  </outline>
</glyph>
<glyph name="leftsquarebracketlowercorner" format="2">
  <advance width="600"/>
  <unicode hex="23A3"/>
  <outline>
    <contour>
      <point x="255" y="-110" type="line"/>
      <point x="500" y="-110" type="line"/>
      <point x="500" y="-30" type="line"/>
      <point x="345" y="-30" type="line"/>
      <point x="345" y="1020" type="line"/>
      <point x="255" y="1020" type="line"/>
    </contour>
  </outline>
</glyph>
<glyph name="leftcurlybracketmiddlepiece" format="2">
  <advance width="600"/>
  <unicode hex="23A8"/>
  <outline>
    <contour>
      <point x="255" y="-300" type="line"/>
      <point x="345" y="-300" type="line"/>
      <point x="345" y="220" type="line" smooth="yes"/>
      <point x="345" y="306"/>
      <point x="299" y="363"/>
      <point x="215" y="363" type="curve"/>
      <point x="215" y="358" type="line"/>
      <point x="300" y="358"/>
      <point x="345" y="413"/>
      <point x="345" y="500" type="curve" smooth="yes"/>
      <point x="345" y="1020" type="line"/>
      <point x="255" y="1020" type="line"/>
      <point x="255" y="500" type="line" smooth="yes"/>
      <point x="255" y="429"/>
      <point x="242" y="400"/>
      <point x="155" y="400" type="curve" smooth="yes"/>
      <point x="45" y="400" type="line"/>
      <point x="45" y="320" type="line"/>
      <point x="155" y="320" type="line" smooth="yes"/>
      <point x="241" y="320"/>
      <point x="255" y="291"/>
      <point x="255" y="220" type="curve" smooth="yes"/>
    </contour>
  </outline>
</glyph>
<glyph name="boxHeavyVertical" format="2">
  <advance width="600"/>
  <unicode hex="2503"/>
  <outline>
    <contour>
      <point x="200" y="-400" type="line"/>
      <point x="400" y="-400" type="line"/>
      <point x="400" y="1120" type="line"/>
      <point x="200" y="1120" type="line"/>
    </contour>
  </outline>
</glyph>
<glyph name="boxHeavyTripleDashVertical" format="2">
  <advance width="600"/>
  <unicode hex="2507"/>
  <outline>
    <contour>
      <point x="200" y="182" type="line"/>
      <point x="400" y="182" type="line"/>
      <point x="400" y="539" type="line"/>
      <point x="200" y="539" type="line"/>
    </contour>
    <contour>
      <point x="200" y="-219" type="line"/>
      <point x="400" y="-219" type="line"/>
      <point x="400" y="107" type="line"/>
      <point x="200" y="107" type="line"/>
    </contour>
    <contour>
      <point x="200" y="612" type="line"/>
      <point x="400" y="612" type="line"/>
      <point x="400" y="938" type="line"/>
      <point x="200" y="938" type="line"/>
    </contour>
  </outline>
</glyph>
<glyph name="boxLightQuadrupleDashHorizontal" format="2">
  <advance width="600"/>
  <unicode hex="2508"/>
  <outline>
    <contour>
      <point x="475" y="320" type="line"/>
      <point x="575" y="320" type="line"/>
      <point x="575" y="420" type="line"/>
      <point x="475" y="420" type="line"/>
    </contour>
    <contour>
      <point x="25" y="320" type="line"/>
      <point x="125" y="320" type="line"/>
      <point x="125" y="420" type="line"/>
      <point x="25" y="420" type="line"/>
    </contour>
    <contour>
      <point x="175" y="320" type="line"/>
      <point x="275" y="320" type="line"/>
      <point x="275" y="420" type="line"/>
      <point x="175" y="420" type="line"/>
    </contour>
    <contour>
      <point x="325" y="320" type="line"/>
      <point x="425" y="320" type="line"/>
      <point x="425" y="420" type="line"/>
      <point x="325" y="420" type="line"/>
    </contour>
  </outline>
</glyph>
<glyph name="boxUpHeavyAndRightLight" format="2">
  <advance width="600"/>
  <unicode hex="2516"/>
  <outline>
    <contour>
      <point x="200" y="320" type="line"/>
      <point x="620" y="320" type="line"/>
      <point x="620" y="420" type="line"/>
      <point x="400" y="420" type="line"/>
      <point x="400" y="1120" type="line"/>
      <point x="200" y="1120" type="line"/>
    </contour>
  </outline>
</glyph>
<glyph name="boxHeavyUpAndRight" format="2">
  <advance width="600"/>
  <unicode hex="2517"/>
  <outline>
    <contour>
      <point x="200" y="270" type="line"/>
      <point x="620" y="270" type="line"/>
      <point x="620" y="470" type="line"/>
      <point x="400" y="470" type="line"/>
      <point x="400" y="1120" type="line"/>
      <point x="200" y="1120" type="line"/>
    </contour>
  </outline>
</glyph>
<glyph name="boxUpHeavyAndLeftLight" format="2">
  <advance width="600"/>
  <unicode hex="251A"/>
  <outline>
    <contour>
      <point x="-20" y="320" type="line"/>
      <point x="400" y="320" type="line"/>
      <point x="400" y="1120" type="line"/>
      <point x="200" y="1120" type="line"/>
      <point x="200" y="420" type="line"/>
      <point x="-20" y="420" type="line"/>
    </contour>
  </outline>
</glyph>
<glyph name="boxLightVerticalAndRight" format="2">
  <advance width="600"/>
  <unicode hex="251C"/>
  <outline>
    <contour>
      <point x="250" y="-400" type="line"/>
      <point x="350" y="-400" type="line"/>
      <point x="350" y="320" type="line"/>
      <point x="620" y="320" type="line"/>
      <point x="620" y="420" type="line"/>
      <point x="350" y="420" type="line"/>
      <point x="350" y="1120" type="line"/>
      <point x="250" y="1120" type="line"/>
    </contour>
  </outline>
</glyph>
<glyph name="boxLightDoubleDashVertical" format="2">
  <advance width="600"/>
  <unicode hex="254E"/>
  <outline>
    <contour>
      <point x="250" y="-165" type="line"/>
      <point x="350" y="-165" type="line"/>
      <point x="350" y="290" type="line"/>
      <point x="250" y="290" type="line"/>
    </contour>
    <contour>
      <point x="250" y="440" type="line"/>
      <point x="350" y="440" type="line"/>
      <point x="350" y="893" type="line"/>
      <point x="250" y="893" type="line"/>
    </contour>
  </outline>
</glyph>
<glyph name="boxDoubleHorizontal" format="2">
  <advance width="600"/>
  <unicode hex="2550"/>
  <outline>
    <contour>
      <point x="-20" y="420" type="line"/>
      <point x="620" y="420" type="line"/>
      <point x="620" y="520" type="line"/>
      <point x="-20" y="520" type="line"/>
    </contour>
    <contour>
      <point x="-20" y="220" type="line"/>
      <point x="620" y="220" type="line"/>
      <point x="620" y="320" type="line"/>
      <point x="-20" y="320" type="line"/>
    </contour>
  </outline>
</glyph>
<glyph name="boxUpDoubleAndRightSingle" format="2">
  <advance width="600"/>
  <unicode hex="2559"/>
  <outline>
    <contour>
      <point x="150" y="320" type="line"/>
      <point x="620" y="320" type="line"/>
      <point x="620" y="420" type="line"/>
      <point x="450" y="420" type="line"/>
      <point x="450" y="1120" type="line"/>
      <point x="350" y="1120" type="line"/>
      <point x="350" y="420" type="line"/>
      <point x="250" y="420" type="line"/>
      <point x="250" y="1120" type="line"/>
      <point x="150" y="1120" type="line"/>
    </contour>
  </outline>
</glyph>
<glyph name="boxDoubleUpAndHorizontal" format="2">
  <advance width="600"/>
  <unicode hex="2569"/>
  <outline>
    <contour>
      <point x="350" y="420" type="line"/>
      <point x="620" y="420" type="line"/>
      <point x="620" y="520" type="line"/>
      <point x="450" y="520" type="line"/>
      <point x="450" y="1120" type="line"/>
      <point x="350" y="1120" type="line"/>
    </contour>
    <contour>
      <point x="-20" y="220" type="line"/>
      <point x="620" y="220" type="line"/>
      <point x="620" y="320" type="line"/>
      <point x="-20" y="320" type="line"/>
    </contour>
    <contour>
      <point x="-20" y="420" type="line"/>
      <point x="250" y="420" type="line"/>
      <point x="250" y="1120" type="line"/>
      <point x="150" y="1120" type="line"/>
      <point x="150" y="520" type="line"/>
      <point x="-20" y="520" type="line"/>
    </contour>
  </outline>
</glyph>
<glyph name="boxLightArcDownAndLeft" format="2">
  <advance width="600"/>
  <unicode hex="256E"/>
  <outline>
    <contour>
      <point x="250" y="-400" type="line"/>
      <point x="350" y="-400" type="line"/>
      <point x="350" y="80" type="line" smooth="yes"/>
      <point x="350" y="286"/>
      <point x="218" y="420"/>
      <point x="15" y="420" type="curve" smooth="yes"/>
      <point x="-20" y="420" type="line"/>
      <point x="-20" y="320" type="line"/>
      <point x="15" y="320" type="line" smooth="yes"/>
      <point x="158" y="320"/>
      <point x="250" y="226"/>
      <point x="250" y="80" type="curve" smooth="yes"/>
    </contour>
  </outline>
</glyph>
<glyph name="boxLightDiagonalCross" format="2">
  <advance width="600"/>
  <unicode hex="2573"/>
  <outline>
    <contour>
      <point x="-20" y="-160" type="line"/>
      <point x="60" y="-160" type="line"/>
      <point x="300" y="265" type="line"/>
      <point x="540" y="-160" type="line"/>
      <point x="620" y="-160" type="line"/>
      <point x="620" y="-120" type="line"/>
      <point x="351" y="360" type="line"/>
      <point x="620" y="840" type="line"/>
      <point x="620" y="880" type="line"/>
      <point x="540" y="880" type="line"/>
      <point x="300" y="455" type="line"/>
      <point x="60" y="880" type="line"/>
      <point x="-20" y="880" type="line"/>
      <point x="-20" y="840" type="line"/>
      <point x="249" y="360" type="line"/>
      <point x="-20" y="-120" type="line"/>
    </contour>
  </outline>
</glyph>
<glyph name="boxHeavyDown" format="2">
  <advance width="600"/>
  <unicode hex="257B"/>
  <outline>
    <contour>
      <point x="200" y="-400" type="line"/>
      <point x="400" y="-400" type="line"/>
      <point x="400" y="420" type="line"/>
      <point x="200" y="420" type="line"/>
    </contour>
  </outline>
</glyph>
<glyph name="boxLightUpAndHeavyDown" format="2">
  <advance width="600"/>
  <unicode hex="257D"/>
  <outline>
    <contour>
      <point x="200" y="-400" type="line"/>
      <point x="400" y="-400" type="line"/>
      <point x="400" y="420" type="line"/>
      <point x="350" y="420" type="line"/>
      <point x="350" y="1120" type="line"/>
      <point x="250" y="1120" type="line"/>
      <point x="250" y="420" type="line"/>
      <point x="200" y="420" type="line"/>
    </contour>
  </outline>
</glyph>
<glyph name="leftSevenEighthsBlock" format="2">
  <advance width="600"/>
  <unicode hex="2589"/>
  <outline>
    <contour>
      <point x="0" y="-300" type="line"/>
      <point x="525" y="-300" type="line"/>
      <point x="525" y="1020" type="line"/>
      <point x="0" y="1020" type="line"/>
    </contour>
  </outline>
</glyph>
<glyph name="rightBlackTriangle" format="2">
  <advance width="600"/>
  <unicode hex="25B6"/>
  <outline>
    <contour>
      <point x="0" y="50" type="line"/>
      <point x="610" y="360" type="line"/>
      <point x="0" y="670" type="line"/>
    </contour>
  </outline>
</glyph>
<glyph name="rightBlackPointer" format="2">
  <advance width="600"/>
  <unicode hex="25BA"/>
  <outline>
    <contour>
      <point x="0" y="210" type="line"/>
      <point x="610" y="360" type="line"/>
      <point x="0" y="510" type="line"/>
    </contour>
  </outline>
</glyph>
<glyph name="downWhiteTriangle" format="2">
  <advance width="600"/>
  <unicode hex="25BD"/>
  <outline>
    <contour>
      <point x="300" y="50" type="line"/>
      <point x="610" y="660" type="line"/>
      <point x="-10" y="660" type="line"/>
    </contour>
    <contour>
      <point x="300" y="163" type="line"/>
      <point x="73" y="610" type="line"/>
      <point x="527" y="610" type="line"/>
    </contour>
  </outline>
</glyph>
<glyph name="dottedCircle" format="2">
  <advance width="600"/>
  <unicode hex="25CC"/>
  <outline>
    <contour>
      <point x="-10" y="360" type="curve" smooth="yes"/>
      <point x="-10" y="332"/>
      <point x="-7" y="305"/>
      <point x="0" y="279" type="curve"/>
      <point x="48" y="292" type="line"/>
      <point x="43" y="314"/>
      <point x="40" y="336"/>
      <point x="40" y="360" type="curve" smooth="yes"/>
      <point x="40" y="384"/>
      <point x="43" y="406"/>
      <point x="48" y="428" type="curve"/>
      <point x="0" y="441" type="line"/>
      <point x="-7" y="415"/>
      <point x="-10" y="388"/>
    </contour>
    <contour>
      <point x="29" y="204" type="line"/>
      <point x="56" y="156"/>
      <point x="96" y="116"/>
      <point x="144" y="89" type="curve"/>
      <point x="169" y="133" type="line"/>
      <point x="129" y="156"/>
      <point x="96" y="189"/>
      <point x="73" y="229" type="curve"/>
    </contour>
    <contour>
      <point x="29" y="516" type="curve"/>
      <point x="73" y="491" type="line"/>
      <point x="96" y="531"/>
      <point x="129" y="564"/>
      <point x="169" y="587" type="curve"/>
      <point x="144" y="631" type="line"/>
      <point x="96" y="604"/>
      <point x="56" y="564"/>
    </contour>
    <contour>
      <point x="219" y="660" type="curve"/>
      <point x="232" y="612" type="line"/>
      <point x="254" y="617"/>
      <point x="276" y="620"/>
      <point x="300" y="620" type="curve" smooth="yes"/>
      <point x="324" y="620"/>
      <point x="346" y="617"/>
      <point x="368" y="612" type="curve"/>
      <point x="381" y="660" type="line"/>
      <point x="355" y="667"/>
      <point x="328" y="670"/>
      <point x="300" y="670" type="curve" smooth="yes"/>
      <point x="272" y="670"/>
      <point x="245" y="667"/>
    </contour>
    <contour>
      <point x="219" y="60" type="line"/>
      <point x="245" y="53"/>
      <point x="272" y="50"/>
      <point x="300" y="50" type="curve" smooth="yes"/>
      <point x="328" y="50"/>
      <point x="355" y="53"/>
      <point x="381" y="60" type="curve"/>
      <point x="368" y="108" type="line"/>
      <point x="346" y="103"/>
      <point x="324" y="100"/>
      <point x="300" y="100" type="curve" smooth="yes"/>
      <point x="276" y="100"/>
      <point x="254" y="103"/>
      <point x="232" y="108" type="curve"/>
    </contour>
    <contour>
      <point x="431" y="587" type="line"/>
      <point x="471" y="564"/>
      <point x="504" y="531"/>
      <point x="527" y="491" type="curve"/>
      <point x="571" y="516" type="line"/>
      <point x="544" y="564"/>
      <point x="504" y="604"/>
      <point x="456" y="631" type="curve"/>
    </contour>
    <contour>
      <point x="431" y="133" type="curve"/>
      <point x="456" y="89" type="line"/>
      <point x="504" y="116"/>
      <point x="544" y="156"/>
      <point x="571" y="204" type="curve"/>
      <point x="527" y="229" type="line"/>
      <point x="504" y="189"/>
      <point x="471" y="156"/>
    </contour>
    <contour>
      <point x="552" y="292" type="curve"/>
      <point x="600" y="279" type="line"/>
      <point x="607" y="305"/>
      <point x="610" y="332"/>
      <point x="610" y="360" type="curve" smooth="yes"/>
      <point x="610" y="388"/>
      <point x="607" y="415"/>
      <point x="600" y="441" type="curve"/>
      <point x="552" y="428" type="line"/>
      <point x="557" y="406"/>
      <point x="560" y="384"/>
      <point x="560" y="360" type="curve" smooth="yes"/>
      <point x="560" y="336"/>
      <point x="557" y="314"/>
    </contour>
  </outline>
</glyph>
<glyph name="lowerRightDiagonalHalfBlackSquare" format="2">
  <advance width="600"/>
  <unicode hex="25EA"/>
  <outline>
    <contour>
      <point x="600" y="660" type="line"/>
      <point x="0" y="660" type="line"/>
      <point x="0" y="60" type="line"/>
      <point x="600" y="60" type="line"/>
    </contour>
    <contour>
      <point x="550" y="610" type="line"/>
      <point x="50" y="110" type="line"/>
      <point x="50" y="610" type="line"/>
    </contour>
  </outline>
</glyph>
<glyph name="flat-musical" format="2">
  <advance width="600"/>
  <unicode hex="266D"/>
  <outline>
    <contour>
      <point x="140" y="-10" type="line"/>
      <point x="311" y="55" type="line" smooth="yes"/>
      <point x="404" y="90"/>
      <point x="460" y="166"/>
      <point x="460" y="256" type="curve" smooth="yes"/>
      <point x="460" y="341" type="line" smooth="yes"/>
      <point x="460" y="435"/>
      <point x="409" y="496"/>
      <point x="332" y="496" type="curve" smooth="yes"/>
      <point x="270" y="496"/>
      <point x="230" y="454"/>
      <point x="230" y="390" type="curve"/>
      <point x="250" y="410" type="line"/>
      <point x="230" y="410" type="line"/>
      <point x="230" y="730" type="line"/>
      <point x="140" y="730" type="line"/>
    </contour>
    <contour>
      <point x="230" y="113" type="line"/>
      <point x="230" y="341" type="line" smooth="yes"/>
      <point x="230" y="387"/>
      <point x="256" y="414"/>
      <point x="300" y="414" type="curve" smooth="yes"/>
      <point x="344" y="414"/>
      <point x="370" y="387"/>
      <point x="370" y="341" type="curve" smooth="yes"/>
      <point x="370" y="256" type="line" smooth="yes"/>
      <point x="370" y="198"/>
      <point x="338" y="154"/>
      <point x="283" y="133" type="curve" smooth="yes"/>
    </contour>
  </outline>
</glyph>
<glyph name="leftsshapedbagdelimiter" format="2">
  <advance width="600"/>
  <unicode hex="27C5"/>
  <outline>
    <contour>
      <point x="185" y="668" type="line"/>
      <point x="275" y="668" type="line"/>
      <point x="275" y="695" type="line"/>
      <point x="275" y="734"/>
      <point x="301" y="760"/>
      <point x="339" y="760" type="curve" smooth="yes"/>
      <point x="380" y="760"/>
      <point x="400" y="730"/>
      <point x="400" y="695" type="curve" smooth="yes"/>
      <point x="400" y="670"/>
      <point x="391" y="621"/>
      <point x="347" y="550" type="curve" smooth="yes"/>
      <point x="214" y="336" type="line" smooth="yes"/>
      <point x="140" y="217"/>
      <point x="135" y="129"/>
      <point x="135" y="97" type="curve" smooth="yes"/>
      <point x="135" y="-30"/>
      <point x="218" y="-110"/>
      <point x="345" y="-110" type="curve" smooth="yes"/>
      <point x="480" y="-110" type="line"/>
      <point x="480" y="-30" type="line"/>
      <point x="345" y="-30" type="line" smooth="yes"/>
      <point x="272" y="-30"/>
      <point x="225" y="19"/>
      <point x="225" y="99" type="curve" smooth="yes"/>
      <point x="225" y="148"/>
      <point x="243" y="216"/>
      <point x="315" y="336" type="curve" smooth="yes"/>
      <point x="436" y="538" type="line" smooth="yes"/>
      <point x="463" y="582"/>
      <point x="490" y="639"/>
      <point x="490" y="697" type="curve" smooth="yes"/>
      <point x="490" y="783"/>
      <point x="431" y="840"/>
      <point x="339" y="840" type="curve" smooth="yes"/>
      <point x="246" y="840"/>
      <point x="185" y="783"/>
      <point x="185" y="695" type="curve"/>
    </contour>
  </outline>
</glyph>
<glyph name="leftdoubleanglebracket-math" format="2">
  <advance width="600"/>
  <unicode hex="27EA"/>
  <outline>
    <contour>
      <point x="373" y="-110" type="line"/>
      <point x="428" y="-110" type="line"/>
      <point x="142" y="360" type="line"/>
      <point x="428" y="830" type="line"/>
      <point x="373" y="830" type="line"/>
      <point x="100" y="385" type="line"/>
      <point x="100" y="334" type="line"/>
    </contour>
    <contour>
      <point x="499" y="-110" type="line"/>
      <point x="554" y="-110" type="line"/>
      <point x="268" y="360" type="line"/>
      <point x="554" y="830" type="line"/>
      <point x="499" y="830" type="line"/>
      <point x="226" y="385" type="line"/>
      <point x="226" y="334" type="line"/>
    </contour>
  </outline>
</glyph>
<glyph name="leftLongArrow" format="2">
  <advance width="600"/>
  <unicode hex="27F5"/>
  <outline>
    <contour>
      <point x="167" y="75" type="line"/>
      <point x="272" y="75" type="line"/>
      <point x="135" y="239" type="line" smooth="yes"/>
      <point x="118" y="259"/>
      <point x="99" y="278"/>
      <point x="90" y="286" type="curve"/>
      <point x="90" y="295" type="line"/>
      <point x="107" y="293"/>
      <point x="138" y="290"/>
      <point x="160" y="290" type="curve" smooth="yes"/>
      <point x="640" y="290" type="line"/>
      <point x="640" y="370" type="line"/>
      <point x="160" y="370" type="line" smooth="yes"/>
      <point x="138" y="370"/>
      <point x="107" y="368"/>
      <point x="90" y="366" type="curve"/>
      <point x="90" y="375" type="line"/>
      <point x="102" y="384"/>
      <point x="122" y="404"/>
      <point x="135" y="420" type="curve" smooth="yes"/>
      <point x="269" y="585" type="line"/>
      <point x="166" y="585" type="line"/>
      <point x="-40" y="330" type="line"/>
    </contour>
  </outline>
</glyph>
<glyph name="znotationleftimagebracket" format="2">
  <advance width="600"/>
  <unicode hex="2987"/>
  <outline>
    <contour>
      <point x="485" y="-120" type="curve"/>
      <point x="485" y="840" type="line"/>
      <point x="288" y="808"/>
      <point x="160" y="655"/>
      <point x="160" y="450" type="curve" smooth="yes"/>
      <point x="160" y="270" type="line" smooth="yes"/>
      <point x="160" y="65"/>
      <point x="288" y="-88"/>
    </contour>
    <contour>
      <point x="400" y="-5" type="line"/>
      <point x="307" y="42"/>
      <point x="250" y="143"/>
      <point x="250" y="270" type="curve" smooth="yes"/>
      <point x="250" y="450" type="line" smooth="yes"/>
      <point x="250" y="579"/>
      <point x="307" y="681"/>
      <point x="400" y="729" type="curve"/>
    </contour>
  </outline>
</glyph>
<glyph name="nAryCircledDotOperator" format="2">
  <advance width="600"/>
  <unicode hex="2A00"/>
  <outline>
    <contour>
      <point x="300" y="50" type="curve" smooth="yes"/>
      <point x="477" y="50"/>
      <point x="610" y="183"/>
      <point x="610" y="360" type="curve" smooth="yes"/>
      <point x="610" y="537"/>
      <point x="477" y="670"/>
      <point x="300" y="670" type="curve" smooth="yes"/>
      <point x="123" y="670"/>
      <point x="-10" y="537"/>
      <point x="-10" y="360" type="curve" smooth="yes"/>
      <point x="-10" y="183"/>
      <point x="123" y="50"/>
    </contour>
    <contour>
      <point x="300" y="100" type="curve" smooth="yes"/>
      <point x="152" y="100"/>
      <point x="40" y="212"/>
      <point x="40" y="360" type="curve" smooth="yes"/>
      <point x="40" y="508"/>
      <point x="152" y="620"/>
      <point x="300" y="620" type="curve" smooth="yes"/>
      <point x="448" y="620"/>
      <point x="560" y="508"/>
      <point x="560" y="360" type="curve" smooth="yes"/>
      <point x="560" y="212"/>
      <point x="448" y="100"/>
    </contour>
    <contour>
      <point x="300" y="304" type="curve" smooth="yes"/>
      <point x="268" y="304"/>
      <point x="244" y="328"/>
      <point x="244" y="360" type="curve" smooth="yes"/>
      <point x="244" y="392"/>
      <point x="268" y="416"/>
      <point x="300" y="416" type="curve" smooth="yes"/>
      <point x="332" y="416"/>
      <point x="356" y="392"/>
      <point x="356" y="360" type="curve" smooth="yes"/>
      <point x="356" y="328"/>
      <point x="332" y="304"/>
    </contour>
  </outline>
</glyph>
<glyph name="nArySquareUnionOperator" format="2">
  <advance width="600"/>
  <unicode hex="2A06"/>
  <outline>
    <contour>
      <point x="43" y="0" type="line"/>
      <point x="557" y="0" type="line"/>
      <point x="557" y="730" type="line"/>
      <point x="467" y="730" type="line"/>
      <point x="467" y="82" type="line"/>
      <point x="133" y="82" type="line"/>
      <point x="133" y="730" type="line"/>
      <point x="43" y="730" type="line"/>
    </contour>
  </outline>
</glyph>
<glyph name="C.half" format="2">
  <advance width="400"/>
  <outline>
    <contour>
      <point x="207" y="-5" type="curve" smooth="yes"/>
      <point x="283" y="-5"/>
      <point x="349" y="41"/>
      <point x="370" y="107" type="curve"/>
      <point x="302" y="107" type="line"/>
      <point x="287" y="75"/>
      <point x="248" y="53"/>
      <point x="207" y="53" type="curve" smooth="yes"/>
      <point x="146" y="53"/>
      <point x="100" y="101"/>
      <point x="100" y="167" type="curve" smooth="yes"/>
      <point x="100" y="233"/>
      <point x="146" y="282"/>
      <point x="207" y="282" type="curve" smooth="yes"/>
      <point x="248" y="282"/>
      <point x="287" y="260"/>
      <point x="302" y="228" type="curve"/>
      <point x="370" y="228" type="line"/>
      <point x="349" y="294"/>
      <point x="283" y="340"/>
      <point x="207" y="340" type="curve" smooth="yes"/>
      <point x="107" y="340"/>
      <point x="32" y="266"/>
      <point x="32" y="167" type="curve" smooth="yes"/>
      <point x="32" y="69"/>
      <point x="107" y="-5"/>
    </contour>
  </outline>
</glyph>
<glyph name="D.half" format="2">
  <advance width="400"/>
  <outline>
    <contour>
      <point x="45" y="0" type="line"/>
      <point x="195" y="0" type="line" smooth="yes"/>
      <point x="295" y="0"/>
      <point x="370" y="69"/>
      <point x="370" y="167" type="curve" smooth="yes"/>
      <point x="370" y="266"/>
      <point x="295" y="335"/>
      <point x="195" y="335" type="curve" smooth="yes"/>
      <point x="45" y="335" type="line"/>
    </contour>
    <contour>
      <point x="111" y="57" type="line"/>
      <point x="111" y="277" type="line"/>
      <point x="195" y="277" type="line" smooth="yes"/>
      <point x="255" y="277"/>
      <point x="302" y="232"/>
      <point x="302" y="167" type="curve" smooth="yes"/>
      <point x="302" y="102"/>
      <point x="255" y="57"/>
      <point x="195" y="57" type="curve" smooth="yes"/>
    </contour>
  </outline>
</glyph>
<glyph name="E.half" format="2">
  <advance width="400"/>
  <outline>
    <contour>
      <point x="350" y="58" type="line"/>
      <point x="118" y="58" type="line"/>
      <point x="118" y="144" type="line"/>
      <point x="320" y="144" type="line"/>
      <point x="320" y="191" type="line"/>
      <point x="118" y="191" type="line"/>
      <point x="118" y="277" type="line"/>
      <point x="350" y="277" type="line"/>
      <point x="350" y="335" type="line"/>
      <point x="52" y="335" type="line"/>
      <point x="52" y="0" type="line"/>
      <point x="350" y="0" type="line"/>
    </contour>
  </outline>
</glyph>
<glyph name="F.half" format="2">
  <advance width="400"/>
  <outline>
    <contour>
      <point x="62" y="0" type="line"/>
      <point x="128" y="0" type="line"/>
      <point x="128" y="133" type="line"/>
      <point x="330" y="133" type="line"/>
      <point x="330" y="191" type="line"/>
      <point x="128" y="191" type="line"/>
      <point x="128" y="277" type="line"/>
      <point x="360" y="277" type="line"/>
      <point x="360" y="335" type="line"/>
      <point x="62" y="335" type="line"/>
    </contour>
  </outline>
</glyph>
<glyph name="G.half" format="2">
  <advance width="400"/>
  <outline>
    <contour>
      <point x="32" y="167" type="curve" smooth="yes"/>
      <point x="32" y="69"/>
      <point x="107" y="-5"/>
      <point x="207" y="-5" type="curve" smooth="yes"/>
      <point x="302" y="-5"/>
      <point x="374" y="65"/>
      <point x="374" y="167" type="curve" smooth="yes"/>
      <point x="374" y="181" type="line"/>
      <point x="207" y="181" type="line"/>
      <point x="207" y="124" type="line"/>
      <point x="306" y="124" type="line"/>
      <point x="289" y="72"/>
      <point x="250" y="53"/>
      <point x="207" y="53" type="curve" smooth="yes"/>
      <point x="146" y="53"/>
      <point x="100" y="101"/>
      <point x="100" y="167" type="curve" smooth="yes"/>
      <point x="100" y="233"/>
      <point x="146" y="282"/>
      <point x="207" y="282" type="curve" smooth="yes"/>
      <point x="248" y="282"/>
      <point x="286" y="260"/>
      <point x="301" y="234" type="curve"/>
      <point x="369" y="234" type="line"/>
      <point x="348" y="294"/>
      <point x="283" y="340"/>
      <point x="207" y="340" type="curve" smooth="yes"/>
      <point x="107" y="340"/>
      <point x="32" y="266"/>
    </contour>
  </outline>
</glyph>
<glyph name="I.half" format="2">
  <advance width="400"/>
  <outline>
    <contour>
      <point x="42" y="0" type="line"/>
      <point x="358" y="0" type="line"/>
      <point x="358" y="60" type="line"/>
      <point x="233" y="60" type="line"/>
      <point x="233" y="275" type="line"/>
      <point x="358" y="275" type="line"/>
      <point x="358" y="335" type="line"/>
      <point x="42" y="335" type="line"/>
      <point x="42" y="275" type="line"/>
      <point x="167" y="275" type="line"/>
      <point x="167" y="60" type="line"/>
      <point x="42" y="60" type="line"/>
    </contour>
  </outline>
</glyph>
<glyph name="L.half" format="2">
  <advance width="400"/>
  <anchor x="580" y="730" name="topright"/>
  <outline>
    <contour>
      <point x="82" y="0" type="line"/>
      <point x="370" y="0" type="line"/>
      <point x="370" y="60" type="line"/>
      <point x="148" y="60" type="line"/>
      <point x="148" y="335" type="line"/>
      <point x="82" y="335" type="line"/>
    </contour>
  </outline>
</glyph>
<glyph name="M.half" format="2">
  <advance width="400"/>
  <outline>
    <contour>
      <point x="30" y="0" type="line"/>
      <point x="95" y="0" type="line"/>
      <point x="95" y="95" type="line" smooth="yes"/>
      <point x="95" y="198"/>
      <point x="89" y="244"/>
      <point x="79" y="295" type="curve"/>
      <point x="167" y="96" type="line"/>
      <point x="234" y="96" type="line"/>
      <point x="320" y="298" type="line"/>
      <point x="306" y="247"/>
      <point x="306" y="185"/>
      <point x="306" y="95" type="curve" smooth="yes"/>
      <point x="306" y="0" type="line"/>
      <point x="370" y="0" type="line"/>
      <point x="370" y="335" type="line"/>
      <point x="280" y="335" type="line"/>
      <point x="227" y="213" type="line" smooth="yes"/>
      <point x="213" y="181"/>
      <point x="206" y="169"/>
      <point x="201" y="146" type="curve"/>
      <point x="196" y="169"/>
      <point x="189" y="182"/>
      <point x="176" y="212" type="curve" smooth="yes"/>
      <point x="121" y="335" type="line"/>
      <point x="30" y="335" type="line"/>
    </contour>
  </outline>
</glyph>
<glyph name="N.half" format="2">
  <advance width="400"/>
  <outline>
    <contour>
      <point x="45" y="0" type="line"/>
      <point x="110" y="0" type="line"/>
      <point x="110" y="105" type="line" smooth="yes"/>
      <point x="110" y="195"/>
      <point x="108" y="209"/>
      <point x="97" y="265" type="curve"/>
      <point x="275" y="0" type="line"/>
      <point x="355" y="0" type="line"/>
      <point x="355" y="335" type="line"/>
      <point x="290" y="335" type="line"/>
      <point x="290" y="230" type="line" smooth="yes"/>
      <point x="290" y="141"/>
      <point x="292" y="129"/>
      <point x="303" y="70" type="curve"/>
      <point x="125" y="335" type="line"/>
      <point x="45" y="335" type="line"/>
    </contour>
  </outline>
</glyph>
<glyph name="P.half" format="2">
  <advance width="400"/>
  <outline>
    <contour>
      <point x="55" y="0" type="line"/>
      <point x="121" y="0" type="line"/>
      <point x="121" y="117" type="line"/>
      <point x="246" y="117" type="line" smooth="yes"/>
      <point x="320" y="117"/>
      <point x="370" y="163"/>
      <point x="370" y="225" type="curve" smooth="yes"/>
      <point x="370" y="288"/>
      <point x="320" y="335"/>
      <point x="246" y="335" type="curve" smooth="yes"/>
      <point x="55" y="335" type="line"/>
    </contour>
    <contour>
      <point x="121" y="175" type="line"/>
      <point x="121" y="277" type="line"/>
      <point x="248" y="277" type="line" smooth="yes"/>
      <point x="281" y="277"/>
      <point x="303" y="254"/>
      <point x="303" y="225" type="curve" smooth="yes"/>
      <point x="303" y="197"/>
      <point x="280" y="175"/>
      <point x="247" y="175" type="curve" smooth="yes"/>
    </contour>
  </outline>
</glyph>
<glyph name="Q.half" format="2">
  <advance width="400"/>
  <outline>
    <contour>
      <point x="200" y="-5" type="curve" smooth="yes"/>
      <point x="233" y="-5"/>
      <point x="264" y="3"/>
      <point x="290" y="18" type="curve"/>
      <point x="256" y="69" type="line"/>
      <point x="240" y="59"/>
      <point x="221" y="53"/>
      <point x="200" y="53" type="curve" smooth="yes"/>
      <point x="140" y="53"/>
      <point x="93" y="102"/>
      <point x="93" y="167" type="curve" smooth="yes"/>
      <point x="93" y="232"/>
      <point x="140" y="281"/>
      <point x="200" y="281" type="curve" smooth="yes"/>
      <point x="260" y="281"/>
      <point x="307" y="232"/>
      <point x="307" y="167" type="curve" smooth="yes"/>
      <point x="307" y="149"/>
      <point x="303" y="132"/>
      <point x="297" y="117" type="curve"/>
      <point x="342" y="63" type="line"/>
      <point x="363" y="92"/>
      <point x="375" y="128"/>
      <point x="375" y="167" type="curve" smooth="yes"/>
      <point x="375" y="266"/>
      <point x="300" y="340"/>
      <point x="200" y="340" type="curve" smooth="yes"/>
      <point x="100" y="340"/>
      <point x="25" y="266"/>
      <point x="25" y="167" type="curve" smooth="yes"/>
      <point x="25" y="69"/>
      <point x="100" y="-5"/>
    </contour>
    <contour>
      <point x="307" y="-58" type="line"/>
      <point x="382" y="-58" type="line"/>
      <point x="240" y="125" type="line"/>
      <point x="165" y="125" type="line"/>
    </contour>
  </outline>
</glyph>
<glyph name="R.half" format="2">
  <advance width="400"/>
  <outline>
    <contour>
      <point x="45" y="0" type="line"/>
      <point x="111" y="0" type="line"/>
      <point x="111" y="129" type="line"/>
      <point x="243" y="129" type="line" smooth="yes"/>
      <point x="317" y="129"/>
      <point x="367" y="165"/>
      <point x="367" y="227" type="curve" smooth="yes"/>
      <point x="367" y="290"/>
      <point x="317" y="335"/>
      <point x="243" y="335" type="curve" smooth="yes"/>
      <point x="45" y="335" type="line"/>
    </contour>
    <contour>
      <point x="295" y="0" type="line"/>
      <point x="375" y="0" type="line"/>
      <point x="264" y="141" type="line"/>
      <point x="186" y="141" type="line"/>
    </contour>
    <contour>
      <point x="111" y="179" type="line"/>
      <point x="111" y="277" type="line"/>
      <point x="245" y="277" type="line" smooth="yes"/>
      <point x="278" y="277"/>
      <point x="300" y="256"/>
      <point x="300" y="227" type="curve" smooth="yes"/>
      <point x="300" y="199"/>
      <point x="277" y="179"/>
      <point x="244" y="179" type="curve" smooth="yes"/>
    </contour>
  </outline>
</glyph>
<glyph name="T.half" format="2">
  <advance width="400"/>
  <outline>
    <contour>
      <point x="167" y="0" type="line"/>
      <point x="233" y="0" type="line"/>
      <point x="233" y="275" type="line"/>
      <point x="385" y="275" type="line"/>
      <point x="385" y="335" type="line"/>
      <point x="15" y="335" type="line"/>
      <point x="15" y="275" type="line"/>
      <point x="167" y="275" type="line"/>
    </contour>
  </outline>
</glyph>
<glyph name="U.half" format="2">
  <advance width="400"/>
  <outline>
    <contour>
      <point x="200" y="-10" type="curve" smooth="yes"/>
      <point x="292" y="-10"/>
      <point x="355" y="49"/>
      <point x="355" y="144" type="curve" smooth="yes"/>
      <point x="355" y="335" type="line"/>
      <point x="289" y="335" type="line"/>
      <point x="289" y="144" type="line" smooth="yes"/>
      <point x="289" y="85"/>
      <point x="253" y="50"/>
      <point x="200" y="50" type="curve" smooth="yes"/>
      <point x="147" y="50"/>
      <point x="111" y="85"/>
      <point x="111" y="144" type="curve" smooth="yes"/>
      <point x="111" y="335" type="line"/>
      <point x="45" y="335" type="line"/>
      <point x="45" y="144" type="line" smooth="yes"/>
      <point x="45" y="49"/>
      <point x="108" y="-10"/>
    </contour>
  </outline>
</glyph>
<glyph name="V.half" format="2">
  <advance width="400"/>
  <outline>
    <contour>
      <point x="173" y="129" type="curve" smooth="yes"/>
      <point x="84" y="335" type="line"/>
      <point x="15" y="335" type="line"/>
      <point x="163" y="0" type="line"/>
      <point x="237" y="0" type="line"/>
      <point x="385" y="335" type="line"/>
      <point x="313" y="335" type="line"/>
      <point x="226" y="129" type="line" smooth="yes"/>
      <point x="216" y="104"/>
      <point x="204" y="73"/>
      <point x="201" y="55" type="curve"/>
      <point x="198" y="73"/>
      <point x="184" y="104"/>
    </contour>
  </outline>
</glyph>
<glyph name="_similiar_tilda" format="2">
  <advance width="600"/>
  <outline>
    <contour>
      <point x="65" y="258" type="line"/>
      <point x="150" y="258" type="line"/>
      <point x="150" y="288" type="line" smooth="yes"/>
      <point x="150" y="316"/>
      <point x="168" y="333"/>
      <point x="197" y="333" type="curve" smooth="yes"/>
      <point x="259" y="333"/>
      <point x="304" y="253"/>
      <point x="405" y="253" type="curve" smooth="yes"/>
      <point x="485" y="253"/>
      <point x="535" y="305"/>
      <point x="535" y="388" type="curve" smooth="yes"/>
      <point x="535" y="403" type="line"/>
      <point x="450" y="403" type="line"/>
      <point x="450" y="373" type="line" smooth="yes"/>
      <point x="450" y="345"/>
      <point x="432" y="328"/>
      <point x="403" y="328" type="curve" smooth="yes"/>
      <point x="340" y="328"/>
      <point x="295" y="408"/>
      <point x="195" y="408" type="curve" smooth="yes"/>
      <point x="115" y="408"/>
      <point x="65" y="356"/>
      <point x="65" y="273" type="curve" smooth="yes"/>
    </contour>
  </outline>
</glyph>
<glyph name="ampersand_ampersand.liga" format="2">
  <advance width="600"/>
  <outline>
    <contour>
      <point x="200" y="-10" type="curve" smooth="yes"/>
      <point x="265" y="-10"/>
      <point x="326" y="24"/>
      <point x="374" y="87" type="curve"/>
      <point x="437" y="0" type="line"/>
      <point x="536" y="0" type="line"/>
      <point x="419" y="161" type="line"/>
      <point x="532" y="360" type="line"/>
      <point x="438" y="360" type="line"/>
      <point x="367" y="233" type="line"/>
      <point x="195" y="470" type="line" smooth="yes"/>
      <point x="170" y="504"/>
      <point x="155" y="546"/>
      <point x="155" y="579" type="curve" smooth="yes"/>
      <point x="155" y="630"/>
      <point x="190" y="662"/>
      <point x="245" y="662" type="curve" smooth="yes"/>
      <point x="306" y="662"/>
      <point x="344" y="627"/>
      <point x="344" y="569" type="curve"/>
      <point x="434" y="569" type="line"/>
      <point x="434" y="674"/>
      <point x="361" y="740"/>
      <point x="245" y="740" type="curve" smooth="yes"/>
      <point x="137" y="740"/>
      <point x="65" y="677"/>
      <point x="65" y="581" type="curve" smooth="yes"/>
      <point x="65" y="533"/>
      <point x="83" y="487"/>
      <point x="124" y="431" type="curve" smooth="yes"/>
      <point x="131" y="421" type="line"/>
      <point x="63" y="401"/>
      <point x="25" y="350"/>
      <point x="25" y="280" type="curve" smooth="yes"/>
      <point x="25" y="155" type="line" smooth="yes"/>
      <point x="25" y="52"/>
      <point x="91" y="-10"/>
    </contour>
    <contour>
      <point x="-335" y="70" type="curve" smooth="yes"/>
      <point x="-392" y="70"/>
      <point x="-425" y="101"/>
      <point x="-425" y="155" type="curve" smooth="yes"/>
      <point x="-425" y="280" type="line" smooth="yes"/>
      <point x="-425" y="324"/>
      <point x="-404" y="351"/>
      <point x="-363" y="358" type="curve"/>
      <point x="-216" y="155" type="line"/>
      <point x="-245" y="102"/>
      <point x="-290" y="70"/>
    </contour>
    <contour>
      <point x="-340" y="-10" type="curve" smooth="yes"/>
      <point x="-275" y="-10"/>
      <point x="-214" y="24"/>
      <point x="-166" y="87" type="curve"/>
      <point x="-103" y="0" type="line"/>
      <point x="-4" y="0" type="line"/>
      <point x="-345" y="470" type="line" smooth="yes"/>
      <point x="-370" y="504"/>
      <point x="-385" y="546"/>
      <point x="-385" y="579" type="curve" smooth="yes"/>
      <point x="-385" y="630"/>
      <point x="-350" y="662"/>
      <point x="-295" y="662" type="curve" smooth="yes"/>
      <point x="-234" y="662"/>
      <point x="-196" y="627"/>
      <point x="-196" y="569" type="curve"/>
      <point x="-106" y="569" type="line"/>
      <point x="-106" y="674"/>
      <point x="-179" y="740"/>
      <point x="-295" y="740" type="curve" smooth="yes"/>
      <point x="-403" y="740"/>
      <point x="-475" y="677"/>
      <point x="-475" y="581" type="curve" smooth="yes"/>
      <point x="-475" y="533"/>
      <point x="-457" y="487"/>
      <point x="-416" y="431" type="curve" smooth="yes"/>
      <point x="-409" y="421" type="line"/>
      <point x="-477" y="401"/>
      <point x="-515" y="350"/>
      <point x="-515" y="280" type="curve" smooth="yes"/>
      <point x="-515" y="155" type="line" smooth="yes"/>
      <point x="-515" y="52"/>
      <point x="-449" y="-10"/>
    </contour>
    <contour>
      <point x="205" y="70" type="curve" smooth="yes"/>
      <point x="148" y="70"/>
      <point x="115" y="101"/>
      <point x="115" y="155" type="curve" smooth="yes"/>
      <point x="115" y="280" type="line" smooth="yes"/>
      <point x="115" y="324"/>
      <point x="136" y="351"/>
      <point x="177" y="358" type="curve"/>
      <point x="324" y="155" type="line"/>
      <point x="295" y="102"/>
      <point x="250" y="70"/>
    </contour>
  </outline>
</glyph>
<glyph name="asciitilde_asciitilde_greater.liga" format="2">
  <advance width="600"/>
  <outline>
    <contour>
      <point x="188" y="35" type="line"/>
      <point x="293" y="35" type="line"/>
      <point x="525" y="330" type="line"/>
      <point x="294" y="625" type="line"/>
      <point x="188" y="625" type="line"/>
      <point x="355" y="414" type="line"/>
      <point x="281" y="386"/>
      <point x="268" y="304"/>
      <point x="210" y="304" type="curve" smooth="yes"/>
      <point x="140" y="304"/>
      <point x="135" y="434"/>
      <point x="10" y="434" type="curve" smooth="yes"/>
      <point x="-115" y="434"/>
      <point x="-120" y="304"/>
      <point x="-190" y="304" type="curve" smooth="yes"/>
      <point x="-260" y="304"/>
      <point x="-265" y="434"/>
      <point x="-390" y="434" type="curve" smooth="yes"/>
      <point x="-515" y="434"/>
      <point x="-527" y="304"/>
      <point x="-595" y="304" type="curve" smooth="yes"/>
      <point x="-665" y="304"/>
      <point x="-675" y="434"/>
      <point x="-800" y="434" type="curve" smooth="yes"/>
      <point x="-925" y="434"/>
      <point x="-930" y="304"/>
      <point x="-998" y="304" type="curve" smooth="yes"/>
      <point x="-1028" y="304"/>
      <point x="-1045" y="323"/>
      <point x="-1045" y="359" type="curve" smooth="yes"/>
      <point x="-1045" y="399" type="line"/>
      <point x="-1130" y="399" type="line"/>
      <point x="-1130" y="359" type="line" smooth="yes"/>
      <point x="-1130" y="282"/>
      <point x="-1078" y="229"/>
      <point x="-1000" y="229" type="curve" smooth="yes"/>
      <point x="-875" y="229"/>
      <point x="-872" y="359"/>
      <point x="-802" y="359" type="curve" smooth="yes"/>
      <point x="-732" y="359"/>
      <point x="-720" y="229"/>
      <point x="-595" y="229" type="curve" smooth="yes"/>
      <point x="-470" y="229"/>
      <point x="-460" y="359"/>
      <point x="-390" y="359" type="curve" smooth="yes"/>
      <point x="-320" y="359"/>
      <point x="-315" y="229"/>
      <point x="-190" y="229" type="curve" smooth="yes"/>
      <point x="-65" y="229"/>
      <point x="-60" y="359"/>
      <point x="10" y="359" type="curve" smooth="yes"/>
      <point x="80" y="359"/>
      <point x="85" y="229"/>
      <point x="210" y="229" type="curve" smooth="yes"/>
      <point x="334" y="229"/>
      <point x="340" y="347"/>
      <point x="408" y="349" type="curve"/>
      <point x="426" y="329" type="line"/>
    </contour>
  </outline>
</glyph>
<glyph name="asciitilde_at.liga" format="2">
  <advance width="600"/>
  <outline>
    <contour>
      <point x="-98" y="250" type="curve" smooth="yes"/>
      <point x="16" y="250"/>
      <point x="93" y="340"/>
      <point x="93" y="471" type="curve"/>
      <point x="48" y="471" type="line"/>
      <point x="48" y="384"/>
      <point x="-10" y="325"/>
      <point x="-98" y="325" type="curve" smooth="yes"/>
      <point x="-217" y="325"/>
      <point x="-232" y="455"/>
      <point x="-377" y="455" type="curve" smooth="yes"/>
      <point x="-464" y="455"/>
      <point x="-530" y="395"/>
      <point x="-530" y="315" type="curve" smooth="yes"/>
      <point x="-530" y="255" type="line"/>
      <point x="-445" y="255" type="line"/>
      <point x="-445" y="315" type="line" smooth="yes"/>
      <point x="-445" y="352"/>
      <point x="-415" y="380"/>
      <point x="-375" y="380" type="curve" smooth="yes"/>
      <point x="-287" y="380"/>
      <point x="-262" y="250"/>
    </contour>
    <component base="at"/>
  </outline>
</glyph>
<glyph name="braceleft_exclam_hyphen_hyphen.liga" format="2">
  <advance width="600"/>
  <outline>
    <contour>
      <point x="-700" y="290" type="line"/>
      <point x="515" y="290" type="line"/>
      <point x="515" y="370" type="line"/>
      <point x="-700" y="370" type="line"/>
    </contour>
    <contour>
      <point x="-1470" y="290" type="line"/>
      <point x="-1100" y="290" type="line"/>
      <point x="-1100" y="370" type="line"/>
      <point x="-1470" y="370" type="line"/>
    </contour>
    <component base="exclam" xOffset="-1198"/>
    <component base="braceleft" xOffset="-1740" yOffset="-30"/>
  </outline>
</glyph>
<glyph name="bracketright_numbersign.liga" format="2">
  <advance width="600"/>
  <outline>
    <contour>
      <point x="83" y="0" type="line"/>
      <point x="153" y="0" type="line"/>
      <point x="192" y="210" type="line"/>
      <point x="352" y="210" type="line"/>
      <point x="313" y="0" type="line"/>
      <point x="383" y="0" type="line"/>
      <point x="422" y="210" type="line"/>
      <point x="530" y="210" type="line"/>
      <point x="530" y="275" type="line"/>
      <point x="433" y="275" type="line"/>
      <point x="467" y="455" type="line"/>
      <point x="565" y="455" type="line"/>
      <point x="565" y="520" type="line"/>
      <point x="478" y="520" type="line"/>
      <point x="517" y="730" type="line"/>
      <point x="447" y="730" type="line"/>
      <point x="408" y="520" type="line"/>
      <point x="248" y="520" type="line"/>
      <point x="287" y="730" type="line"/>
      <point x="217" y="730" type="line"/>
      <point x="178" y="520" type="line"/>
      <point x="-255" y="520" type="line"/>
      <point x="-255" y="455" type="line"/>
      <point x="167" y="455" type="line"/>
      <point x="133" y="275" type="line"/>
      <point x="-255" y="275" type="line"/>
      <point x="-255" y="210" type="line"/>
      <point x="122" y="210" type="line"/>
    </contour>
    <contour>
      <point x="203" y="275" type="line"/>
      <point x="237" y="455" type="line"/>
      <point x="397" y="455" type="line"/>
      <point x="363" y="275" type="line"/>
    </contour>
    <component base="bracketright" xOffset="-600"/>
  </outline>
</glyph>
<glyph name="brevebelowcomb.case" format="2">
  <anchor x="-300" y="0" name="_bottom"/>
  <anchor x="-300" y="-240" name="bottom"/>
  <outline>
    <contour>
      <point x="-300" y="-240" type="curve" smooth="yes"/>
      <point x="-204" y="-240"/>
      <point x="-140" y="-182"/>
      <point x="-140" y="-95" type="curve"/>
      <point x="-211" y="-95" type="line"/>
      <point x="-211" y="-147"/>
      <point x="-247" y="-182"/>
      <point x="-301" y="-182" type="curve" smooth="yes"/>
      <point x="-354" y="-182"/>
      <point x="-389" y="-147"/>
      <point x="-389" y="-95" type="curve"/>
      <point x="-460" y="-95" type="line"/>
      <point x="-460" y="-182"/>
      <point x="-396" y="-240"/>
    </contour>
  </outline>
</glyph>
<glyph name="brevecomb.case" format="2">
  <anchor x="-300" y="730" name="_top"/>
  <anchor x="-300" y="950" name="top"/>
  <outline>
    <contour>
      <point x="-300" y="805" type="curve" smooth="yes"/>
      <point x="-204" y="805"/>
      <point x="-140" y="863"/>
      <point x="-140" y="950" type="curve"/>
      <point x="-211" y="950" type="line"/>
      <point x="-211" y="898"/>
      <point x="-247" y="863"/>
      <point x="-301" y="863" type="curve" smooth="yes"/>
      <point x="-354" y="863"/>
      <point x="-389" y="898"/>
      <point x="-389" y="950" type="curve"/>
      <point x="-460" y="950" type="line"/>
      <point x="-460" y="863"/>
      <point x="-396" y="805"/>
    </contour>
  </outline>
</glyph>
<glyph name="brevecomb_acutecomb.case" format="2">
  <anchor x="-300" y="730" name="_top"/>
  <anchor x="-300" y="1020" name="top"/>
  <outline>
    <contour>
      <point x="-363" y="900" type="line"/>
      <point x="-272" y="900" type="line"/>
      <point x="-162" y="1020" type="line"/>
      <point x="-258" y="1020" type="line"/>
    </contour>
    <contour>
      <point x="-325" y="780" type="curve" smooth="yes"/>
      <point x="-276" y="780" type="line" smooth="yes"/>
      <point x="-190" y="780"/>
      <point x="-135" y="830"/>
      <point x="-135" y="910" type="curve"/>
      <point x="-205" y="910" type="line"/>
      <point x="-205" y="867"/>
      <point x="-232" y="840"/>
      <point x="-276" y="840" type="curve" smooth="yes"/>
      <point x="-325" y="840" type="line" smooth="yes"/>
      <point x="-368" y="840"/>
      <point x="-395" y="867"/>
      <point x="-395" y="910" type="curve"/>
      <point x="-465" y="910" type="line"/>
      <point x="-465" y="830"/>
      <point x="-411" y="780"/>
    </contour>
  </outline>
</glyph>
<glyph name="brevecomb_gravecomb" format="2">
  <anchor x="-300" y="550" name="_top"/>
  <anchor x="-300" y="890" name="top"/>
  <outline>
    <contour>
      <point x="-300" y="640" type="curve" smooth="yes"/>
      <point x="-198" y="640"/>
      <point x="-130" y="692"/>
      <point x="-130" y="770" type="curve"/>
      <point x="-200" y="770" type="line"/>
      <point x="-200" y="728"/>
      <point x="-240" y="700"/>
      <point x="-300" y="700" type="curve" smooth="yes"/>
      <point x="-360" y="700"/>
      <point x="-400" y="728"/>
      <point x="-400" y="770" type="curve"/>
      <point x="-470" y="770" type="line"/>
      <point x="-470" y="692"/>
      <point x="-402" y="640"/>
    </contour>
    <contour>
      <point x="-328" y="760" type="line"/>
      <point x="-237" y="760" type="line"/>
      <point x="-352" y="890" type="line"/>
      <point x="-448" y="890" type="line"/>
    </contour>
  </outline>
</glyph>
<glyph name="brevecomb_hookabovecomb.case" format="2">
  <anchor x="-300" y="730" name="_top"/>
  <anchor x="-300" y="1020" name="top"/>
  <outline>
    <contour>
      <point x="-346" y="880" type="line"/>
      <point x="-271" y="880" type="line"/>
      <point x="-239" y="920" type="line" smooth="yes"/>
      <point x="-228" y="934"/>
      <point x="-223" y="955"/>
      <point x="-223" y="972" type="curve" smooth="yes"/>
      <point x="-223" y="1003"/>
      <point x="-244" y="1020"/>
      <point x="-278" y="1020" type="curve" smooth="yes"/>
      <point x="-375" y="1020" type="line"/>
      <point x="-375" y="960" type="line"/>
      <point x="-302" y="960" type="line" smooth="yes"/>
      <point x="-296" y="960"/>
      <point x="-292" y="957"/>
      <point x="-292" y="952" type="curve" smooth="yes"/>
      <point x="-292" y="948"/>
      <point x="-294" y="942"/>
      <point x="-299" y="936" type="curve" smooth="yes"/>
    </contour>
    <contour>
      <point x="-325" y="780" type="curve" smooth="yes"/>
      <point x="-276" y="780" type="line" smooth="yes"/>
      <point x="-190" y="780"/>
      <point x="-135" y="830"/>
      <point x="-135" y="910" type="curve"/>
      <point x="-205" y="910" type="line"/>
      <point x="-205" y="867"/>
      <point x="-232" y="840"/>
      <point x="-276" y="840" type="curve" smooth="yes"/>
      <point x="-325" y="840" type="line" smooth="yes"/>
      <point x="-368" y="840"/>
      <point x="-395" y="867"/>
      <point x="-395" y="910" type="curve"/>
      <point x="-465" y="910" type="line"/>
      <point x="-465" y="830"/>
      <point x="-411" y="780"/>
    </contour>
  </outline>
</glyph>
<glyph name="brevecomb_hookabovecomb" format="2">
  <anchor x="-300" y="550" name="_top"/>
  <anchor x="-300" y="930" name="top"/>
  <outline>
    <contour>
      <point x="-300" y="640" type="curve" smooth="yes"/>
      <point x="-198" y="640"/>
      <point x="-130" y="692"/>
      <point x="-130" y="770" type="curve"/>
      <point x="-200" y="770" type="line"/>
      <point x="-200" y="728"/>
      <point x="-240" y="700"/>
      <point x="-300" y="700" type="curve" smooth="yes"/>
      <point x="-360" y="700"/>
      <point x="-400" y="728"/>
      <point x="-400" y="770" type="curve"/>
      <point x="-470" y="770" type="line"/>
      <point x="-470" y="692"/>
      <point x="-402" y="640"/>
    </contour>
    <contour>
      <point x="-347" y="760" type="line"/>
      <point x="-268" y="760" type="line"/>
      <point x="-233" y="810" type="line" smooth="yes"/>
      <point x="-223" y="825"/>
      <point x="-216" y="841"/>
      <point x="-216" y="859" type="curve" smooth="yes"/>
      <point x="-216" y="901"/>
      <point x="-253" y="930"/>
      <point x="-310" y="930" type="curve" smooth="yes"/>
      <point x="-375" y="930" type="line"/>
      <point x="-375" y="870" type="line"/>
      <point x="-320" y="870" type="line" smooth="yes"/>
      <point x="-303" y="870"/>
      <point x="-293" y="861"/>
      <point x="-293" y="846" type="curve" smooth="yes"/>
      <point x="-293" y="838"/>
      <point x="-296" y="829"/>
      <point x="-302" y="821" type="curve" smooth="yes"/>
    </contour>
  </outline>
</glyph>
<glyph name="brevecomb_tildecomb.case" format="2">
  <anchor x="-300" y="730" name="_top"/>
  <anchor x="-300" y="1020" name="top"/>
  <outline>
    <contour>
      <point x="-325" y="780" type="curve" smooth="yes"/>
      <point x="-276" y="780" type="line" smooth="yes"/>
      <point x="-190" y="780"/>
      <point x="-135" y="820"/>
      <point x="-135" y="900" type="curve"/>
      <point x="-205" y="900" type="line"/>
      <point x="-205" y="857"/>
      <point x="-232" y="840"/>
      <point x="-276" y="840" type="curve" smooth="yes"/>
      <point x="-325" y="840" type="line" smooth="yes"/>
      <point x="-368" y="840"/>
      <point x="-395" y="857"/>
      <point x="-395" y="900" type="curve"/>
      <point x="-465" y="900" type="line"/>
      <point x="-465" y="820"/>
      <point x="-411" y="780"/>
    </contour>
    <contour>
      <point x="-223" y="920" type="curve" smooth="yes"/>
      <point x="-169" y="920"/>
      <point x="-135" y="952"/>
      <point x="-135" y="1003" type="curve" smooth="yes"/>
      <point x="-135" y="1010" type="line"/>
      <point x="-200" y="1010" type="line"/>
      <point x="-200" y="1003" type="line" smooth="yes"/>
      <point x="-200" y="985"/>
      <point x="-212" y="973"/>
      <point x="-230" y="973" type="curve" smooth="yes"/>
      <point x="-275" y="973"/>
      <point x="-290" y="1020"/>
      <point x="-375" y="1020" type="curve" smooth="yes"/>
      <point x="-430" y="1020"/>
      <point x="-465" y="988"/>
      <point x="-465" y="937" type="curve" smooth="yes"/>
      <point x="-465" y="930" type="line"/>
      <point x="-400" y="930" type="line"/>
      <point x="-400" y="937" type="line" smooth="yes"/>
      <point x="-400" y="955"/>
      <point x="-388" y="967"/>
      <point x="-370" y="967" type="curve" smooth="yes"/>
      <point x="-325" y="967"/>
      <point x="-307" y="920"/>
    </contour>
  </outline>
</glyph>
<glyph name="breveinvertedcomb.case" format="2">
  <anchor x="-300" y="730" name="_top"/>
  <anchor x="-300" y="950" name="top"/>
  <outline>
    <contour>
      <point x="-460" y="805" type="curve"/>
      <point x="-389" y="805" type="line"/>
      <point x="-389" y="857"/>
      <point x="-354" y="892"/>
      <point x="-301" y="892" type="curve" smooth="yes"/>
      <point x="-247" y="892"/>
      <point x="-211" y="857"/>
      <point x="-211" y="805" type="curve"/>
      <point x="-140" y="805" type="line"/>
      <point x="-140" y="892"/>
      <point x="-204" y="950"/>
      <point x="-300" y="950" type="curve" smooth="yes"/>
      <point x="-396" y="950"/>
      <point x="-460" y="892"/>
    </contour>
  </outline>
</glyph>
<glyph name="caroncomb.alt" format="2">
  <anchor x="-350" y="730" name="_top"/>
  <anchor x="-175" y="550" name="_topright"/>
  <outline>
    <contour>
      <point x="-155" y="550" type="line"/>
      <point x="-80" y="550" type="line"/>
      <point x="-60" y="730" type="line"/>
      <point x="-145" y="730" type="line"/>
    </contour>
  </outline>
</glyph>
<glyph name="caroncomb.case" format="2">
  <anchor x="-300" y="730" name="_top"/>
  <anchor x="-300" y="950" name="top"/>
  <outline>
    <contour>
      <point x="-341" y="810" type="line"/>
      <point x="-258" y="810" type="line"/>
      <point x="-119" y="950" type="line"/>
      <point x="-220" y="950" type="line"/>
      <point x="-300" y="872" type="line"/>
      <point x="-382" y="950" type="line"/>
      <point x="-481" y="950" type="line"/>
    </contour>
  </outline>
</glyph>
